<?xml version="1.0" encoding="utf-8"?>
<!-- Generator: Adobe Illustrator 24.1.1, SVG Export Plug-In . SVG Version: 6.00 Build 0)  -->
<svg version="1.1" id="Blanco" xmlns="http://www.w3.org/2000/svg" xmlns:xlink="http://www.w3.org/1999/xlink" x="0px" y="0px"
	 viewBox="0 0 2000 900" style="enable-background:new 0 0 2000 900;" xml:space="preserve">
<style type="text/css">
	.st0{fill:#313A46;}
	.st1{fill:#073042;}
	.st2{fill:#4285F4;}
	.st3{fill:#F9FBFE;}
	.st4{fill:#FFFFFF;}
</style>
<g id="_x23_313A46">
	<path class="st0" d="M1970,900H30c-16.6,0-30-13.4-30-30V30C0,13.4,13.4,0,30,0h1940c16.6,0,30,13.4,30,30v840
		C2000,886.6,1986.6,900,1970,900z"/>
</g>
<g id="_x23_073042">
	<path class="st1" d="M1970,900H30c-16.6,0-30-13.4-30-30V330c0-16.6,13.4-30,30-30h1940c16.6,0,30,13.4,30,30v540
		C2000,886.6,1986.6,900,1970,900z"/>
</g>
<g id="_x23_4285F4">
	<path class="st2" d="M1970,900H30c-16.6,0-30-13.4-30-30V580c0-16.6,13.4-30,30-30h1940c16.6,0,30,13.4,30,30v290
		C2000,886.6,1986.6,900,1970,900z"/>
</g>
<g id="_x23_F9FBFE">
	<path class="st3" d="M1970,900H30c-16.6,0-30-13.4-30-30v-90c0-16.6,13.4-30,30-30h1940c16.6,0,30,13.4,30,30v90
		C2000,886.6,1986.6,900,1970,900z"/>
</g>
<g>
	<path class="st4" d="M54.4,274.2l1.5-9.6H50l0.9-5.1h5.7l0.8-5.3h-5.8l0.8-5.1h5.8l1.4-9.2H65l-1.4,9.2h5.6l1.4-9.2h5.5l-1.4,9.2
		h5.8l-0.8,5.1H74l-0.8,5.3h5.9l-0.8,5.1h-5.8l-1.5,9.6h-5.5l1.4-9.6h-5.6l-1.4,9.6H54.4z M62,259.6h5.8l0.9-5.4h-5.8L62,259.6z"/>
	<path class="st4" d="M95.8,275c-1.4,0-2.7-0.2-4-0.5c-1.3-0.4-2.5-0.9-3.5-1.7c-1.1-0.8-2-1.7-2.8-2.8c-0.8-1.1-1.4-2.5-1.9-4
		l6.2-2.4c0.4,1.7,1.2,2.9,2.2,3.8c1,0.9,2.3,1.3,3.9,1.3c0.7,0,1.4-0.1,2-0.3c0.6-0.2,1.2-0.5,1.7-0.9c0.5-0.4,0.8-0.9,1.1-1.4
		c0.3-0.6,0.4-1.2,0.4-1.9c0-1.5-0.5-2.6-1.6-3.5c-1.1-0.8-2.6-1.3-4.5-1.3h-2.9v-5.9h2.7c0.7,0,1.3-0.1,2-0.3
		c0.6-0.2,1.2-0.4,1.7-0.8c0.5-0.3,0.9-0.8,1.1-1.3c0.3-0.6,0.4-1.2,0.4-1.9c0-1.1-0.4-2.1-1.2-2.8c-0.8-0.7-1.9-1.1-3.3-1.1
		c-1.5,0-2.6,0.4-3.4,1.2c-0.8,0.8-1.3,1.7-1.6,2.6l-6-2.5c0.3-0.8,0.8-1.7,1.4-2.6c0.6-0.9,1.4-1.7,2.3-2.4c0.9-0.7,2-1.3,3.2-1.8
		c1.2-0.4,2.6-0.7,4.3-0.7c1.6,0,3.1,0.2,4.5,0.7s2.5,1.1,3.5,1.9c1,0.8,1.7,1.8,2.3,2.9c0.5,1.1,0.8,2.3,0.8,3.6
		c0,1-0.1,1.9-0.4,2.7c-0.3,0.8-0.6,1.5-1,2.1c-0.4,0.6-0.9,1.2-1.4,1.6c-0.5,0.5-1,0.8-1.6,1.1v0.4c1.6,0.6,2.9,1.6,4,3
		c1.1,1.4,1.6,3.2,1.6,5.3c0,1.5-0.3,2.9-0.9,4.1c-0.6,1.3-1.4,2.3-2.4,3.3c-1.1,0.9-2.3,1.7-3.8,2.2C99.2,274.7,97.6,275,95.8,275z
		"/>
	<path class="st4" d="M119.7,274.2v-26.5l-6.1,2.5l-2.4-5.5l10-4.7h5v34.2H119.7z"/>
	<path class="st4" d="M144.5,275c-1.4,0-2.7-0.2-4-0.5c-1.3-0.4-2.5-0.9-3.5-1.7c-1.1-0.8-2-1.7-2.8-2.8c-0.8-1.1-1.4-2.5-1.9-4
		l6.2-2.4c0.4,1.7,1.2,2.9,2.2,3.8c1,0.9,2.3,1.3,3.9,1.3c0.7,0,1.4-0.1,2-0.3c0.6-0.2,1.2-0.5,1.7-0.9c0.5-0.4,0.8-0.9,1.1-1.4
		c0.3-0.6,0.4-1.2,0.4-1.9c0-1.5-0.5-2.6-1.6-3.5c-1.1-0.8-2.6-1.3-4.5-1.3h-2.9v-5.9h2.7c0.7,0,1.3-0.1,2-0.3
		c0.6-0.2,1.2-0.4,1.7-0.8c0.5-0.3,0.9-0.8,1.1-1.3c0.3-0.6,0.4-1.2,0.4-1.9c0-1.1-0.4-2.1-1.2-2.8c-0.8-0.7-1.9-1.1-3.3-1.1
		c-1.5,0-2.6,0.4-3.4,1.2c-0.8,0.8-1.3,1.7-1.6,2.6l-6-2.5c0.3-0.8,0.8-1.7,1.4-2.6c0.6-0.9,1.4-1.7,2.3-2.4c0.9-0.7,2-1.3,3.2-1.8
		c1.2-0.4,2.6-0.7,4.3-0.7c1.6,0,3.1,0.2,4.5,0.7s2.5,1.1,3.5,1.9c1,0.8,1.7,1.8,2.3,2.9c0.5,1.1,0.8,2.3,0.8,3.6
		c0,1-0.1,1.9-0.4,2.7c-0.3,0.8-0.6,1.5-1,2.1c-0.4,0.6-0.9,1.2-1.4,1.6c-0.5,0.5-1,0.8-1.6,1.1v0.4c1.6,0.6,2.9,1.6,4,3
		c1.1,1.4,1.6,3.2,1.6,5.3c0,1.5-0.3,2.9-0.9,4.1c-0.6,1.3-1.4,2.3-2.4,3.3c-1.1,0.9-2.3,1.7-3.8,2.2
		C147.9,274.7,146.3,275,144.5,275z"/>
	<path class="st4" d="M172.5,238.4h7.7l13.5,35.8h-7.5l-3-8.5h-13.8l-3,8.5H159L172.5,238.4z M181,259.5l-3.2-9l-1.3-4.3h-0.4
		l-1.3,4.3l-3.2,9H181z"/>
	<path class="st4" d="M212,274.2v-6.3h-15.8v-5.3l15.2-22.6h7.1v21.8h4.3v6.1h-4.3v6.3H212z M212,249.8h-0.4l-8.1,12.1h8.5V249.8z"
		/>
	<path class="st4" d="M241.1,252.3c1.3,0,2.6,0.3,3.8,0.8c1.2,0.5,2.3,1.3,3.3,2.3c1,1,1.7,2.1,2.3,3.5c0.6,1.4,0.9,2.9,0.9,4.5
		c0,1.7-0.3,3.3-1,4.7c-0.7,1.4-1.6,2.7-2.7,3.7c-1.1,1-2.4,1.8-3.9,2.4c-1.5,0.6-3,0.9-4.6,0.9c-1.9,0-3.5-0.3-5-1
		s-2.8-1.5-3.9-2.6c-1.1-1.1-1.9-2.3-2.5-3.8c-0.6-1.4-0.9-3-0.9-4.5c0-2.3,0.5-4.4,1.4-6.3c0.9-1.9,2.1-3.9,3.5-5.8l8.3-11.8
		l5.1,3.5l-7,9.8l0.3,0.3C239.2,252.5,240.1,252.3,241.1,252.3z M239.2,269c0.7,0,1.4-0.1,2.1-0.4c0.7-0.3,1.3-0.6,1.9-1.1
		c0.5-0.5,1-1.1,1.3-1.8c0.3-0.7,0.5-1.4,0.5-2.3c0-0.8-0.2-1.6-0.5-2.3c-0.3-0.7-0.7-1.3-1.3-1.8c-0.5-0.5-1.2-0.9-1.9-1.1
		c-0.7-0.3-1.4-0.4-2.1-0.4c-0.8,0-1.5,0.1-2.2,0.4c-0.7,0.3-1.3,0.6-1.9,1.1c-0.5,0.5-1,1.1-1.3,1.8c-0.3,0.7-0.5,1.5-0.5,2.3
		c0,0.8,0.2,1.6,0.5,2.3c0.3,0.7,0.8,1.3,1.3,1.8c0.6,0.5,1.2,0.9,1.9,1.1C237.7,268.8,238.4,269,239.2,269z"/>
</g>
<g>
	<path class="st4" d="M54.4,523.6l1.5-9.6H50l0.9-5.1h5.7l0.8-5.3h-5.8l0.8-5.1h5.8l1.4-9.2H65l-1.4,9.2h5.6l1.4-9.2h5.5l-1.4,9.2
		h5.8l-0.8,5.1H74l-0.8,5.3h5.9l-0.8,5.1h-5.8l-1.5,9.6h-5.5l1.4-9.6h-5.6l-1.4,9.6H54.4z M62,509h5.8l0.9-5.4h-5.8L62,509z"/>
	<path class="st4" d="M98.3,524.4c-2.2,0-4.2-0.5-5.9-1.4c-1.8-0.9-3.3-2.2-4.5-3.8s-2.2-3.5-2.9-5.7c-0.7-2.2-1-4.5-1-7.1
		c0-2.5,0.3-4.9,1-7.1c0.7-2.2,1.6-4.1,2.9-5.7s2.8-2.9,4.5-3.8c1.8-0.9,3.8-1.4,5.9-1.4c2.2,0,4.2,0.5,6,1.4
		c1.8,0.9,3.3,2.2,4.5,3.8s2.2,3.5,2.9,5.7c0.7,2.2,1,4.5,1,7.1c0,2.5-0.3,4.9-1,7.1c-0.7,2.2-1.6,4.1-2.9,5.7s-2.8,2.9-4.5,3.8
		C102.4,523.9,100.5,524.4,98.3,524.4z M98.3,518.2c1.2,0,2.3-0.3,3.3-0.9c1-0.6,1.8-1.4,2.5-2.5c0.7-1,1.2-2.3,1.6-3.7
		c0.3-1.4,0.5-3,0.5-4.6c0-1.7-0.2-3.3-0.5-4.7c-0.4-1.4-0.9-2.6-1.6-3.7c-0.7-1-1.5-1.9-2.5-2.4c-1-0.6-2-0.9-3.3-0.9
		c-1.2,0-2.3,0.3-3.3,0.9c-1,0.6-1.8,1.4-2.5,2.4c-0.7,1.1-1.2,2.3-1.5,3.7c-0.4,1.4-0.5,3-0.5,4.7c0,1.7,0.2,3.2,0.5,4.6
		c0.4,1.4,0.9,2.7,1.5,3.7c0.7,1.1,1.5,1.9,2.5,2.5C95.9,517.9,97,518.2,98.3,518.2z"/>
	<path class="st4" d="M117.9,521.3l14.3-25.5l-0.1-0.3h-15.8l0.1-6.2h23.2v6.5l-16.1,28.5L117.9,521.3z"/>
	<path class="st4" d="M155.6,524.4c-1.4,0-2.7-0.2-4-0.5c-1.3-0.4-2.5-0.9-3.5-1.7c-1.1-0.8-2-1.7-2.8-2.8c-0.8-1.1-1.4-2.5-1.9-4
		l6.2-2.4c0.4,1.7,1.2,2.9,2.2,3.8c1,0.9,2.3,1.3,3.9,1.3c0.7,0,1.4-0.1,2-0.3c0.6-0.2,1.2-0.5,1.7-0.9c0.5-0.4,0.8-0.9,1.1-1.4
		c0.3-0.6,0.4-1.2,0.4-1.9c0-1.5-0.5-2.6-1.6-3.5c-1.1-0.8-2.6-1.3-4.5-1.3h-2.9v-5.9h2.7c0.7,0,1.3-0.1,2-0.3
		c0.6-0.2,1.2-0.4,1.7-0.8c0.5-0.3,0.9-0.8,1.1-1.3c0.3-0.6,0.4-1.2,0.4-1.9c0-1.1-0.4-2.1-1.2-2.8c-0.8-0.7-1.9-1.1-3.3-1.1
		c-1.5,0-2.6,0.4-3.4,1.2c-0.8,0.8-1.3,1.7-1.6,2.6l-6-2.5c0.3-0.8,0.8-1.7,1.4-2.6c0.6-0.9,1.4-1.7,2.3-2.4c0.9-0.7,2-1.3,3.2-1.8
		c1.2-0.4,2.6-0.7,4.3-0.7c1.6,0,3.1,0.2,4.5,0.7s2.5,1.1,3.5,1.9c1,0.8,1.7,1.8,2.3,2.9c0.5,1.1,0.8,2.3,0.8,3.6
		c0,1-0.1,1.9-0.4,2.7c-0.3,0.8-0.6,1.5-1,2.1c-0.4,0.6-0.9,1.2-1.4,1.6c-0.5,0.5-1,0.8-1.6,1.1v0.4c1.6,0.6,2.9,1.6,4,3
		c1.1,1.4,1.6,3.2,1.6,5.3c0,1.5-0.3,2.9-0.9,4.1c-0.6,1.3-1.4,2.3-2.4,3.3c-1.1,0.9-2.3,1.7-3.8,2.2
		C159.1,524.1,157.4,524.4,155.6,524.4z"/>
	<path class="st4" d="M186.1,524.4c-2.2,0-4.2-0.5-5.9-1.4c-1.8-0.9-3.3-2.2-4.5-3.8s-2.2-3.5-2.9-5.7c-0.7-2.2-1-4.5-1-7.1
		c0-2.5,0.3-4.9,1-7.1c0.7-2.2,1.6-4.1,2.9-5.7s2.8-2.9,4.5-3.8c1.8-0.9,3.8-1.4,5.9-1.4c2.2,0,4.2,0.5,6,1.4
		c1.8,0.9,3.3,2.2,4.5,3.8s2.2,3.5,2.9,5.7c0.7,2.2,1,4.5,1,7.1c0,2.5-0.3,4.9-1,7.1c-0.7,2.2-1.6,4.1-2.9,5.7s-2.8,2.9-4.5,3.8
		C190.3,523.9,188.3,524.4,186.1,524.4z M186.1,518.2c1.2,0,2.3-0.3,3.3-0.9c1-0.6,1.8-1.4,2.5-2.5c0.7-1,1.2-2.3,1.6-3.7
		c0.3-1.4,0.5-3,0.5-4.6c0-1.7-0.2-3.3-0.5-4.7c-0.4-1.4-0.9-2.6-1.6-3.7c-0.7-1-1.5-1.9-2.5-2.4c-1-0.6-2-0.9-3.3-0.9
		c-1.2,0-2.3,0.3-3.3,0.9c-1,0.6-1.8,1.4-2.5,2.4c-0.7,1.1-1.2,2.3-1.5,3.7c-0.4,1.4-0.5,3-0.5,4.7c0,1.7,0.2,3.2,0.5,4.6
		c0.4,1.4,0.9,2.7,1.5,3.7c0.7,1.1,1.5,1.9,2.5,2.5C183.8,517.9,184.9,518.2,186.1,518.2z"/>
	<path class="st4" d="M220.5,523.6v-6.3h-15.8V512l15.2-22.6h7.1v21.8h4.3v6.1H227v6.3H220.5z M220.5,499.1h-0.4l-8.1,12.1h8.5
		V499.1z"/>
	<path class="st4" d="M235.8,523.6v-6c2-1.9,3.8-3.7,5.5-5.4c0.7-0.7,1.4-1.4,2.1-2.1c0.7-0.7,1.4-1.4,2.1-2
		c0.6-0.6,1.2-1.2,1.7-1.7c0.5-0.5,0.9-0.9,1.1-1.2c0.5-0.6,1-1.2,1.4-1.7c0.4-0.5,0.8-1,1-1.5c0.3-0.5,0.4-1,0.6-1.5
		c0.1-0.5,0.2-1,0.2-1.6c0-1.1-0.4-2.1-1.3-2.9c-0.9-0.8-2.1-1.2-3.6-1.2s-2.7,0.4-3.5,1.3c-0.8,0.9-1.4,1.8-1.7,2.9l-6-2.5
		c0.3-0.9,0.7-1.8,1.3-2.8c0.6-1,1.4-1.8,2.3-2.5c0.9-0.8,2-1.4,3.3-1.9c1.3-0.5,2.7-0.7,4.3-0.7c1.7,0,3.3,0.3,4.7,0.8
		c1.4,0.5,2.6,1.2,3.5,2.1c1,0.9,1.7,2,2.3,3.2c0.5,1.2,0.8,2.5,0.8,3.9c0,2.1-0.5,4.1-1.6,5.9c-1.1,1.8-2.3,3.4-3.8,5l-4.3,4.3
		c-1.1,1.1-2.4,2.4-3.9,3.8l0.2,0.3h13.8v5.8H235.8z"/>
</g>
<g>
	<path class="st4" d="M54.4,724.2l1.5-9.6H50l0.9-5.1h5.7l0.8-5.3h-5.8l0.8-5.1h5.8l1.4-9.2H65l-1.4,9.2h5.6l1.4-9.2h5.5l-1.4,9.2
		h5.8l-0.8,5.1H74l-0.8,5.3h5.9l-0.8,5.1h-5.8l-1.5,9.6h-5.5l1.4-9.6h-5.6l-1.4,9.6H54.4z M62,709.6h5.8l0.9-5.4h-5.8L62,709.6z"/>
	<path class="st4" d="M99.5,724.2v-6.3H83.7v-5.3L98.9,690h7.1v21.8h4.3v6.1H106v6.3H99.5z M99.5,699.8h-0.4L91,711.8h8.5V699.8z"/>
	<path class="st4" d="M114.8,724.2v-6c2-1.9,3.8-3.7,5.5-5.4c0.7-0.7,1.4-1.4,2.1-2.1c0.7-0.7,1.4-1.4,2.1-2
		c0.6-0.6,1.2-1.2,1.7-1.7c0.5-0.5,0.9-0.9,1.1-1.2c0.5-0.6,1-1.2,1.4-1.7c0.4-0.5,0.8-1,1-1.5c0.3-0.5,0.4-1,0.6-1.5
		c0.1-0.5,0.2-1,0.2-1.6c0-1.1-0.4-2.1-1.3-2.9c-0.9-0.8-2.1-1.2-3.6-1.2s-2.7,0.4-3.5,1.3c-0.8,0.9-1.4,1.8-1.7,2.9l-6-2.5
		c0.3-0.9,0.7-1.8,1.3-2.8c0.6-1,1.4-1.8,2.3-2.5c0.9-0.8,2-1.4,3.3-1.9c1.3-0.5,2.7-0.7,4.3-0.7c1.7,0,3.3,0.3,4.7,0.8
		c1.4,0.5,2.6,1.2,3.5,2.1c1,0.9,1.7,2,2.3,3.2c0.5,1.2,0.8,2.5,0.8,3.9c0,2.1-0.5,4.1-1.6,5.9c-1.1,1.8-2.3,3.4-3.8,5l-4.3,4.3
		c-1.1,1.1-2.4,2.4-3.9,3.8l0.2,0.3h13.8v5.8H114.8z"/>
	<path class="st4" d="M154.1,725c-1.8,0-3.5-0.3-5-0.8c-1.5-0.5-2.8-1.3-3.9-2.2c-1.1-0.9-2-2-2.6-3.3s-0.9-2.6-0.9-4.1
		c0-1,0.1-1.9,0.4-2.8c0.3-0.9,0.7-1.7,1.2-2.4c0.5-0.7,1-1.3,1.7-1.9c0.6-0.5,1.3-1,2-1.4V706c-1.1-0.7-2.1-1.7-2.9-2.9
		c-0.8-1.2-1.2-2.6-1.2-4.2c0-1.4,0.3-2.6,0.9-3.8c0.6-1.2,1.4-2.2,2.4-3.1c1-0.9,2.2-1.5,3.5-2c1.4-0.5,2.9-0.7,4.5-0.7
		c1.6,0,3.1,0.2,4.5,0.7c1.4,0.5,2.6,1.2,3.6,2c1,0.9,1.8,1.9,2.3,3.1c0.6,1.2,0.9,2.5,0.9,3.8c0,1.6-0.4,3-1.2,4.2
		c-0.8,1.2-1.8,2.2-2.9,2.9v0.4c0.7,0.4,1.4,0.8,2,1.4c0.6,0.5,1.2,1.1,1.7,1.9c0.5,0.7,0.9,1.5,1.1,2.4c0.3,0.9,0.4,1.8,0.4,2.8
		c0,1.5-0.3,2.8-0.9,4.1s-1.4,2.3-2.5,3.3c-1.1,0.9-2.4,1.6-3.9,2.2C157.7,724.7,156,725,154.1,725z M154.1,719
		c1.7,0,3.1-0.4,4.2-1.3c1.1-0.9,1.6-2.1,1.6-3.6c0-0.7-0.1-1.3-0.5-1.9c-0.3-0.6-0.7-1.1-1.2-1.5c-0.5-0.4-1.1-0.8-1.9-1
		c-0.7-0.2-1.5-0.4-2.3-0.4c-0.8,0-1.6,0.1-2.3,0.4c-0.7,0.2-1.3,0.6-1.9,1c-0.5,0.4-0.9,0.9-1.2,1.5c-0.3,0.6-0.5,1.2-0.5,1.9
		c0,1.5,0.6,2.7,1.7,3.6C151,718.5,152.5,719,154.1,719z M154.1,703.5c1.4,0,2.6-0.4,3.5-1.2c0.9-0.8,1.4-1.8,1.4-3.1
		c0-1.3-0.5-2.3-1.4-3.1c-0.9-0.8-2.1-1.1-3.5-1.1s-2.6,0.4-3.5,1.1c-0.9,0.8-1.4,1.8-1.4,3.1c0,1.3,0.5,2.3,1.4,3.1
		C151.6,703.1,152.8,703.5,154.1,703.5z"/>
	<path class="st4" d="M182.7,725c-1.3,0-2.6-0.2-3.9-0.5c-1.3-0.4-2.5-0.9-3.6-1.7c-1.1-0.8-2.1-1.7-2.9-2.9
		c-0.8-1.1-1.4-2.5-1.8-4.1l6-2.3c0.4,1.7,1.1,3,2.1,4c1,1,2.4,1.5,4,1.5c0.8,0,1.5-0.1,2.2-0.4c0.7-0.3,1.3-0.7,1.8-1.2
		c0.5-0.5,0.9-1.1,1.2-1.8c0.3-0.7,0.4-1.4,0.4-2.3c0-0.8-0.1-1.5-0.4-2.2c-0.3-0.7-0.7-1.3-1.2-1.8c-0.5-0.5-1.1-0.9-1.8-1.2
		c-0.7-0.3-1.4-0.4-2.3-0.4c-1,0-2,0.2-2.8,0.7c-0.8,0.5-1.5,1-2.1,1.7l-6.3-2.9l2-17.1h19.3v5.8h-13.8l-1.3,8l0.4,0.1
		c0.7-0.6,1.5-1,2.5-1.4c1-0.4,2.1-0.6,3.5-0.6c1.4,0,2.8,0.3,4.1,0.8c1.3,0.6,2.5,1.3,3.5,2.3s1.8,2.2,2.4,3.6
		c0.6,1.4,0.9,3,0.9,4.7c0,1.7-0.3,3.3-0.9,4.7c-0.6,1.4-1.4,2.7-2.5,3.7c-1.1,1-2.4,1.8-3.9,2.4C186.1,724.7,184.5,725,182.7,725z"
		/>
	<path class="st4" d="M200.8,688.4h22.7v6.4h-15.9v8.7h14.4v6.4h-14.4v14.3h-6.8V688.4z"/>
	<path class="st4" d="M241.9,724.2v-6.3h-15.8v-5.3l15.2-22.6h7.1v21.8h4.3v6.1h-4.3v6.3H241.9z M241.9,699.8h-0.4l-8.1,12.1h8.5
		V699.8z"/>
</g>
<g>
	<path d="M54.4,874.2l1.5-9.6H50l0.9-5.1h5.7l0.8-5.3h-5.8l0.8-5.1h5.8l1.4-9.2H65l-1.4,9.2h5.6l1.4-9.2h5.5l-1.4,9.2h5.8l-0.8,5.1
		H74l-0.8,5.3h5.9l-0.8,5.1h-5.8l-1.5,9.6h-5.5l1.4-9.6h-5.6l-1.4,9.6H54.4z M62,859.6h5.8l0.9-5.4h-5.8L62,859.6z"/>
	<path d="M85.3,838.4H108v6.4H92.1v8.7h14.4v6.4H92.1v14.3h-6.8V838.4z"/>
	<path d="M121.9,861.9c-1.3,0-2.6-0.3-3.8-0.8c-1.2-0.5-2.3-1.3-3.3-2.3c-1-1-1.7-2.1-2.3-3.5c-0.6-1.3-0.9-2.8-0.9-4.4
		c0-1.7,0.3-3.3,1-4.7c0.7-1.4,1.6-2.7,2.7-3.7c1.1-1,2.4-1.8,3.9-2.4c1.5-0.6,3-0.9,4.6-0.9c1.8,0,3.5,0.3,5,1
		c1.5,0.6,2.8,1.5,3.9,2.6c1.1,1.1,1.9,2.3,2.5,3.8c0.6,1.4,0.9,3,0.9,4.5c0,2.3-0.5,4.4-1.4,6.3c-0.9,1.9-2.1,3.9-3.5,5.8
		l-8.3,11.8l-5-3.4l7-9.9l-0.3-0.3C123.8,861.7,122.9,861.9,121.9,861.9z M123.8,845.3c-0.8,0-1.5,0.1-2.2,0.4
		c-0.7,0.3-1.3,0.6-1.8,1.1c-0.5,0.5-1,1.1-1.3,1.8c-0.3,0.7-0.5,1.4-0.5,2.2c0,0.9,0.2,1.6,0.5,2.3c0.3,0.7,0.7,1.3,1.3,1.8
		c0.5,0.5,1.1,0.9,1.8,1.1c0.7,0.3,1.4,0.4,2.2,0.4c0.7,0,1.4-0.1,2.1-0.4c0.7-0.3,1.3-0.6,1.9-1.1c0.5-0.5,1-1.1,1.3-1.8
		c0.3-0.7,0.5-1.4,0.5-2.3c0-0.8-0.2-1.6-0.5-2.2c-0.3-0.7-0.8-1.3-1.3-1.8c-0.6-0.5-1.2-0.9-1.9-1.1
		C125.3,845.4,124.5,845.3,123.8,845.3z"/>
	<path d="M141.6,838.4h22.7v6.4h-15.9v8.7h14.4v6.4h-14.4v14.3h-6.8V838.4z"/>
	<path d="M169.5,838.4h14c1.5,0,3,0.2,4.3,0.7c1.3,0.5,2.5,1.2,3.5,2c1,0.9,1.8,1.8,2.3,3c0.6,1.1,0.8,2.4,0.8,3.6
		c0,1.9-0.5,3.5-1.4,4.8c-0.9,1.3-2.1,2.3-3.4,2.9v0.4c1.8,0.7,3.3,1.7,4.4,3.1c1.1,1.4,1.7,3.2,1.7,5.3c0,1.5-0.3,2.9-0.9,4.1
		c-0.6,1.2-1.5,2.3-2.5,3.1c-1.1,0.9-2.3,1.5-3.7,2c-1.4,0.5-2.9,0.7-4.6,0.7h-14.5V838.4z M183,853c1.6,0,2.8-0.4,3.6-1.3
		s1.3-1.9,1.3-3c0-1.2-0.4-2.2-1.3-3c-0.8-0.8-2-1.3-3.5-1.3h-6.9v8.5H183z M183.7,868c1.7,0,3-0.4,3.9-1.3s1.4-1.9,1.4-3.3
		c0-1.3-0.5-2.4-1.4-3.3c-0.9-0.9-2.3-1.3-4.1-1.3h-7.3v9.2H183.7z"/>
	<path d="M200.9,838.4h22.7v6.4h-15.9v8.7H222v6.4h-14.4v14.3h-6.8V838.4z"/>
	<path d="M235.6,844.8v8.3h14.4v6.4h-14.4v8.3h15.9v6.4h-22.7v-35.8h22.7v6.4H235.6z"/>
</g>
</svg>
