<?xml version="1.0" encoding="utf-8"?>
<!-- Generator: Adobe Illustrator 24.1.1, SVG Export Plug-In . SVG Version: 6.00 Build 0)  -->
<svg version="1.1" id="Blanco" xmlns="http://www.w3.org/2000/svg" xmlns:xlink="http://www.w3.org/1999/xlink" x="0px" y="0px"
	 viewBox="0 0 1500 1200" style="enable-background:new 0 0 1500 1200;" xml:space="preserve">
<style type="text/css">
	.st0{fill:#313A46;}
	.st1{fill:#073042;}
	.st2{fill:#4285F4;}
	.st3{fill:#F9FBFE;}
	.st4{fill:#FFFFFF;}
</style>
<g id="_x23_313A46">
	<path class="st0" d="M1470,1200H30c-16.6,0-30-13.4-30-30V30C0,13.4,13.4,0,30,0h1440c16.6,0,30,13.4,30,30v1140
		C1500,1186.6,1486.6,1200,1470,1200z"/>
</g>
<g id="_x23_073042">
	<path class="st1" d="M1470,1200H30c-16.6,0-30-13.4-30-30V430c0-16.6,13.4-30,30-30h1440c16.6,0,30,13.4,30,30v740
		C1500,1186.6,1486.6,1200,1470,1200z"/>
</g>
<g id="_x23_4285F4">
	<path class="st2" d="M1470,1200H30c-16.6,0-30-13.4-30-30V780c0-16.6,13.4-30,30-30h1440c16.6,0,30,13.4,30,30v390
		C1500,1186.6,1486.6,1200,1470,1200z"/>
</g>
<g id="_x23_F9FBFE">
	<path class="st3" d="M1470,1200H30c-16.6,0-30-13.4-30-30v-140c0-16.6,13.4-30,30-30h1440c16.6,0,30,13.4,30,30v140
		C1500,1186.6,1486.6,1200,1470,1200z"/>
</g>
<g>
	<path class="st4" d="M38.9,374.9l1.5-9.6h-5.8l0.9-5.1h5.7l0.8-5.3h-5.8l0.8-5.1h5.8l1.4-9.2h5.5l-1.4,9.2h5.6l1.4-9.2h5.5
		l-1.4,9.2h5.8l-0.8,5.1h-5.7l-0.8,5.3h5.9l-0.8,5.1H57l-1.5,9.6h-5.5l1.4-9.6h-5.6l-1.4,9.6H38.9z M46.5,360.3h5.8l0.9-5.4h-5.8
		L46.5,360.3z"/>
	<path class="st4" d="M80.3,375.7c-1.4,0-2.7-0.2-4-0.5c-1.3-0.4-2.5-0.9-3.5-1.7c-1.1-0.8-2-1.7-2.8-2.8c-0.8-1.1-1.4-2.5-1.9-4
		l6.2-2.4c0.4,1.7,1.2,2.9,2.2,3.8c1,0.9,2.3,1.3,3.9,1.3c0.7,0,1.4-0.1,2-0.3c0.6-0.2,1.2-0.5,1.7-0.9c0.5-0.4,0.8-0.9,1.1-1.4
		c0.3-0.6,0.4-1.2,0.4-1.9c0-1.5-0.5-2.6-1.6-3.5c-1.1-0.8-2.6-1.3-4.5-1.3h-2.9v-5.9h2.7c0.7,0,1.3-0.1,2-0.3
		c0.6-0.2,1.2-0.4,1.7-0.8c0.5-0.3,0.9-0.8,1.1-1.3c0.3-0.6,0.4-1.2,0.4-1.9c0-1.1-0.4-2.1-1.2-2.8c-0.8-0.7-1.9-1.1-3.3-1.1
		c-1.5,0-2.6,0.4-3.4,1.2c-0.8,0.8-1.3,1.7-1.6,2.6l-6-2.5c0.3-0.8,0.8-1.7,1.4-2.6c0.6-0.9,1.4-1.7,2.3-2.4c0.9-0.7,2-1.3,3.2-1.8
		c1.2-0.4,2.6-0.7,4.3-0.7c1.6,0,3.1,0.2,4.5,0.7s2.5,1.1,3.5,1.9c1,0.8,1.7,1.8,2.3,2.9c0.5,1.1,0.8,2.3,0.8,3.6
		c0,1-0.1,1.9-0.4,2.7c-0.3,0.8-0.6,1.5-1,2.1c-0.4,0.6-0.9,1.2-1.4,1.6c-0.5,0.5-1,0.8-1.6,1.1v0.4c1.6,0.6,2.9,1.6,4,3
		c1.1,1.4,1.6,3.2,1.6,5.3c0,1.5-0.3,2.9-0.9,4.1c-0.6,1.3-1.4,2.3-2.4,3.3c-1.1,0.9-2.3,1.7-3.8,2.2
		C83.8,375.4,82.1,375.7,80.3,375.7z"/>
	<path class="st4" d="M104.2,374.9v-26.5l-6.1,2.5l-2.4-5.5l10-4.7h5v34.2H104.2z"/>
	<path class="st4" d="M129,375.7c-1.4,0-2.7-0.2-4-0.5c-1.3-0.4-2.5-0.9-3.5-1.7c-1.1-0.8-2-1.7-2.8-2.8c-0.8-1.1-1.4-2.5-1.9-4
		l6.2-2.4c0.4,1.7,1.2,2.9,2.2,3.8c1,0.9,2.3,1.3,3.9,1.3c0.7,0,1.4-0.1,2-0.3c0.6-0.2,1.2-0.5,1.7-0.9c0.5-0.4,0.8-0.9,1.1-1.4
		c0.3-0.6,0.4-1.2,0.4-1.9c0-1.5-0.5-2.6-1.6-3.5c-1.1-0.8-2.6-1.3-4.5-1.3h-2.9v-5.9h2.7c0.7,0,1.3-0.1,2-0.3
		c0.6-0.2,1.2-0.4,1.7-0.8c0.5-0.3,0.9-0.8,1.1-1.3c0.3-0.6,0.4-1.2,0.4-1.9c0-1.1-0.4-2.1-1.2-2.8c-0.8-0.7-1.9-1.1-3.3-1.1
		c-1.5,0-2.6,0.4-3.4,1.2c-0.8,0.8-1.3,1.7-1.6,2.6l-6-2.5c0.3-0.8,0.8-1.7,1.4-2.6c0.6-0.9,1.4-1.7,2.3-2.4c0.9-0.7,2-1.3,3.2-1.8
		c1.2-0.4,2.6-0.7,4.3-0.7c1.6,0,3.1,0.2,4.5,0.7s2.5,1.1,3.5,1.9c1,0.8,1.7,1.8,2.3,2.9c0.5,1.1,0.8,2.3,0.8,3.6
		c0,1-0.1,1.9-0.4,2.7c-0.3,0.8-0.6,1.5-1,2.1c-0.4,0.6-0.9,1.2-1.4,1.6c-0.5,0.5-1,0.8-1.6,1.1v0.4c1.6,0.6,2.9,1.6,4,3
		c1.1,1.4,1.6,3.2,1.6,5.3c0,1.5-0.3,2.9-0.9,4.1c-0.6,1.3-1.4,2.3-2.4,3.3c-1.1,0.9-2.3,1.7-3.8,2.2
		C132.5,375.4,130.8,375.7,129,375.7z"/>
	<path class="st4" d="M157,339.1h7.7l13.5,35.8h-7.5l-3-8.5H154l-3,8.5h-7.4L157,339.1z M165.6,360.1l-3.2-9l-1.3-4.3h-0.4l-1.3,4.3
		l-3.2,9H165.6z"/>
	<path class="st4" d="M196.6,374.9v-6.3h-15.8v-5.3l15.2-22.6h7.1v21.8h4.3v6.1h-4.3v6.3H196.6z M196.6,350.4h-0.4l-8.1,12.1h8.5
		V350.4z"/>
	<path class="st4" d="M225.7,353c1.3,0,2.6,0.3,3.8,0.8c1.2,0.5,2.3,1.3,3.3,2.3c1,1,1.7,2.1,2.3,3.5c0.6,1.4,0.9,2.9,0.9,4.5
		c0,1.7-0.3,3.3-1,4.7c-0.7,1.4-1.6,2.7-2.7,3.7c-1.1,1-2.4,1.8-3.9,2.4c-1.5,0.6-3,0.9-4.6,0.9c-1.9,0-3.5-0.3-5-1
		s-2.8-1.5-3.9-2.6c-1.1-1.1-1.9-2.3-2.5-3.8c-0.6-1.4-0.9-3-0.9-4.5c0-2.3,0.5-4.4,1.4-6.3c0.9-1.9,2.1-3.9,3.5-5.8l8.3-11.8
		l5.1,3.5l-7,9.8l0.3,0.3C223.8,353.1,224.7,353,225.7,353z M223.8,369.6c0.7,0,1.4-0.1,2.1-0.4c0.7-0.3,1.3-0.6,1.9-1.1
		c0.5-0.5,1-1.1,1.3-1.8c0.3-0.7,0.5-1.4,0.5-2.3c0-0.8-0.2-1.6-0.5-2.3c-0.3-0.7-0.7-1.3-1.3-1.8c-0.5-0.5-1.2-0.9-1.9-1.1
		c-0.7-0.3-1.4-0.4-2.1-0.4c-0.8,0-1.5,0.1-2.2,0.4c-0.7,0.3-1.3,0.6-1.9,1.1c-0.5,0.5-1,1.1-1.3,1.8c-0.3,0.7-0.5,1.5-0.5,2.3
		c0,0.8,0.2,1.6,0.5,2.3c0.3,0.7,0.8,1.3,1.3,1.8c0.6,0.5,1.2,0.9,1.9,1.1C222.3,369.5,223,369.6,223.8,369.6z"/>
</g>
<g>
	<path class="st4" d="M35.6,723.4l1.5-9.6h-5.8l0.9-5.1h5.7l0.8-5.3h-5.8l0.8-5.1h5.8l1.4-9.2h5.5l-1.4,9.2h5.6l1.4-9.2h5.5
		l-1.4,9.2h5.8l-0.8,5.1h-5.7l-0.8,5.3h5.9l-0.8,5.1h-5.8l-1.5,9.6h-5.5l1.4-9.6h-5.6l-1.4,9.6H35.6z M43.2,708.8H49l0.9-5.4H44
		L43.2,708.8z"/>
	<path class="st4" d="M79.5,724.2c-2.2,0-4.2-0.5-5.9-1.4c-1.8-0.9-3.3-2.2-4.5-3.8s-2.2-3.5-2.9-5.7c-0.7-2.2-1-4.5-1-7.1
		c0-2.5,0.3-4.9,1-7.1c0.7-2.2,1.6-4.1,2.9-5.7s2.8-2.9,4.5-3.8c1.8-0.9,3.8-1.4,5.9-1.4c2.2,0,4.2,0.5,6,1.4
		c1.8,0.9,3.3,2.2,4.5,3.8s2.2,3.5,2.9,5.7c0.7,2.2,1,4.5,1,7.1c0,2.5-0.3,4.9-1,7.1c-0.7,2.2-1.6,4.1-2.9,5.7s-2.8,2.9-4.5,3.8
		C83.7,723.8,81.7,724.2,79.5,724.2z M79.5,718c1.2,0,2.3-0.3,3.3-0.9c1-0.6,1.8-1.4,2.5-2.5c0.7-1,1.2-2.3,1.6-3.7
		c0.3-1.4,0.5-3,0.5-4.6c0-1.7-0.2-3.3-0.5-4.7c-0.4-1.4-0.9-2.6-1.6-3.7c-0.7-1-1.5-1.9-2.5-2.4c-1-0.6-2-0.9-3.3-0.9
		c-1.2,0-2.3,0.3-3.3,0.9c-1,0.6-1.8,1.4-2.5,2.4c-0.7,1.1-1.2,2.3-1.5,3.7c-0.4,1.4-0.5,3-0.5,4.7c0,1.7,0.2,3.2,0.5,4.6
		c0.4,1.4,0.9,2.7,1.5,3.7c0.7,1.1,1.5,1.9,2.5,2.5C77.1,717.8,78.2,718,79.5,718z"/>
	<path class="st4" d="M99.2,721.2l14.3-25.5l-0.1-0.3H97.5l0.1-6.2h23.2v6.5l-16.1,28.5L99.2,721.2z"/>
	<path class="st4" d="M136.9,724.2c-1.4,0-2.7-0.2-4-0.5c-1.3-0.4-2.5-0.9-3.5-1.7c-1.1-0.8-2-1.7-2.8-2.8c-0.8-1.1-1.4-2.5-1.9-4
		l6.2-2.4c0.4,1.7,1.2,2.9,2.2,3.8c1,0.9,2.3,1.3,3.9,1.3c0.7,0,1.4-0.1,2-0.3c0.6-0.2,1.2-0.5,1.7-0.9c0.5-0.4,0.8-0.9,1.1-1.4
		c0.3-0.6,0.4-1.2,0.4-1.9c0-1.5-0.5-2.6-1.6-3.5c-1.1-0.8-2.6-1.3-4.5-1.3H133v-5.9h2.7c0.7,0,1.3-0.1,2-0.3
		c0.6-0.2,1.2-0.4,1.7-0.8c0.5-0.3,0.9-0.8,1.1-1.3c0.3-0.6,0.4-1.2,0.4-1.9c0-1.1-0.4-2.1-1.2-2.8c-0.8-0.7-1.9-1.1-3.3-1.1
		c-1.5,0-2.6,0.4-3.4,1.2c-0.8,0.8-1.3,1.7-1.6,2.6l-6-2.5c0.3-0.8,0.8-1.7,1.4-2.6c0.6-0.9,1.4-1.7,2.3-2.4c0.9-0.7,2-1.3,3.2-1.8
		c1.2-0.4,2.6-0.7,4.3-0.7c1.6,0,3.1,0.2,4.5,0.7s2.5,1.1,3.5,1.9c1,0.8,1.7,1.8,2.3,2.9c0.5,1.1,0.8,2.3,0.8,3.6
		c0,1-0.1,1.9-0.4,2.7c-0.3,0.8-0.6,1.5-1,2.1c-0.4,0.6-0.9,1.2-1.4,1.6c-0.5,0.5-1,0.8-1.6,1.1v0.4c1.6,0.6,2.9,1.6,4,3
		c1.1,1.4,1.6,3.2,1.6,5.3c0,1.5-0.3,2.9-0.9,4.1c-0.6,1.3-1.4,2.3-2.4,3.3c-1.1,0.9-2.3,1.7-3.8,2.2
		C140.3,724,138.7,724.2,136.9,724.2z"/>
	<path class="st4" d="M167.4,724.2c-2.2,0-4.2-0.5-5.9-1.4c-1.8-0.9-3.3-2.2-4.5-3.8s-2.2-3.5-2.9-5.7c-0.7-2.2-1-4.5-1-7.1
		c0-2.5,0.3-4.9,1-7.1c0.7-2.2,1.6-4.1,2.9-5.7s2.8-2.9,4.5-3.8c1.8-0.9,3.8-1.4,5.9-1.4c2.2,0,4.2,0.5,6,1.4
		c1.8,0.9,3.3,2.2,4.5,3.8s2.2,3.5,2.9,5.7c0.7,2.2,1,4.5,1,7.1c0,2.5-0.3,4.9-1,7.1c-0.7,2.2-1.6,4.1-2.9,5.7s-2.8,2.9-4.5,3.8
		C171.6,723.8,169.6,724.2,167.4,724.2z M167.4,718c1.2,0,2.3-0.3,3.3-0.9c1-0.6,1.8-1.4,2.5-2.5c0.7-1,1.2-2.3,1.6-3.7
		c0.3-1.4,0.5-3,0.5-4.6c0-1.7-0.2-3.3-0.5-4.7c-0.4-1.4-0.9-2.6-1.6-3.7c-0.7-1-1.5-1.9-2.5-2.4c-1-0.6-2-0.9-3.3-0.9
		c-1.2,0-2.3,0.3-3.3,0.9c-1,0.6-1.8,1.4-2.5,2.4c-0.7,1.1-1.2,2.3-1.5,3.7c-0.4,1.4-0.5,3-0.5,4.7c0,1.7,0.2,3.2,0.5,4.6
		c0.4,1.4,0.9,2.7,1.5,3.7c0.7,1.1,1.5,1.9,2.5,2.5C165,717.8,166.1,718,167.4,718z"/>
	<path class="st4" d="M201.7,723.4v-6.3h-15.8v-5.3l15.2-22.6h7.1V711h4.3v6.1h-4.3v6.3H201.7z M201.7,699h-0.4l-8.1,12.1h8.5V699z"
		/>
	<path class="st4" d="M217,723.4v-6c2-1.9,3.8-3.7,5.5-5.4c0.7-0.7,1.4-1.4,2.1-2.1c0.7-0.7,1.4-1.4,2.1-2c0.6-0.6,1.2-1.2,1.7-1.7
		c0.5-0.5,0.9-0.9,1.1-1.2c0.5-0.6,1-1.2,1.4-1.7c0.4-0.5,0.8-1,1-1.5c0.3-0.5,0.4-1,0.6-1.5c0.1-0.5,0.2-1,0.2-1.6
		c0-1.1-0.4-2.1-1.3-2.9c-0.9-0.8-2.1-1.2-3.6-1.2s-2.7,0.4-3.5,1.3c-0.8,0.9-1.4,1.8-1.7,2.9l-6-2.5c0.3-0.9,0.7-1.8,1.3-2.8
		c0.6-1,1.4-1.8,2.3-2.5c0.9-0.8,2-1.4,3.3-1.9c1.3-0.5,2.7-0.7,4.3-0.7c1.7,0,3.3,0.3,4.7,0.8c1.4,0.5,2.6,1.2,3.5,2.1
		c1,0.9,1.7,2,2.3,3.2c0.5,1.2,0.8,2.5,0.8,3.9c0,2.1-0.5,4.1-1.6,5.9c-1.1,1.8-2.3,3.4-3.8,5l-4.3,4.3c-1.1,1.1-2.4,2.4-3.9,3.8
		l0.2,0.3h13.8v5.8H217z"/>
</g>
<g>
	<path class="st4" d="M38.2,973.9l1.5-9.6h-5.8l0.9-5.1h5.7l0.8-5.3h-5.8l0.8-5.1h5.8l1.4-9.2h5.5l-1.4,9.2H53l1.4-9.2h5.5l-1.4,9.2
		h5.8l-0.8,5.1h-5.7l-0.8,5.3h5.9l-0.8,5.1h-5.8l-1.5,9.6h-5.5l1.4-9.6h-5.6l-1.4,9.6H38.2z M45.8,959.3h5.8l0.9-5.4h-5.8
		L45.8,959.3z"/>
	<path class="st4" d="M83.3,973.9v-6.3H67.5v-5.3l15.2-22.6h7.1v21.8h4.3v6.1h-4.3v6.3H83.3z M83.3,949.4h-0.4l-8.1,12.1h8.5V949.4z
		"/>
	<path class="st4" d="M98.6,973.9v-6c2-1.9,3.8-3.7,5.5-5.4c0.7-0.7,1.4-1.4,2.1-2.1c0.7-0.7,1.4-1.4,2.1-2c0.6-0.6,1.2-1.2,1.7-1.7
		c0.5-0.5,0.9-0.9,1.1-1.2c0.5-0.6,1-1.2,1.4-1.7c0.4-0.5,0.8-1,1-1.5c0.3-0.5,0.4-1,0.6-1.5c0.1-0.5,0.2-1,0.2-1.6
		c0-1.1-0.4-2.1-1.3-2.9c-0.9-0.8-2.1-1.2-3.6-1.2s-2.7,0.4-3.5,1.3c-0.8,0.9-1.4,1.8-1.7,2.9l-6-2.5c0.3-0.9,0.7-1.8,1.3-2.8
		c0.6-1,1.4-1.8,2.3-2.5c0.9-0.8,2-1.4,3.3-1.9c1.3-0.5,2.7-0.7,4.3-0.7c1.7,0,3.3,0.3,4.7,0.8c1.4,0.5,2.6,1.2,3.5,2.1
		c1,0.9,1.7,2,2.3,3.2c0.5,1.2,0.8,2.5,0.8,3.9c0,2.1-0.5,4.1-1.6,5.9c-1.1,1.8-2.3,3.4-3.8,5l-4.3,4.3c-1.1,1.1-2.4,2.4-3.9,3.8
		l0.2,0.3h13.8v5.8H98.6z"/>
	<path class="st4" d="M138,974.7c-1.8,0-3.5-0.3-5-0.8c-1.5-0.5-2.8-1.3-3.9-2.2c-1.1-0.9-2-2-2.6-3.3s-0.9-2.6-0.9-4.1
		c0-1,0.1-1.9,0.4-2.8c0.3-0.9,0.7-1.7,1.2-2.4c0.5-0.7,1-1.3,1.7-1.9c0.6-0.5,1.3-1,2-1.4v-0.4c-1.1-0.7-2.1-1.7-2.9-2.9
		c-0.8-1.2-1.2-2.6-1.2-4.2c0-1.4,0.3-2.6,0.9-3.8c0.6-1.2,1.4-2.2,2.4-3.1c1-0.9,2.2-1.5,3.5-2c1.4-0.5,2.9-0.7,4.5-0.7
		c1.6,0,3.1,0.2,4.5,0.7c1.4,0.5,2.6,1.2,3.6,2c1,0.9,1.8,1.9,2.3,3.1c0.6,1.2,0.9,2.5,0.9,3.8c0,1.6-0.4,3-1.2,4.2
		c-0.8,1.2-1.8,2.2-2.9,2.9v0.4c0.7,0.4,1.4,0.8,2,1.4c0.6,0.5,1.2,1.1,1.7,1.9c0.5,0.7,0.9,1.5,1.1,2.4c0.3,0.9,0.4,1.8,0.4,2.8
		c0,1.5-0.3,2.8-0.9,4.1s-1.4,2.3-2.5,3.3c-1.1,0.9-2.4,1.6-3.9,2.2C141.5,974.4,139.8,974.7,138,974.7z M138,968.6
		c1.7,0,3.1-0.4,4.2-1.3c1.1-0.9,1.6-2.1,1.6-3.6c0-0.7-0.1-1.3-0.5-1.9c-0.3-0.6-0.7-1.1-1.2-1.5c-0.5-0.4-1.1-0.8-1.9-1
		c-0.7-0.2-1.5-0.4-2.3-0.4c-0.8,0-1.6,0.1-2.3,0.4c-0.7,0.2-1.3,0.6-1.9,1c-0.5,0.4-0.9,0.9-1.2,1.5c-0.3,0.6-0.5,1.2-0.5,1.9
		c0,1.5,0.6,2.7,1.7,3.6C134.9,968.2,136.3,968.6,138,968.6z M138,953.2c1.4,0,2.6-0.4,3.5-1.2c0.9-0.8,1.4-1.8,1.4-3.1
		c0-1.3-0.5-2.3-1.4-3.1c-0.9-0.8-2.1-1.1-3.5-1.1s-2.6,0.4-3.5,1.1c-0.9,0.8-1.4,1.8-1.4,3.1c0,1.3,0.5,2.3,1.4,3.1
		C135.4,952.8,136.6,953.2,138,953.2z"/>
	<path class="st4" d="M166.5,974.7c-1.3,0-2.6-0.2-3.9-0.5c-1.3-0.4-2.5-0.9-3.6-1.7c-1.1-0.8-2.1-1.7-2.9-2.9
		c-0.8-1.1-1.4-2.5-1.8-4.1l6-2.3c0.4,1.7,1.1,3,2.1,4c1,1,2.4,1.5,4,1.5c0.8,0,1.5-0.1,2.2-0.4c0.7-0.3,1.3-0.7,1.8-1.2
		c0.5-0.5,0.9-1.1,1.2-1.8c0.3-0.7,0.4-1.4,0.4-2.3c0-0.8-0.1-1.5-0.4-2.2c-0.3-0.7-0.7-1.3-1.2-1.8c-0.5-0.5-1.1-0.9-1.8-1.2
		c-0.7-0.3-1.4-0.4-2.3-0.4c-1,0-2,0.2-2.8,0.7c-0.8,0.5-1.5,1-2.1,1.7l-6.3-2.9l2-17.1h19.3v5.8h-13.8l-1.3,8l0.4,0.1
		c0.7-0.6,1.5-1,2.5-1.4c1-0.4,2.1-0.6,3.5-0.6c1.4,0,2.8,0.3,4.1,0.8c1.3,0.6,2.5,1.3,3.5,2.3s1.8,2.2,2.4,3.6
		c0.6,1.4,0.9,3,0.9,4.7c0,1.7-0.3,3.3-0.9,4.7c-0.6,1.4-1.4,2.7-2.5,3.7c-1.1,1-2.4,1.8-3.9,2.4
		C169.9,974.4,168.3,974.7,166.5,974.7z"/>
	<path class="st4" d="M184.7,938.1h22.7v6.4h-15.9v8.7h14.4v6.4h-14.4v14.3h-6.8V938.1z"/>
	<path class="st4" d="M225.8,973.9v-6.3H210v-5.3l15.2-22.6h7.1v21.8h4.3v6.1h-4.3v6.3H225.8z M225.8,949.4h-0.4l-8.1,12.1h8.5
		V949.4z"/>
</g>
<g>
	<path d="M38.6,1173.9l1.5-9.6h-5.8l0.9-5.1h5.7l0.8-5.3h-5.8l0.8-5.1h5.8l1.4-9.2h5.5l-1.4,9.2h5.6l1.4-9.2h5.5l-1.4,9.2h5.8
		l-0.8,5.1h-5.7l-0.8,5.3h5.9l-0.8,5.1h-5.8l-1.5,9.6h-5.5l1.4-9.6h-5.6l-1.4,9.6H38.6z M46.2,1159.3H52l0.9-5.4h-5.8L46.2,1159.3z"
		/>
	<path d="M69.6,1138.1h22.7v6.4H76.3v8.7h14.4v6.4H76.3v14.3h-6.8V1138.1z"/>
	<path d="M106.1,1161.5c-1.3,0-2.6-0.3-3.8-0.8c-1.2-0.5-2.3-1.3-3.3-2.3c-1-1-1.7-2.1-2.3-3.5c-0.6-1.3-0.9-2.8-0.9-4.4
		c0-1.7,0.3-3.3,1-4.7c0.7-1.4,1.6-2.7,2.7-3.7c1.1-1,2.4-1.8,3.9-2.4c1.5-0.6,3-0.9,4.6-0.9c1.8,0,3.5,0.3,5,1
		c1.5,0.6,2.8,1.5,3.9,2.6c1.1,1.1,1.9,2.3,2.5,3.8c0.6,1.4,0.9,3,0.9,4.5c0,2.3-0.5,4.4-1.4,6.3c-0.9,1.9-2.1,3.9-3.5,5.8
		l-8.3,11.8l-5-3.4l7-9.9l-0.3-0.3C108,1161.4,107.1,1161.5,106.1,1161.5z M108.1,1144.9c-0.8,0-1.5,0.1-2.2,0.4
		c-0.7,0.3-1.3,0.6-1.8,1.1c-0.5,0.5-1,1.1-1.3,1.8c-0.3,0.7-0.5,1.4-0.5,2.2c0,0.9,0.2,1.6,0.5,2.3c0.3,0.7,0.7,1.3,1.3,1.8
		c0.5,0.5,1.1,0.9,1.8,1.1c0.7,0.3,1.4,0.4,2.2,0.4c0.7,0,1.4-0.1,2.1-0.4c0.7-0.3,1.3-0.6,1.9-1.1c0.5-0.5,1-1.1,1.3-1.8
		c0.3-0.7,0.5-1.4,0.5-2.3c0-0.8-0.2-1.6-0.5-2.2c-0.3-0.7-0.8-1.3-1.3-1.8c-0.6-0.5-1.2-0.9-1.9-1.1
		C109.5,1145.1,108.8,1144.9,108.1,1144.9z"/>
	<path d="M125.8,1138.1h22.7v6.4h-15.9v8.7h14.4v6.4h-14.4v14.3h-6.8V1138.1z"/>
	<path d="M153.7,1138.1h14c1.5,0,3,0.2,4.3,0.7c1.3,0.5,2.5,1.2,3.5,2c1,0.9,1.8,1.8,2.3,3c0.6,1.1,0.8,2.4,0.8,3.6
		c0,1.9-0.5,3.5-1.4,4.8c-0.9,1.3-2.1,2.3-3.4,2.9v0.4c1.8,0.7,3.3,1.7,4.4,3.1c1.1,1.4,1.7,3.2,1.7,5.3c0,1.5-0.3,2.9-0.9,4.1
		c-0.6,1.2-1.5,2.3-2.5,3.1c-1.1,0.9-2.3,1.5-3.7,2c-1.4,0.5-2.9,0.7-4.6,0.7h-14.5V1138.1z M167.2,1152.7c1.6,0,2.8-0.4,3.6-1.3
		s1.3-1.9,1.3-3c0-1.2-0.4-2.2-1.3-3c-0.8-0.8-2-1.3-3.5-1.3h-6.9v8.5H167.2z M168,1167.7c1.7,0,3-0.4,3.9-1.3s1.4-1.9,1.4-3.3
		c0-1.3-0.5-2.4-1.4-3.3c-0.9-0.9-2.3-1.3-4.1-1.3h-7.3v9.2H168z"/>
	<path d="M185.2,1138.1h22.7v6.4h-15.9v8.7h14.4v6.4h-14.4v14.3h-6.8V1138.1z"/>
	<path d="M219.8,1144.5v8.3h14.4v6.4h-14.4v8.3h15.9v6.4h-22.7v-35.8h22.7v6.4H219.8z"/>
</g>
</svg>
