<svg id="Normal" xmlns="http://www.w3.org/2000/svg" xmlns:xlink="http://www.w3.org/1999/xlink" viewBox="0 0 3295.25 1438"><defs><style>.cls-1{fill:#313a46;}.cls-2{opacity:0.8;}.cls-3{fill:url(#Degradado_sin_nombre_4);}.cls-4,.cls-6{fill:#4285f4;}.cls-5,.cls-9{fill:#fff;}.cls-14,.cls-5{opacity:0.1;}.cls-10,.cls-14,.cls-16,.cls-17,.cls-19,.cls-5,.cls-6{isolation:isolate;}.cls-10,.cls-6{opacity:0.2;}.cls-7{opacity:0.3;}.cls-8{fill:url(#Degradado_sin_nombre_4-2);}.cls-11{fill:#e0e0e0;}.cls-12,.cls-17,.cls-19{opacity:0.5;}.cls-13{fill:url(#Degradado_sin_nombre_4-3);}.cls-15{fill:url(#Degradado_sin_nombre_4-4);}.cls-16{opacity:0.05;}.cls-17{fill:#4d8af0;}.cls-18{fill:#47e6b1;}.cls-19{fill:#f55f44;}</style><linearGradient id="Degradado_sin_nombre_4" x1="422.4" y1="3970.07" x2="422.4" y2="4348.16" gradientTransform="matrix(1, 0, 0, -1, 1251.55, 4413)" gradientUnits="userSpaceOnUse"><stop offset="0" stop-color="gray" stop-opacity="0.25"/><stop offset="0.54" stop-color="gray" stop-opacity="0.12"/><stop offset="1" stop-color="gray" stop-opacity="0.1"/></linearGradient><linearGradient id="Degradado_sin_nombre_4-2" x1="-216.24" y1="1922.57" x2="-216.24" y2="2231.52" gradientTransform="matrix(0.95, 0.32, 0.32, -0.95, 1286.71, 3262.41)" xlink:href="#Degradado_sin_nombre_4"/><linearGradient id="Degradado_sin_nombre_4-3" x1="-404.54" y1="2550.81" x2="-404.54" y2="2859.77" gradientTransform="matrix(0.95, 0.32, 0.32, -0.95, 1286.71, 3262.41)" xlink:href="#Degradado_sin_nombre_4"/><linearGradient id="Degradado_sin_nombre_4-4" x1="422.4" y1="3949.55" x2="422.4" y2="4207.5" xlink:href="#Degradado_sin_nombre_4"/></defs><path class="cls-1" d="M804.38,347.4q15.17-26.56,52.17-37T953.3,300q59.76,0,95.81,12.33t51.21,39.84q15.17,27.53,18,50.28t2.85,66.39V1523.6q0,74-18,109.1t-55,46.48q-37,11.38-92,11.37t-87.28-9.47q-32.25-9.46-49.34-22.78t-24.63-38q-11.38-32.25-11.39-98.65V1290.26H269.4q-132.81,0-157.46-72.09-9.5-30.33-9.49-81.57t5.7-75.89L265.6,425.16q11.38-43.61,19.92-66.37t34.15-43.64q25.59-20.86,65.46-20.88t87.26,13.28Q605.16,343.61,605.18,429q0,30.36-13.26,79.69c-1.28,2.54-1.9,4.43-1.9,5.69L474.29,977.23H783.52V459.31q0-43.6,2.83-64.47T804.38,347.4Z" transform="translate(-102.45 -281)"/><path class="cls-1" d="M1388.68,462.17q55-76.82,154.62-129T1773.8,281q130.89,0,228.59,51.23t153.68,127.1q55.95,75.9,90.11,178.32,56.9,170.75,56.91,362.34,0,343.4-148,544.47-55,75.9-152.74,125.23T1775.7,1719q-129,0-228.6-50.27t-155.56-124.25q-56-74-92-176.43-55-163.17-55-370,0-189.69,44.58-324.4T1388.68,462.17Zm383.23,919.14q195.38,0,195.39-371.83V998.09q0-381.3-193.5-381.3T1580.31,999.05Q1580.31,1381.31,1771.91,1381.31Z" transform="translate(-102.45 -281)"/><path class="cls-1" d="M3080.88,347.4q15.16-26.56,52.17-37T3229.8,300q59.76,0,95.81,12.33t51.21,39.84q15.16,27.53,18,50.28t2.86,66.39V1523.6q0,74-18,109.1t-55,46.48q-37,11.38-92,11.37t-87.28-9.47q-32.25-9.46-49.34-22.78t-24.63-38Q3060,1588.1,3060,1521.7V1290.26H2545.9q-132.81,0-157.45-72.09-9.51-30.33-9.5-81.57t5.7-75.89L2542.1,425.16q11.4-43.61,19.92-66.37t34.15-43.64q25.59-20.86,65.46-20.88t87.26,13.28q132.77,36.06,132.8,121.41,0,30.36-13.27,79.69c-1.28,2.54-1.9,4.43-1.9,5.69L2750.79,977.23H3060V459.31q0-43.6,2.84-64.47T3080.88,347.4Z" transform="translate(-102.45 -281)"/><ellipse class="cls-1" cx="1666.55" cy="713" rx="250" ry="531"/><g class="cls-2"><ellipse class="cls-3" cx="1673.95" cy="253.89" rx="244.02" ry="189.04"/></g><ellipse class="cls-4" cx="1673.95" cy="253.89" rx="238.61" ry="184.84"/><path class="cls-5" d="M1576.36,555.43c0-102.09,106.82-184.84,238.6-184.84a292.32,292.32,0,0,1,118.89,24.54c-41.93-28.33-96.8-45.54-156.85-45.54-131.77,0-238.61,82.76-238.61,184.85,0,68.54,48.17,128.37,119.73,160.3C1608,660.85,1576.36,611,1576.36,555.43Z" transform="translate(-102.45 -281)"/><polygon class="cls-6" points="1673.95 327.7 1938.47 785.86 2202.99 1244 1673.95 1244 1144.91 1244 1409.43 785.86 1673.95 327.7"/><g class="cls-7"><path class="cls-8" d="M1839.17,1257.85l20.54-61a104.4,104.4,0,0,0-38.66-118.11l.17-.1a102.32,102.32,0,0,0-26.31-13.33h0l-.28-.1-.32-.1h0a104.63,104.63,0,0,0-38.34-5.3,103.89,103.89,0,0,0-17.47,2.42c-1.67.36-3.34.78-4.85,1.23s-3.22.93-4.8,1.45c-3.17,1-6.28,2.23-9.33,3.58-1.53.67-3,1.37-4.53,2.12a101.45,101.45,0,0,0-12.92,7.6c-1.38.94-2.73,1.93-4.06,2.93a103.24,103.24,0,0,0-35.39,49.32l-32.29,96a103.15,103.15,0,0,0-4.47,46.85q.51,3.63,1.24,7.2c.48,2.38,1.08,4.73,1.66,7.06.45,1.55.92,3.1,1.44,4.64.76,2.28,1.66,4.56,2.51,6.79q.93,2.24,2,4.44c1.35,2.91,2.85,5.76,4.47,8.54a88,88,0,0,0,5.26,8.13c1.4,2,2.88,3.9,4.42,5.77a84.73,84.73,0,0,0,6.53,7.21,103,103,0,0,0,35,23.15h0l.56.23a37.24,37.24,0,0,1,2.34-3.62c5-6.84,13.69-11.66,22-9.86.6.13,1.2.32,1.8.5,4.2,1.48,8.33,4.13,12.38,5.43a11.11,11.11,0,0,0,9.35-.11c8.1-4.32,5.1-17.93,12-23.9a10.66,10.66,0,0,1,1-.76,2,2,0,0,1-.26-.39c5.36-3.33,12.79-1.11,19,1,6.67,2.35,15.37,3.93,20-1.52,3.13-3.73,2.9-9.41,5.88-13.33,3.46-4.5,10-5,15.64-4.2l.29.09c10.83,4.46,22.66-3,21.82-14.63C1833.15,1275.71,1838.05,1261,1839.17,1257.85Z" transform="translate(-102.45 -281)"/></g><path class="cls-9" d="M1695.11,1347.8c4.86-6.66,13.21-11.33,21.21-9.51s15.58,9.43,22.69,5.61c9.73-5.2,2.84-24.31,18.63-25.72a20.7,20.7,0,0,1,9.61,1.66c6.67,2.72,17.1,5.79,22.23-.33,3-3.6,2.8-9.08,5.68-12.81,3.33-4.33,9.68-4.88,15.1-4l.26.08c10.45,4.32,21.88-2.85,21.06-14.11-1-15,3.72-29.12,4.75-32.19l19.8-58.83a100.61,100.61,0,0,0-63.07-127.11h0A100.58,100.58,0,0,0,1666,1133.57l-31.21,92.52a100.61,100.61,0,0,0,58,125.21A37.21,37.21,0,0,1,1695.11,1347.8Z" transform="translate(-102.45 -281)"/><circle class="cls-10" cx="1629.55" cy="843.32" r="10.85"/><circle class="cls-10" cx="1691.23" cy="864.06" r="10.85"/><ellipse class="cls-11" cx="1749.05" cy="1175.92" rx="16.26" ry="10.85" transform="translate(-25.78 2177.54) rotate(-71.4)"/><circle class="cls-9" cx="1874.77" cy="845.72" r="16.26"/><circle class="cls-9" cx="1926.29" cy="820.14" r="8.13"/><g class="cls-12"><g class="cls-7"><path class="cls-13" d="M1860.83,602.28l20.54-61a104.4,104.4,0,0,0-38.66-118.11l.17-.1a102.32,102.32,0,0,0-26.31-13.33h0l-.28-.1-.32-.1h0a102.36,102.36,0,0,0-28.16-5.3,96,96,0,0,0-10.18,0,104.91,104.91,0,0,0-17.47,2.41c-1.67.37-3.34.79-4.85,1.24s-3.22.93-4.8,1.45c-3.17,1.05-6.28,2.23-9.33,3.58-1.53.67-3,1.37-4.53,2.12a102.58,102.58,0,0,0-12.92,7.59c-1.38.95-2.73,1.94-4.06,2.94a103.26,103.26,0,0,0-35.39,49.31L1652,571a103.15,103.15,0,0,0-4.47,46.85q.51,3.63,1.24,7.2c.48,2.38,1.08,4.73,1.66,7.06.45,1.55.92,3.1,1.44,4.63.76,2.29,1.66,4.57,2.51,6.8.62,1.48,1.27,3,2,4.43,1.35,2.92,2.85,5.77,4.47,8.55a89.33,89.33,0,0,0,5.26,8.13c1.4,2,2.88,3.9,4.42,5.77q3.09,3.75,6.53,7.21a103,103,0,0,0,35,23.14h0l.56.24a37.24,37.24,0,0,1,2.34-3.62c5-6.85,13.69-11.66,22-9.86.6.13,1.2.31,1.8.5,4.2,1.48,8.33,4.13,12.38,5.43a11.08,11.08,0,0,0,9.35-.12c8.1-4.31,5.1-17.92,12-23.89.32-.27.66-.53,1-.77a2,2,0,0,1-.26-.38c5.36-3.33,12.79-1.12,19,1,6.67,2.35,15.37,3.94,20-1.51,3.13-3.73,2.9-9.42,5.88-13.33,3.46-4.5,10-5,15.64-4.2h.29c10.83,4.47,22.66-2.95,21.82-14.63C1854.81,620.15,1859.71,605.47,1860.83,602.28Z" transform="translate(-102.45 -281)"/></g><path class="cls-9" d="M1716.77,693c4.86-6.66,13.21-11.33,21.21-9.51s15.58,9.43,22.69,5.62c9.73-5.2,2.84-24.31,18.63-25.73a20.58,20.58,0,0,1,9.61,1.67c6.67,2.71,17.1,5.78,22.23-.34,3-3.6,2.8-9.08,5.68-12.81,3.33-4.33,9.68-4.88,15.1-4l.26.08c10.45,4.32,21.88-2.84,21.06-14.11-1-15,3.72-29.12,4.75-32.19l19.8-58.83a100.61,100.61,0,0,0-63.07-127.11h0a100.59,100.59,0,0,0-127.07,63.08l-31.21,92.52a100.61,100.61,0,0,0,58,125.21A37.21,37.21,0,0,1,1716.77,693Z" transform="translate(-102.45 -281)"/><circle class="cls-10" cx="1651.21" cy="188.52" r="10.85"/><circle class="cls-10" cx="1712.89" cy="209.27" r="10.85"/></g><path class="cls-14" d="M2005.53,480.1a145.76,145.76,0,0,1,4.65,36.66c0,102.08-106.82,184.84-238.59,184.84-107.85-.07-199-55.48-228.45-131.52,21.89,84.59,118.3,148.28,233.94,148.28,131.78,0,238.61-82.75,238.61-184.84A146.89,146.89,0,0,0,2005.53,480.1Z" transform="translate(-102.45 -281)"/><g class="cls-2"><ellipse class="cls-15" cx="1673.95" cy="334.48" rx="493.48" ry="128.98"/></g><path class="cls-9" d="M1776.4,490.55c-263.55,0-477.22,55.84-477.22,124.73h954.44C2253.62,546.39,2040,490.55,1776.4,490.55Z" transform="translate(-102.45 -281)"/><path class="cls-9" d="M1776.4,740c263.55,0,477.22-55.83,477.22-124.71H1299.18C1299.18,684.16,1512.85,740,1776.4,740Z" transform="translate(-102.45 -281)"/><path class="cls-16" d="M1776.4,740c263.55,0,477.22-55.83,477.22-124.71H1299.18C1299.18,684.16,1512.85,740,1776.4,740Z" transform="translate(-102.45 -281)"/><rect class="cls-16" x="1446.84" y="302.62" width="454.86" height="64.98" rx="28.69"/><path class="cls-17" d="M1279.7,410.76a6.14,6.14,0,0,1-3.41-7.4,3.14,3.14,0,0,0,.13-.68h0a3.06,3.06,0,0,0-5.51-2h0a3,3,0,0,0-.34.6,6.1,6.1,0,0,1-7.39,3.42,3.35,3.35,0,0,0-.69-.13h0a3.06,3.06,0,0,0-2,5.51h0a2.77,2.77,0,0,0,.6.35,6.13,6.13,0,0,1,3.42,7.4,3.07,3.07,0,0,0-.14.67h0a3.07,3.07,0,0,0,5.52,2h0a2.76,2.76,0,0,0,.33-.61,6.12,6.12,0,0,1,7.4-3.33,3.89,3.89,0,0,0,.68.13h0a3.07,3.07,0,0,0,2-5.52h0A2.77,2.77,0,0,0,1279.7,410.76Z" transform="translate(-102.45 -281)"/><path class="cls-17" d="M2127.78,920.6a6.13,6.13,0,0,1-3.34-7.4,3.16,3.16,0,0,0,.14-.68h0a3.07,3.07,0,0,0-5.52-2h0a2.89,2.89,0,0,0-.33.6,6.12,6.12,0,0,1-7.4,3.41,3.14,3.14,0,0,0-.68-.13h0a3.06,3.06,0,0,0-2,5.51h0a2.25,2.25,0,0,0,.6.35,6.15,6.15,0,0,1,3.33,7.4,3.07,3.07,0,0,0-.14.67h0a3.07,3.07,0,0,0,5.52,2.05h0a2.46,2.46,0,0,0,.33-.62,6.12,6.12,0,0,1,7.4-3.33,3.14,3.14,0,0,0,.68.13h0a3.06,3.06,0,0,0,2-5.51h0A2.71,2.71,0,0,0,2127.78,920.6Z" transform="translate(-102.45 -281)"/><path class="cls-17" d="M1191.4,1157.19a6.13,6.13,0,0,1-3.42-7.39,3.25,3.25,0,0,0,.14-.69h0a3.07,3.07,0,0,0-5.52-2h0a3.51,3.51,0,0,0-.33.6,6.11,6.11,0,0,1-7.4,3.42,3.16,3.16,0,0,0-.68-.14h0a3.07,3.07,0,0,0-2,5.52h0a3,3,0,0,0,.6.35,6.13,6.13,0,0,1,3.42,7.4,3,3,0,0,0-.13.66h0a3.06,3.06,0,0,0,5.51,2h0a2.46,2.46,0,0,0,.33-.62,6.12,6.12,0,0,1,7.4-3.33,3.13,3.13,0,0,0,.69.14h0a3.07,3.07,0,0,0,2-5.52h0A3.22,3.22,0,0,0,1191.4,1157.19Z" transform="translate(-102.45 -281)"/><path class="cls-17" d="M1099.76,605.7a6.13,6.13,0,0,1-3.33-7.4,3.14,3.14,0,0,0,.13-.68h0a3.06,3.06,0,0,0-5.51-2h0a3,3,0,0,0-.34.6,6.1,6.1,0,0,1-7.39,3.42,3.35,3.35,0,0,0-.69-.13h0a3.06,3.06,0,0,0-2,5.51h0a2.55,2.55,0,0,0,.6.35,6.12,6.12,0,0,1,3.41,7.4,3.78,3.78,0,0,0-.13.67h0a3.07,3.07,0,0,0,5.52,2h0a2.76,2.76,0,0,0,.33-.61,6.12,6.12,0,0,1,7.4-3.33,3.89,3.89,0,0,0,.68.13h0a3.07,3.07,0,0,0,2-5.52h0A2.47,2.47,0,0,0,1099.76,605.7Z" transform="translate(-102.45 -281)"/><path class="cls-17" d="M2111.11,325.78a6.13,6.13,0,0,1-3.33-7.39,3.25,3.25,0,0,0,.14-.69h0a3.07,3.07,0,0,0-5.52-2h0a3.51,3.51,0,0,0-.33.6,6.12,6.12,0,0,1-7.4,3.33,3.14,3.14,0,0,0-.68-.13h0a3.07,3.07,0,0,0-2.12,5.68h0a2.77,2.77,0,0,0,.6.35,6.12,6.12,0,0,1,3.33,7.4,3.08,3.08,0,0,0-.13.66h0a3.06,3.06,0,0,0,5.63,2h0a2.46,2.46,0,0,0,.33-.62,6.12,6.12,0,0,1,7.4-3.33,3.83,3.83,0,0,0,.69.14h0a3.07,3.07,0,0,0,2-5.52h0A2.72,2.72,0,0,0,2111.11,325.78Z" transform="translate(-102.45 -281)"/><g class="cls-12"><rect class="cls-18" x="1136.94" y="462.57" width="5" height="28.32"/><rect class="cls-18" x="1125.28" y="474.24" width="28.32" height="5"/></g><g class="cls-12"><rect class="cls-18" x="2336.57" y="329.28" width="5" height="28.32"/><rect class="cls-18" x="2324.91" y="340.95" width="28.32" height="5"/></g><g class="cls-12"><rect class="cls-18" x="2169.95" y="794.14" width="5" height="28.32"/><rect class="cls-18" x="2158.29" y="805.8" width="28.32" height="5"/></g><circle class="cls-19" cx="2158.8" cy="169.81" r="10"/><circle class="cls-19" cx="964.17" cy="54.85" r="10"/><circle class="cls-19" cx="1264.08" cy="629.67" r="10"/><ellipse class="cls-16" cx="1344.05" cy="290.74" rx="56.65" ry="11.66"/><ellipse class="cls-16" cx="1344.05" cy="379.05" rx="56.65" ry="11.66"/><ellipse class="cls-16" cx="1988.85" cy="290.74" rx="56.65" ry="11.66"/><ellipse class="cls-16" cx="1988.85" cy="379.05" rx="56.65" ry="11.66"/><ellipse class="cls-16" cx="1673.95" cy="240.76" rx="56.65" ry="11.66"/><ellipse class="cls-16" cx="1715.6" cy="119.13" rx="56.65" ry="11.66"/><ellipse class="cls-16" cx="1607.3" cy="169.11" rx="56.65" ry="11.66"/><ellipse class="cls-16" cx="1815.57" cy="190.77" rx="56.65" ry="11.66"/><ellipse class="cls-16" cx="1673.95" cy="414.04" rx="56.65" ry="11.66"/></svg>