<?xml version="1.0" encoding="utf-8"?>
<!-- Generator: Adobe Illustrator 24.1.1, SVG Export Plug-In . SVG Version: 6.00 Build 0)  -->
<svg version="1.1" id="Capa_1" xmlns="http://www.w3.org/2000/svg" xmlns:xlink="http://www.w3.org/1999/xlink" x="0px" y="0px"
	 viewBox="0 0 1500 1500" style="enable-background:new 0 0 1500 1500;" xml:space="preserve">
<style type="text/css">
	.st0{fill:#CCCCCC;}
	.st1{fill:#FFFFFF;}
</style>
<rect y="1" class="st0" width="1500" height="1500"/>
<g>
	<g>
		<path class="st1" d="M1090.5,288c0,39.8-32.2,72-72,72h-447c-9.9,0-18,8.1-18,18v252c0,9.9,8.1,18,18,18h346c39.8,0,72,32.2,72,72
			s-32.2,72-72,72h-346c-9.9,0-18,8.1-18,18v252c0,39.8-32.2,72-72,72s-72-32.2-72-72V234c0-9.9,8.1-18,18-18h591
			C1058.3,216,1090.5,248.2,1090.5,288z"/>
	</g>
	<g>
		<path class="st1" d="M1306.5,288c0,159.1-128.9,288-288,288h-375c-9.9,0-18-8.1-18-18V450c0-9.9,8.1-18,18-18h375
			c79.5,0,144-64.5,144-144s-64.5-144-144-144h-663c-9.9,0-18,8.1-18,18v990c0,39.8-32.2,72-72,72s-72-32.2-72-72V18
			c0-9.9,8.1-18,18-18h807C1177.6,0,1306.5,128.9,1306.5,288z"/>
	</g>
	<g>
		<path class="st1" d="M170.6,1274.7c-17-15.7-41-24-69.5-24H30.9c-17.3,0-30.9,13.6-30.9,30.9v185.6c0,17.3,13.6,30.9,30.9,30.9
			s30.9-13.6,30.9-30.9v-41.8h34.4c28.3,0,52.6-7.6,70.5-22c19.4-15.6,29.6-38.3,29.6-65.6v-0.7
			C196.2,1311.8,187.3,1290.2,170.6,1274.7z M97.8,1369.5h-36v-62h35c13.8,0,37.1,4,37.1,30.7v0.7
			C133.8,1357.4,119.7,1369.5,97.8,1369.5z"/>
	</g>
	<g>
		<path class="st1" d="M381.1,1394.3c0-21.4-8.2-44-22-60.5c-11.8-14.2-33.5-31.2-69.8-31.2c-26.4,0-50.5,10.4-67.9,29.2
			c-16.9,18.3-26.2,43-26.2,69.6v0.7c0,27.8,10,53,28.3,70.8c18,17.6,43.2,27.3,70.8,27.3c25.7,0,47.8-7.8,65.8-23l0.1-0.1
			c5.4-4.9,8.4-11.6,8.4-18.8c0-14.3-10.7-25.1-24.8-25.1c-6,0-10.5,1.4-15.4,5c-10.1,7.5-21,11.1-33.4,11.1
			c-19,0-31.9-8.7-37.5-25.4h94.7C369,1423.8,381.1,1411.4,381.1,1394.3z M321.5,1381.9h-64.9c4.9-18.1,16.6-28.4,32.8-28.4
			C305.9,1353.5,317.4,1363.8,321.5,1381.9z"/>
	</g>
	<g>
		<path class="st1" d="M557.4,1238.7c-16.8,0-30.5,13.7-30.5,30.5v52.8c-14.4-13.1-31.2-19.5-51.2-19.5c-23.2,0-44.8,9.1-60.6,25.5
			c-17.3,17.9-26.4,43-26.4,72.6v0.7c0,64.4,43.8,98.1,87,98.1c21.1,0,38.4-7.3,52.7-22.4c4,12.2,15.5,21,29,21
			c16.8,0,30.5-13.7,30.5-30.5v-198.4C587.9,1252.4,574.2,1238.7,557.4,1238.7z M527.5,1400.6v0.7c0,26-16.3,44.8-38.7,44.8
			c-22.3,0-39.1-19.3-39.1-44.8v-0.7c0-26,16.4-44.8,39.1-44.8C511.2,1355.9,527.5,1374.7,527.5,1400.6z"/>
	</g>
	<g>
		<g>
			<path class="st1" d="M643.1,1303.9c-16.8,0-30.5,13.7-30.5,30.5v133.1c0,16.8,13.7,30.5,30.5,30.5c16.8,0,30.5-13.7,30.5-30.5
				v-133.1C673.6,1317.6,659.9,1303.9,643.1,1303.9z"/>
		</g>
		<g>
			<path class="st1" d="M670,1229.9c-9.7,0-17.8,4.8-23.3,13.7l-18.5,29c-2.8,4.4-4.1,8.3-4.1,11.7c0,8.1,7.3,13.7,17.7,13.7
				c11.9,0,21.5-2.1,32.6-12.4l20.8-19.5c3.9-3.6,8.3-8.6,8.3-15.8C703.5,1238.5,683.5,1229.9,670,1229.9z"/>
		</g>
	</g>
	<g>
		<path class="st1" d="M953.7,1307.8c16,0,28.5-12.5,28.5-28.5s-12.5-28.5-28.5-28.5H821.9c-17.3,0-30.9,13.6-30.9,30.9v185.6
			c0,17.3,13.6,30.9,30.9,30.9c17.3,0,30.9-13.6,30.9-30.9v-62.3h85.8c16,0,28.5-12.5,28.5-28.5c0-16-12.5-28.5-28.5-28.5h-85.8
			v-40.2H953.7z"/>
	</g>
	<g>
		<g>
			<path class="st1" d="M1065.4,1298c11.9,0,21.5-2.1,32.6-12.4l20.8-19.5c3.9-3.6,8.3-8.6,8.3-15.8c0-11.9-20-20.4-33.5-20.4
				c-9.7,0-17.8,4.8-23.3,13.7l-18.5,29c-2.8,4.4-4.1,8.3-4.1,11.7C1047.6,1292.4,1054.9,1298,1065.4,1298z"/>
		</g>
		<g>
			<path class="st1" d="M1128.4,1325.5c-14.4-14.3-36-21.6-64.4-21.6c-23,0-41.3,3-59.2,9.7c-10.2,3.8-17,13.7-17,24.5
				c0,14.5,11.5,25.8,26.1,25.8c3,0,5.5-0.4,8.9-1.6c10.4-3.2,21.5-4.8,33.8-4.8c20.8,0,32,8.1,33.5,24.1c-10-3-22.4-5.5-38.9-5.5
				c-22.9,0-42,5.2-55.3,15c-14.6,10.8-22.3,27.2-22.3,47.5v0.7c0,18.4,6.9,33.9,20,44.8c11.9,9.9,28.5,15.4,46.8,15.4
				c20.8,0,37.7-5.9,51.5-18c4,9.1,13.6,16.6,27.5,16.6c16.7,0,29.8-13,29.8-29.5v-82C1149.3,1359.9,1142.3,1339.4,1128.4,1325.5z
				 M1091,1421.7v5.8c0,15.9-14.1,26.6-35,26.6c-11.1,0-22.9-4.4-22.9-16.9v-0.7c0-17.3,19-19.9,30.3-19.9
				C1073.1,1416.7,1082.8,1418.5,1091,1421.7z"/>
		</g>
	</g>
	<g>
		<path class="st1" d="M1309.8,1429c-8.3,0-14.5,4-16.8,5.7l-0.1,0.1c-9.9,7.9-19.3,11.4-30.5,11.4c-24,0-40.8-18.4-40.8-44.8v-0.7
			c0-24.7,17-44.1,38.7-44.1c11,0,19.4,3,28.9,10.4c2.9,2.3,9.1,6.1,17.8,6.1c15.5,0,28.2-12.5,28.2-27.8c0-9.9-5.1-17.5-9.9-21.3
			c-17.2-14.5-37.8-21.3-64.7-21.3c-27.6,0-53,10.3-71.5,29.1c-18,18.4-28,43.1-28,69.7v0.7c0,26.5,10,51.1,28,69.3
			c18.4,18.5,43.5,28.7,70.7,28.7c27.5,0,48.9-7.8,67.2-24.5c5.9-5.4,9-12.3,9-19.8C1336.3,1440.7,1324.6,1429,1309.8,1429z"/>
	</g>
	<g>
		<g>
			<path class="st1" d="M1381.4,1239c-19.7,0-33.5,11.9-33.5,28.8v0.7c0,16.9,14.1,29.2,33.5,29.2c19.4,0,33.5-12.3,33.5-29.2v-0.7
				C1414.9,1250.9,1401.1,1239,1381.4,1239z"/>
		</g>
		<g>
			<path class="st1" d="M1381.4,1303.9c-16.8,0-30.5,13.7-30.5,30.5v133.1c0,16.8,13.7,30.5,30.5,30.5c16.8,0,30.5-13.7,30.5-30.5
				v-133.1C1411.9,1317.6,1398.2,1303.9,1381.4,1303.9z"/>
		</g>
	</g>
	<g>
		<path class="st1" d="M1469.5,1238.7c-16.8,0-30.5,13.7-30.5,30.5v198.4c0,16.8,13.7,30.5,30.5,30.5s30.5-13.7,30.5-30.5v-198.4
			C1500,1252.4,1486.3,1238.7,1469.5,1238.7z"/>
	</g>
</g>
</svg>
