<?xml version="1.0" encoding="utf-8"?>
<!-- Generator: Adobe Illustrator 24.1.1, SVG Export Plug-In . SVG Version: 6.00 Build 0)  -->
<svg version="1.1" id="Capa_1" xmlns="http://www.w3.org/2000/svg" xmlns:xlink="http://www.w3.org/1999/xlink" x="0px" y="0px"
	 viewBox="0 0 1500 1500" style="enable-background:new 0 0 1500 1500;" xml:space="preserve">
<style type="text/css">
	.st0{fill:#FFFFFF;}
	.st1{fill:#666666;}
</style>
<g>
	<g>
		<path class="st0" d="M481.5,1133c-39.1,0-71-31.9-71-71V234c0-9.4,7.6-17,17-17h591c39.1,0,71,31.9,71,71s-31.9,71-71,71h-447
			c-10.5,0-19,8.5-19,19v252c0,10.5,8.5,19,19,19h346c39.1,0,71,31.9,71,71s-31.9,71-71,71h-346c-10.5,0-19,8.5-19,19v252
			C552.5,1101.1,520.6,1133,481.5,1133z"/>
		<path class="st1" d="M1018.5,218c38.6,0,70,31.4,70,70s-31.4,70-70,70h-447c-11,0-20,9-20,20v252c0,11,9,20,20,20h346
			c38.6,0,70,31.4,70,70s-31.4,70-70,70h-346c-11,0-20,9-20,20v252c0,38.6-31.4,70-70,70s-70-31.4-70-70V234c0-8.8,7.2-16,16-16
			H1018.5 M1018.5,216h-591c-9.9,0-18,8.1-18,18v828c0,39.8,32.2,72,72,72s72-32.2,72-72V810c0-9.9,8.1-18,18-18h346
			c39.8,0,72-32.2,72-72s-32.2-72-72-72h-346c-9.9,0-18-8.1-18-18V378c0-9.9,8.1-18,18-18h447c39.8,0,72-32.2,72-72
			S1058.3,216,1018.5,216L1018.5,216z"/>
	</g>
	<g>
		<path class="st0" d="M265.5,1223c-39.1,0-71-31.9-71-71V18c0-9.4,7.6-17,17-17h807c76.7,0,148.7,29.9,202.9,84.1
			c54.2,54.2,84.1,126.3,84.1,202.9s-29.9,148.7-84.1,202.9c-54.2,54.2-126.3,84.1-202.9,84.1h-375c-9.4,0-17-7.6-17-17V450
			c0-9.4,7.6-17,17-17h375c80,0,145-65,145-145s-65-145-145-145h-663c-10.5,0-19,8.5-19,19v990C336.5,1191.1,304.6,1223,265.5,1223z
			"/>
		<path class="st1" d="M1018.5,2c38.6,0,76.1,7.6,111.3,22.5c34.1,14.4,64.6,35,90.9,61.3c26.3,26.3,46.9,56.9,61.3,90.9
			c14.9,35.3,22.5,72.7,22.5,111.3s-7.6,76.1-22.5,111.3c-14.4,34.1-35,64.6-61.3,90.9c-26.3,26.3-56.9,46.9-90.9,61.3
			c-35.3,14.9-72.7,22.5-111.3,22.5h-375c-8.8,0-16-7.2-16-16V450c0-8.8,7.2-16,16-16h375c80.5,0,146-65.5,146-146
			s-65.5-146-146-146h-663c-11,0-20,9-20,20v990c0,38.6-31.4,70-70,70s-70-31.4-70-70V18c0-8.8,7.2-16,16-16H1018.5 M1018.5,0h-807
			c-9.9,0-18,8.1-18,18v1134c0,39.8,32.2,72,72,72s72-32.2,72-72V162c0-9.9,8.1-18,18-18h663c79.5,0,144,64.5,144,144
			s-64.5,144-144,144h-375c-9.9,0-18,8.1-18,18v108c0,9.9,8.1,18,18,18h375c159.1,0,288-128.9,288-288S1177.6,0,1018.5,0L1018.5,0z"
			/>
	</g>
	<g>
		<path class="st0" d="M30.9,1497.1c-16.7,0-29.9-13.1-29.9-29.9v-185.6c0-16.7,13.1-29.9,29.9-29.9h70.3c28.2,0,52,8.2,68.8,23.7
			c16.5,15.3,25.3,36.6,25.3,61.6v0.7c0,27-10.1,49.4-29.3,64.9c-17.7,14.3-41.8,21.8-69.9,21.8H60.7v42.8
			C60.7,1484,47.6,1497.1,30.9,1497.1z M60.7,1370.5h37c22.5,0,37.1-12.4,37.1-31.7v-0.7c0-27.6-23.8-31.7-38.1-31.7h-36V1370.5z"/>
		<path class="st1" d="M101.1,1252.8c28,0,51.5,8.1,68.1,23.4c16.3,15.1,24.9,36.1,24.9,60.9v0.7c0,26.7-10,48.8-28.9,64.1
			c-17.5,14.1-41.4,21.6-69.2,21.6H61.7h-2v2v41.8c0,16.2-12.7,28.9-28.9,28.9S2,1483.4,2,1467.2v-185.6c0-16.2,12.7-28.9,28.9-28.9
			H101.1 M59.7,1371.5h2h36c23.1,0,38.1-12.8,38.1-32.7v-0.7c0-20.8-14.2-32.7-39.1-32.7h-35h-2v2v62V1371.5 M101.1,1250.8H30.9
			c-17.3,0-30.9,13.6-30.9,30.9v185.6c0,17.3,13.6,30.9,30.9,30.9s30.9-13.6,30.9-30.9v-41.8h34.4c28.3,0,52.6-7.6,70.5-22
			c19.4-15.6,29.6-38.3,29.6-65.6v-0.7c0-25.3-8.8-46.9-25.6-62.4C153.6,1259.1,129.6,1250.8,101.1,1250.8L101.1,1250.8z
			 M61.7,1369.5v-62h35c13.8,0,37.1,4,37.1,30.7v0.7c0,18.6-14.2,30.7-36.1,30.7H61.7L61.7,1369.5z"/>
	</g>
	<g>
		<path class="st0" d="M294.4,1499.1c-27.4,0-52.3-9.6-70.1-27c-18-17.6-28-42.5-28-70.1v-0.7c0-26.3,9.2-50.8,25.9-68.9
			c17.2-18.6,41-28.9,67.1-28.9c35.8,0,57.3,16.8,69,30.8c13.6,16.3,21.7,38.7,21.7,59.9c0,16.5-11.7,28.5-27.8,28.5h-96.1l0.5,1.3
			c5.8,17,19.1,26,38.5,26c12.6,0,23.7-3.7,33.9-11.3c4.7-3.4,9-4.8,14.8-4.8c13.6,0,23.8,10.4,23.8,24.1c0,6.9-2.8,13.4-8,18.1
			l-0.1,0.1C341.8,1491.4,319.9,1499.1,294.4,1499.1z M289.4,1352.5c-16.5,0-28.8,10.6-33.8,29.1l-0.3,1.3h67.5l-0.3-1.2
			C318.3,1363.1,306.2,1352.5,289.4,1352.5z"/>
		<path class="st1" d="M289.4,1304.5c35.4,0,56.7,16.6,68.2,30.4c13.5,16.2,21.5,38.3,21.5,59.3c0,15.9-11.3,27.5-26.8,27.5h-94.7
			h-2.8l0.9,2.6c6,17.5,19.6,26.7,39.4,26.7c12.8,0,24.1-3.8,34.5-11.5c4.6-3.3,8.6-4.6,14.2-4.6c13,0,22.8,9.9,22.8,23.1
			c0,6.7-2.7,12.8-7.7,17.3l-0.1,0.1c-17.6,15-39.3,22.6-64.5,22.6c-27.1,0-51.8-9.5-69.4-26.7c-17.8-17.4-27.7-42.1-27.7-69.4v-0.7
			c0-26.1,9.1-50.3,25.7-68.2C240,1314.7,263.6,1304.5,289.4,1304.5 M254,1383.9h2.6h64.9h2.5l-0.6-2.4c-4.3-19-16.7-30-34-30
			c-17,0-29.7,10.9-34.8,29.9L254,1383.9 M289.4,1302.5c-26.4,0-50.5,10.4-67.9,29.2c-16.9,18.3-26.2,43-26.2,69.6v0.7
			c0,27.8,10,53,28.3,70.8c18,17.6,43.2,27.3,70.8,27.3c25.7,0,47.8-7.8,65.8-23l0.1-0.1c5.4-4.9,8.4-11.6,8.4-18.8
			c0-14.3-10.7-25.1-24.8-25.1c-6,0-10.5,1.4-15.4,5c-10.1,7.5-21,11.1-33.4,11.1c-19,0-31.9-8.7-37.5-25.4h94.7
			c16.7,0,28.8-12.4,28.8-29.5c0-21.4-8.2-44-22-60.5C347.3,1319.5,325.6,1302.5,289.4,1302.5L289.4,1302.5z M256.6,1381.9
			c4.9-18.1,16.6-28.4,32.8-28.4c16.5,0,28,10.3,32.1,28.4H256.6L256.6,1381.9z"/>
	</g>
	<g>
		<path class="st0" d="M475.7,1498.4c-42.7,0-86-33.4-86-97.1v-0.7c0-29.3,9-54.1,26.1-71.9c15.7-16.3,36.9-25.2,59.9-25.2
			c19.8,0,36.3,6.3,50.5,19.2l1.7,1.5v-55.1c0-16.3,13.2-29.5,29.5-29.5s29.5,13.2,29.5,29.5v198.4c0,16.3-13.2,29.5-29.5,29.5
			c-12.8,0-24.1-8.2-28.1-20.3l-0.5-1.6l-1.2,1.2C513.5,1491.2,496.5,1498.4,475.7,1498.4z M488.8,1354.9
			c-23.2,0-40.1,19.3-40.1,45.8v0.7c0,26.1,17.2,45.8,40.1,45.8c23,0,39.7-19.3,39.7-45.8v-0.7
			C528.5,1374.1,511.8,1354.9,488.8,1354.9z"/>
		<path class="st1" d="M557.4,1240.7c15.7,0,28.5,12.8,28.5,28.5v198.4c0,15.7-12.8,28.5-28.5,28.5c-12.4,0-23.2-7.9-27.1-19.6
			l-1-3.2l-2.3,2.4c-13.9,14.6-30.7,21.7-51.2,21.7c-42.2,0-85-33-85-96.1v-0.7c0-29,8.9-53.6,25.8-71.2
			c15.5-16.1,36.5-24.9,59.2-24.9c19.5,0,35.8,6.2,49.8,19l3.3,3.1v-4.5v-52.8C528.8,1253.5,541.6,1240.7,557.4,1240.7
			 M488.8,1448.1c23.6,0,40.7-19.7,40.7-46.8v-0.7c0-27.1-17.1-46.8-40.7-46.8c-23.8,0-41.1,19.7-41.1,46.8v0.7
			C447.7,1428,465.4,1448.1,488.8,1448.1 M557.4,1238.7c-16.8,0-30.5,13.7-30.5,30.5v52.8c-14.4-13.1-31.2-19.5-51.2-19.5
			c-23.2,0-44.8,9.1-60.6,25.5c-17.3,17.9-26.4,43-26.4,72.6v0.7c0,64.4,43.8,98.1,87,98.1c21.1,0,38.4-7.3,52.7-22.4
			c4,12.2,15.5,21,29,21c16.8,0,30.5-13.7,30.5-30.5v-198.4C587.9,1252.4,574.2,1238.7,557.4,1238.7L557.4,1238.7z M488.8,1446.1
			c-22.3,0-39.1-19.3-39.1-44.8v-0.7c0-26,16.4-44.8,39.1-44.8c22.4,0,38.7,18.8,38.7,44.8v0.7
			C527.5,1427.3,511.2,1446.1,488.8,1446.1L488.8,1446.1z"/>
	</g>
	<g>
		<g>
			<path class="st0" d="M643.1,1497.1c-16.3,0-29.5-13.2-29.5-29.5v-133.1c0-16.3,13.2-29.5,29.5-29.5s29.5,13.2,29.5,29.5v133.1
				C672.6,1483.8,659.4,1497.1,643.1,1497.1z"/>
			<path class="st1" d="M643.1,1305.9c15.7,0,28.5,12.8,28.5,28.5v133.1c0,15.7-12.8,28.5-28.5,28.5c-15.7,0-28.5-12.8-28.5-28.5
				v-133.1C614.6,1318.7,627.4,1305.9,643.1,1305.9 M643.1,1303.9c-16.8,0-30.5,13.7-30.5,30.5v133.1c0,16.8,13.7,30.5,30.5,30.5
				c16.8,0,30.5-13.7,30.5-30.5v-133.1C673.6,1317.6,659.9,1303.9,643.1,1303.9L643.1,1303.9z"/>
		</g>
		<g>
			<path class="st0" d="M641.7,1297c-9.9,0-16.7-5.2-16.7-12.7c0-3.3,1.3-6.9,4-11.2l18.5-29c5.4-8.7,13.2-13.3,22.5-13.3
				c12.8,0,32.5,8.3,32.5,19.4c0,6.8-4.3,11.6-8,15l-20.8,19.5C662.8,1295,653.4,1297,641.7,1297z"/>
			<path class="st1" d="M670,1231.9c12.4,0,31.5,7.9,31.5,18.4c0,6.4-4.1,11-7.7,14.3l-20.8,19.5c-10.6,9.9-19.9,11.9-31.3,11.9
				c-9.3,0-15.7-4.8-15.7-11.7c0-3.1,1.2-6.5,3.8-10.6l18.5-29C653.5,1236.3,661,1231.9,670,1231.9 M670,1229.9
				c-9.7,0-17.8,4.8-23.3,13.7l-18.5,29c-2.8,4.4-4.1,8.3-4.1,11.7c0,8.1,7.3,13.7,17.7,13.7c11.9,0,21.5-2.1,32.6-12.4l20.8-19.5
				c3.9-3.6,8.3-8.6,8.3-15.8C703.5,1238.5,683.5,1229.9,670,1229.9L670,1229.9z"/>
		</g>
	</g>
	<g>
		<path class="st0" d="M821.9,1497.1c-16.7,0-29.9-13.1-29.9-29.9v-185.6c0-16.7,13.1-29.9,29.9-29.9h131.8
			c15.4,0,27.5,12.1,27.5,27.5c0,15.4-12.1,27.5-27.5,27.5H851.8v42.2h86.8c15.4,0,27.5,12.1,27.5,27.5c0,15.4-12.1,27.5-27.5,27.5
			h-86.8v63.3C851.8,1484,838.7,1497.1,821.9,1497.1z"/>
		<path class="st1" d="M953.7,1252.8c14.9,0,26.5,11.6,26.5,26.5c0,14.9-11.6,26.5-26.5,26.5H852.8h-2v2v40.2v2h2h85.8
			c14.9,0,26.5,11.6,26.5,26.5s-11.6,26.5-26.5,26.5h-85.8h-2v2v62.3c0,16.2-12.7,28.9-28.9,28.9s-28.9-12.7-28.9-28.9v-185.6
			c0-16.2,12.7-28.9,28.9-28.9H953.7 M953.7,1250.8H821.9c-17.3,0-30.9,13.6-30.9,30.9v185.6c0,17.3,13.6,30.9,30.9,30.9
			c17.3,0,30.9-13.6,30.9-30.9v-62.3h85.8c16,0,28.5-12.5,28.5-28.5c0-16-12.5-28.5-28.5-28.5h-85.8v-40.2h100.9
			c16,0,28.5-12.5,28.5-28.5S969.7,1250.8,953.7,1250.8L953.7,1250.8z"/>
	</g>
	<g>
		<g>
			<path class="st0" d="M1065.4,1297c-9.9,0-16.7-5.2-16.7-12.7c0-3.3,1.3-6.9,4-11.2l18.5-29c5.4-8.7,13.2-13.3,22.5-13.3
				c12.8,0,32.5,8.3,32.5,19.4c0,6.8-4.3,11.6-8,15l-20.8,19.5C1086.4,1295,1077,1297,1065.4,1297z"/>
			<path class="st1" d="M1093.6,1231.9c12.4,0,31.5,7.9,31.5,18.4c0,6.4-4.1,11-7.7,14.3l-20.8,19.5c-10.6,9.9-19.9,11.9-31.3,11.9
				c-9.3,0-15.7-4.8-15.7-11.7c0-3.1,1.2-6.5,3.8-10.6l18.5-29C1077.1,1236.3,1084.6,1231.9,1093.6,1231.9 M1093.6,1229.9
				c-9.7,0-17.8,4.8-23.3,13.7l-18.5,29c-2.8,4.4-4.1,8.3-4.1,11.7c0,8.1,7.3,13.7,17.7,13.7c11.9,0,21.5-2.1,32.6-12.4l20.8-19.5
				c3.9-3.6,8.3-8.6,8.3-15.8C1127.1,1238.5,1107.1,1229.9,1093.6,1229.9L1093.6,1229.9z"/>
		</g>
		<g>
			<path class="st0" d="M1040.5,1498.4c-18.1,0-34.5-5.4-46.2-15.1c-12.8-10.7-19.6-25.9-19.6-44v-0.7c0-20,7.6-36.1,21.9-46.7
				c13.1-9.7,32-14.8,54.7-14.8c13.8,0,26.1,1.7,38.6,5.5l1.4,0.4l-0.1-1.5c-1.6-16.6-13.2-25-34.5-25c-12.4,0-23.5,1.6-34.1,4.9
				c-3.3,1.1-5.7,1.5-8.6,1.5c-14.1,0-25.1-10.9-25.1-24.8c0-10.4,6.6-19.9,16.4-23.6c17.8-6.7,36-9.7,58.9-9.7
				c28.1,0,49.5,7.2,63.7,21.3c13.7,13.7,20.7,34,20.7,60.3v82c0,16-12.7,28.5-28.8,28.5c-14.5,0-23.2-8.3-26.6-16l-0.5-1.3l-1,0.9
				C1077.7,1492.6,1061.1,1498.4,1040.5,1498.4z M1063.3,1415.7c-11.7,0-31.3,2.7-31.3,20.9v0.7c0,13.2,12.4,17.9,23.9,17.9
				c21.6,0,36-11.1,36-27.6v-6.5l-0.6-0.3C1083,1417.5,1073.3,1415.7,1063.3,1415.7z"/>
			<path class="st1" d="M1064,1305.9c27.8,0,49,7.1,63,21c13.5,13.5,20.4,33.6,20.4,59.6v82c0,15.4-12.2,27.5-27.8,27.5
				c-14,0-22.4-8-25.7-15.4l-1.1-2.5l-2.1,1.8c-13.4,11.7-29.8,17.5-50.2,17.5c-17.8,0-34-5.3-45.6-14.9
				c-12.6-10.5-19.3-25.4-19.3-43.2v-0.7c0-19.6,7.4-35.5,21.5-45.9c12.9-9.5,31.6-14.6,54.1-14.6c13.7,0,25.9,1.7,38.3,5.4l2.8,0.8
				l-0.3-2.9c-1.1-11.8-8.2-26-35.5-26c-12.5,0-23.7,1.6-34.4,4.9c-3.2,1.1-5.5,1.5-8.3,1.5c-13.5,0-24.1-10.5-24.1-23.8
				c0-10,6.3-19.1,15.7-22.6C1023.2,1308.9,1041.2,1305.9,1064,1305.9 M1055.9,1456.2c22.2,0,37-11.5,37-28.6v-5.8v-1.4l-1.3-0.5
				c-8.5-3.4-18.3-5.2-28.4-5.2c-5.6,0-13.6,0.6-20.2,3.6c-7.9,3.6-12.1,9.9-12.1,18.3v0.7C1031,1451.2,1043.9,1456.2,1055.9,1456.2
				 M1064,1303.9c-23,0-41.3,3-59.2,9.7c-10.2,3.8-17,13.7-17,24.5c0,14.5,11.5,25.8,26.1,25.8c3,0,5.5-0.4,8.9-1.6
				c10.4-3.2,21.5-4.8,33.8-4.8c20.8,0,32,8.1,33.5,24.1c-10-3-22.4-5.5-38.9-5.5c-22.9,0-42,5.2-55.3,15
				c-14.6,10.8-22.3,27.2-22.3,47.5v0.7c0,18.4,6.9,33.9,20,44.8c11.9,9.9,28.5,15.4,46.8,15.4c20.8,0,37.7-5.9,51.5-18
				c4,9.1,13.6,16.6,27.5,16.6c16.7,0,29.8-13,29.8-29.5v-82c0-26.6-7-47.1-21-61C1114,1311.2,1092.4,1303.9,1064,1303.9
				L1064,1303.9z M1055.9,1454.2c-11.1,0-22.9-4.4-22.9-16.9v-0.7c0-17.3,19-19.9,30.3-19.9c9.8,0,19.4,1.8,27.6,5v5.8
				C1091,1443.5,1076.9,1454.2,1055.9,1454.2L1055.9,1454.2z"/>
		</g>
	</g>
	<g>
		<path class="st0" d="M1260,1499.1c-27,0-51.9-10.1-70-28.5c-17.9-18.1-27.8-42.5-27.8-68.6v-0.7c0-26.3,9.8-50.8,27.7-69
			c18.3-18.6,43.4-28.8,70.7-28.8c26.6,0,47,6.7,64,21.1c4.6,3.7,9.5,11.1,9.5,20.6c0,14.8-12.2,26.8-27.2,26.8
			c-8.4,0-14.4-3.7-17.2-5.9c-9.7-7.5-18.2-10.6-29.5-10.6c-22.3,0-39.7,19.8-39.7,45.1v0.7c0,27,17.2,45.8,41.8,45.8
			c11.4,0,21.1-3.6,31.2-11.6l0.1-0.1c2.2-1.6,8.2-5.5,16.1-5.5c14.3,0,25.5,11.3,25.5,25.8c0,7.2-3,13.8-8.7,19.1
			C1308.4,1491.4,1287.3,1499.1,1260,1499.1z"/>
		<path class="st1" d="M1260.7,1304.5c26.4,0,46.5,6.6,63.4,20.9c4.4,3.6,9.1,10.6,9.1,19.8c0,14.2-11.7,25.8-26.2,25.8
			c-8.1,0-13.9-3.6-16.6-5.7c-9.9-7.7-18.6-10.8-30.1-10.8c-22.8,0-40.7,20.3-40.7,46.1v0.7c0,27.5,17.6,46.8,42.8,46.8
			c11.7,0,21.5-3.6,31.8-11.8l0.1-0.1c2.1-1.6,7.9-5.3,15.6-5.3c13.7,0,24.5,10.9,24.5,24.8c0,6.9-2.9,13.3-8.3,18.3
			c-18,16.4-38.9,24-65.9,24c-26.7,0-51.3-10-69.3-28.2c-17.7-17.9-27.5-42-27.5-67.9v-0.7c0-26,9.7-50.3,27.4-68.3
			C1208.7,1314.7,1233.6,1304.5,1260.7,1304.5 M1260.7,1302.5c-27.6,0-53,10.3-71.5,29.1c-18,18.4-28,43.1-28,69.7v0.7
			c0,26.5,10,51.1,28,69.3c18.4,18.5,43.5,28.7,70.7,28.7c27.5,0,48.9-7.8,67.2-24.5c5.9-5.4,9-12.3,9-19.8
			c0-15-11.6-26.8-26.5-26.8c-8.3,0-14.5,4-16.8,5.7l-0.1,0.1c-9.9,7.9-19.3,11.4-30.5,11.4c-24,0-40.8-18.4-40.8-44.8v-0.7
			c0-24.7,17-44.1,38.7-44.1c11,0,19.4,3,28.9,10.4c2.9,2.3,9.1,6.1,17.8,6.1c15.5,0,28.2-12.5,28.2-27.8c0-9.9-5.1-17.5-9.9-21.3
			C1308.1,1309.3,1287.6,1302.5,1260.7,1302.5L1260.7,1302.5z"/>
	</g>
	<g>
		<g>
			<path class="st0" d="M1381.4,1296.7c-18.9,0-32.5-11.8-32.5-28.2v-0.7c0-16.4,13.4-27.8,32.5-27.8c19.2,0,32.5,11.4,32.5,27.8
				v0.7C1413.9,1284.8,1400.3,1296.7,1381.4,1296.7z"/>
			<path class="st1" d="M1381.4,1241c18.6,0,31.5,11,31.5,26.8v0.7c0,15.7-13.3,27.2-31.5,27.2c-18.3,0-31.5-11.4-31.5-27.2v-0.7
				C1349.9,1252,1362.8,1241,1381.4,1241 M1381.4,1239c-19.7,0-33.5,11.9-33.5,28.8v0.7c0,16.9,14.1,29.2,33.5,29.2
				c19.4,0,33.5-12.3,33.5-29.2v-0.7C1414.9,1250.9,1401.1,1239,1381.4,1239L1381.4,1239z"/>
		</g>
		<g>
			<path class="st0" d="M1381.4,1497.1c-16.3,0-29.5-13.2-29.5-29.5v-133.1c0-16.3,13.2-29.5,29.5-29.5c16.3,0,29.5,13.2,29.5,29.5
				v133.1C1410.9,1483.8,1397.7,1497.1,1381.4,1497.1z"/>
			<path class="st1" d="M1381.4,1305.9c15.7,0,28.5,12.8,28.5,28.5v133.1c0,15.7-12.8,28.5-28.5,28.5c-15.7,0-28.5-12.8-28.5-28.5
				v-133.1C1352.9,1318.7,1365.7,1305.9,1381.4,1305.9 M1381.4,1303.9c-16.8,0-30.5,13.7-30.5,30.5v133.1
				c0,16.8,13.7,30.5,30.5,30.5c16.8,0,30.5-13.7,30.5-30.5v-133.1C1411.9,1317.6,1398.2,1303.9,1381.4,1303.9L1381.4,1303.9z"/>
		</g>
	</g>
	<g>
		<path class="st0" d="M1469.5,1497.1c-16.3,0-29.5-13.2-29.5-29.5v-198.4c0-16.3,13.2-29.5,29.5-29.5c16.3,0,29.5,13.2,29.5,29.5
			v198.4C1499,1483.8,1485.8,1497.1,1469.5,1497.1z"/>
		<path class="st1" d="M1469.5,1240.7c15.7,0,28.5,12.8,28.5,28.5v198.4c0,15.7-12.8,28.5-28.5,28.5s-28.5-12.8-28.5-28.5v-198.4
			C1441,1253.5,1453.8,1240.7,1469.5,1240.7 M1469.5,1238.7c-16.8,0-30.5,13.7-30.5,30.5v198.4c0,16.8,13.7,30.5,30.5,30.5
			s30.5-13.7,30.5-30.5v-198.4C1500,1252.4,1486.3,1238.7,1469.5,1238.7L1469.5,1238.7z"/>
	</g>
</g>
</svg>
