<?xml version="1.0" encoding="utf-8"?>
<!-- Generator: Adobe Illustrator 24.1.1, SVG Export Plug-In . SVG Version: 6.00 Build 0)  -->
<svg version="1.1" id="Capa_1" xmlns="http://www.w3.org/2000/svg" xmlns:xlink="http://www.w3.org/1999/xlink" x="0px" y="0px"
	 viewBox="0 0 1500 1500" style="enable-background:new 0 0 1500 1500;" xml:space="preserve">
<style type="text/css">
	.st0{fill:#FFFFFF;}
	.st1{fill:#666666;}
</style>
<g>
	<g>
		<path class="st0" d="M481.5,1133.5c-39.4,0-71.5-32.1-71.5-71.5V234c0-9.6,7.9-17.5,17.5-17.5h591c39.4,0,71.5,32.1,71.5,71.5
			s-32.1,71.5-71.5,71.5h-447c-10.2,0-18.5,8.3-18.5,18.5v252c0,10.2,8.3,18.5,18.5,18.5h346c39.4,0,71.5,32.1,71.5,71.5
			c0,39.4-32.1,71.5-71.5,71.5h-346c-10.2,0-18.5,8.3-18.5,18.5v252C553,1101.4,520.9,1133.5,481.5,1133.5z"/>
		<path class="st1" d="M1018.5,217c39.1,0,71,31.9,71,71s-31.9,71-71,71h-447c-10.5,0-19,8.5-19,19v252c0,10.5,8.5,19,19,19h346
			c39.1,0,71,31.9,71,71s-31.9,71-71,71h-346c-10.5,0-19,8.5-19,19v252c0,39.1-31.9,71-71,71s-71-31.9-71-71V234c0-9.4,7.6-17,17-17
			H1018.5 M1018.5,216h-591c-9.9,0-18,8.1-18,18v828c0,39.8,32.2,72,72,72s72-32.2,72-72V810c0-9.9,8.1-18,18-18h346
			c39.8,0,72-32.2,72-72s-32.2-72-72-72h-346c-9.9,0-18-8.1-18-18V378c0-9.9,8.1-18,18-18h447c39.8,0,72-32.2,72-72
			S1058.3,216,1018.5,216L1018.5,216z"/>
	</g>
	<g>
		<path class="st0" d="M265.5,1223.5c-39.4,0-71.5-32.1-71.5-71.5V18c0-9.6,7.9-17.5,17.5-17.5h807c76.8,0,149,29.9,203.3,84.2
			C1276.1,139,1306,211.2,1306,288s-29.9,149-84.2,203.3c-54.3,54.3-126.5,84.2-203.3,84.2h-375c-9.6,0-17.5-7.9-17.5-17.5V450
			c0-9.6,7.9-17.5,17.5-17.5h375c79.7,0,144.5-64.8,144.5-144.5s-64.8-144.5-144.5-144.5h-663c-10.2,0-18.5,8.3-18.5,18.5v990
			C337,1191.4,304.9,1223.5,265.5,1223.5z"/>
		<path class="st1" d="M1018.5,1c38.7,0,76.3,7.6,111.7,22.6c34.2,14.5,64.9,35.1,91.2,61.5c26.4,26.4,47.1,57.1,61.5,91.2
			c15,35.4,22.6,73,22.6,111.7s-7.6,76.3-22.6,111.7c-14.5,34.2-35.1,64.9-61.5,91.2c-26.4,26.4-57.1,47.1-91.2,61.5
			c-35.4,15-73,22.6-111.7,22.6h-375c-9.4,0-17-7.6-17-17V450c0-9.4,7.6-17,17-17h375c80,0,145-65,145-145s-65-145-145-145h-663
			c-10.5,0-19,8.5-19,19v990c0,39.1-31.9,71-71,71s-71-31.9-71-71V18c0-9.4,7.6-17,17-17H1018.5 M1018.5,0h-807c-9.9,0-18,8.1-18,18
			v1134c0,39.8,32.2,72,72,72s72-32.2,72-72V162c0-9.9,8.1-18,18-18h663c79.5,0,144,64.5,144,144s-64.5,144-144,144h-375
			c-9.9,0-18,8.1-18,18v108c0,9.9,8.1,18,18,18h375c159.1,0,288-128.9,288-288S1177.6,0,1018.5,0L1018.5,0z"/>
	</g>
	<g>
		<path class="st0" d="M30.9,1497.6c-17,0-30.4-13.3-30.4-30.4v-185.6c0-17,13.3-30.4,30.4-30.4h70.3c28.4,0,52.3,8.2,69.1,23.8
			c16.6,15.4,25.4,36.8,25.4,62v0.7c0,27.2-10.2,49.7-29.4,65.3c-17.8,14.3-42,21.9-70.2,21.9H61.2v42.3
			C61.2,1484.2,47.9,1497.6,30.9,1497.6z M61.2,1370h36.5c22.2,0,36.6-12.2,36.6-31.2v-0.7c0-27.1-23.5-31.2-37.6-31.2H61.2V1370z"
			/>
		<path class="st1" d="M101.1,1251.8c28.2,0,52,8.2,68.8,23.7c16.5,15.3,25.3,36.6,25.3,61.6v0.7c0,27-10.1,49.4-29.3,64.9
			c-17.7,14.3-41.8,21.8-69.9,21.8H61.7h-1v1v41.8c0,16.7-13.1,29.9-29.9,29.9S1,1484,1,1467.2v-185.6c0-16.7,13.1-29.9,29.9-29.9
			H101.1 M60.7,1370.5h1h36c22.5,0,37.1-12.4,37.1-31.7v-0.7c0-27.6-23.8-31.7-38.1-31.7h-35h-1v1v62V1370.5 M101.1,1250.8H30.9
			c-17.3,0-30.9,13.6-30.9,30.9v185.6c0,17.3,13.6,30.9,30.9,30.9s30.9-13.6,30.9-30.9v-41.8h34.4c28.3,0,52.6-7.6,70.5-22
			c19.4-15.6,29.6-38.3,29.6-65.6v-0.7c0-25.3-8.8-46.9-25.6-62.4C153.6,1259.1,129.6,1250.8,101.1,1250.8L101.1,1250.8z
			 M61.7,1369.5v-62h35c13.8,0,37.1,4,37.1,30.7v0.7c0,18.6-14.2,30.7-36.1,30.7H61.7L61.7,1369.5z"/>
	</g>
	<g>
		<path class="st0" d="M294.4,1499.6c-27.5,0-52.6-9.6-70.5-27.2c-18.1-17.7-28.1-42.7-28.1-70.4v-0.7c0-26.4,9.3-51,26.1-69.2
			c17.3-18.7,41.3-29,67.5-29c36,0,57.6,16.9,69.4,31c13.7,16.4,21.8,38.9,21.8,60.2c0,16.8-11.9,29-28.3,29h-95.4l0.2,0.7
			c5.7,16.8,18.9,25.7,38,25.7c12.5,0,23.5-3.7,33.6-11.2c4.8-3.5,9.2-4.9,15.1-4.9c13.9,0,24.3,10.6,24.3,24.6
			c0,7.1-2.9,13.6-8.2,18.4l-0.1,0.1C342,1491.9,320,1499.6,294.4,1499.6z M289.4,1353c-16.5,0-28.3,10.2-33.3,28.8l-0.2,0.6h66.2
			l-0.1-0.6C317.8,1363.2,306.2,1353,289.4,1353z"/>
		<path class="st1" d="M289.4,1303.5c35.8,0,57.3,16.8,69,30.8c13.6,16.3,21.7,38.7,21.7,59.9c0,16.5-11.7,28.5-27.8,28.5h-94.7
			h-1.4l0.5,1.3c5.8,17,19.1,26,38.5,26c12.6,0,23.7-3.7,33.9-11.3c4.7-3.4,9-4.8,14.8-4.8c13.6,0,23.8,10.4,23.8,24.1
			c0,6.9-2.8,13.4-8,18.1l-0.1,0.1c-17.8,15.1-39.7,22.8-65.1,22.8c-27.4,0-52.3-9.6-70.1-27c-18-17.6-28-42.5-28-70.1v-0.7
			c0-26.3,9.2-50.8,25.9-68.9C239.5,1313.8,263.3,1303.5,289.4,1303.5 M255.3,1382.9h1.3h64.9h1.3l-0.3-1.2
			c-4.2-18.5-16.2-29.2-33-29.2c-16.5,0-28.8,10.6-33.8,29.1L255.3,1382.9 M289.4,1302.5c-26.4,0-50.5,10.4-67.9,29.2
			c-16.9,18.3-26.2,43-26.2,69.6v0.7c0,27.8,10,53,28.3,70.8c18,17.6,43.2,27.3,70.8,27.3c25.7,0,47.8-7.8,65.8-23l0.1-0.1
			c5.4-4.9,8.4-11.6,8.4-18.8c0-14.3-10.7-25.1-24.8-25.1c-6,0-10.5,1.4-15.4,5c-10.1,7.5-21,11.1-33.4,11.1
			c-19,0-31.9-8.7-37.5-25.4h94.7c16.7,0,28.8-12.4,28.8-29.5c0-21.4-8.2-44-22-60.5C347.3,1319.5,325.6,1302.5,289.4,1302.5
			L289.4,1302.5z M256.6,1381.9c4.9-18.1,16.6-28.4,32.8-28.4c16.5,0,28,10.3,32.1,28.4H256.6L256.6,1381.9z"/>
	</g>
	<g>
		<path class="st0" d="M475.7,1498.9c-43,0-86.5-33.5-86.5-97.6v-0.7c0-29.4,9.1-54.4,26.3-72.2c15.7-16.4,37.1-25.4,60.2-25.4
			c19.9,0,36.6,6.3,50.8,19.3l0.8,0.8v-54c0-16.6,13.5-30,30-30s30,13.5,30,30v198.4c0,16.6-13.5,30-30,30c-13,0-24.5-8.3-28.5-20.7
			l-0.3-0.8l-0.6,0.6C513.8,1491.7,496.7,1498.9,475.7,1498.9z M488.8,1355.4c-22.9,0-39.6,19-39.6,45.3v0.7
			c0,25.8,17,45.3,39.6,45.3c22.7,0,39.2-19,39.2-45.3v-0.7C528,1374.4,511.5,1355.4,488.8,1355.4z"/>
		<path class="st1" d="M557.4,1239.7c16.3,0,29.5,13.2,29.5,29.5v198.4c0,16.3-13.2,29.5-29.5,29.5c-12.8,0-24.1-8.2-28.1-20.3
			l-0.5-1.6l-1.2,1.2c-14.1,14.8-31.1,22-52,22c-42.7,0-86-33.4-86-97.1v-0.7c0-29.3,9-54.1,26.1-71.9
			c15.7-16.3,36.9-25.2,59.9-25.2c19.8,0,36.3,6.3,50.5,19.2l1.7,1.5v-2.3v-52.8C527.8,1252.9,541.1,1239.7,557.4,1239.7
			 M488.8,1447.1c23,0,39.7-19.3,39.7-45.8v-0.7c0-26.5-16.7-45.8-39.7-45.8c-23.2,0-40.1,19.3-40.1,45.8v0.7
			C448.7,1427.4,465.9,1447.1,488.8,1447.1 M557.4,1238.7c-16.8,0-30.5,13.7-30.5,30.5v52.8c-14.4-13.1-31.2-19.5-51.2-19.5
			c-23.2,0-44.8,9.1-60.6,25.5c-17.3,17.9-26.4,43-26.4,72.6v0.7c0,64.4,43.8,98.1,87,98.1c21.1,0,38.4-7.3,52.7-22.4
			c4,12.2,15.5,21,29,21c16.8,0,30.5-13.7,30.5-30.5v-198.4C587.9,1252.4,574.2,1238.7,557.4,1238.7L557.4,1238.7z M488.8,1446.1
			c-22.3,0-39.1-19.3-39.1-44.8v-0.7c0-26,16.4-44.8,39.1-44.8c22.4,0,38.7,18.8,38.7,44.8v0.7
			C527.5,1427.3,511.2,1446.1,488.8,1446.1L488.8,1446.1z"/>
	</g>
	<g>
		<g>
			<path class="st0" d="M643.1,1497.6c-16.6,0-30-13.5-30-30v-133.1c0-16.6,13.5-30,30-30s30,13.5,30,30v133.1
				C673.1,1484.1,659.6,1497.6,643.1,1497.6z"/>
			<path class="st1" d="M643.1,1304.9c16.3,0,29.5,13.2,29.5,29.5v133.1c0,16.3-13.2,29.5-29.5,29.5c-16.3,0-29.5-13.2-29.5-29.5
				v-133.1C613.6,1318.1,626.8,1304.9,643.1,1304.9 M643.1,1303.9c-16.8,0-30.5,13.7-30.5,30.5v133.1c0,16.8,13.7,30.5,30.5,30.5
				c16.8,0,30.5-13.7,30.5-30.5v-133.1C673.6,1317.6,659.9,1303.9,643.1,1303.9L643.1,1303.9z"/>
		</g>
		<g>
			<path class="st0" d="M641.7,1297.5c-10.2,0-17.2-5.4-17.2-13.2c0-3.4,1.3-7.1,4-11.4l18.5-29c5.5-8.8,13.4-13.5,22.9-13.5
				c13.3,0,33,8.4,33,19.9c0,7-4.4,11.9-8.2,15.4l-20.8,19.5C663,1295.5,653.5,1297.5,641.7,1297.5z"/>
			<path class="st1" d="M670,1230.9c6.7,0,14.9,2.2,21.4,5.7c4.2,2.3,11.2,7.1,11.2,13.8c0,6.8-4.3,11.6-8,15l-20.8,19.5
				c-10.9,10.1-20.3,12.2-32,12.2c-9.9,0-16.7-5.2-16.7-12.7c0-3.3,1.3-6.9,4-11.2l18.5-29C652.9,1235.5,660.6,1230.9,670,1230.9
				 M670,1229.9c-9.7,0-17.8,4.8-23.3,13.7l-18.5,29c-2.8,4.4-4.1,8.3-4.1,11.7c0,8.1,7.3,13.7,17.7,13.7c11.9,0,21.5-2.1,32.6-12.4
				l20.8-19.5c3.9-3.6,8.3-8.6,8.3-15.8C703.5,1238.5,683.5,1229.9,670,1229.9L670,1229.9z"/>
		</g>
	</g>
	<g>
		<path class="st0" d="M821.9,1497.6c-17,0-30.4-13.3-30.4-30.4v-185.6c0-17,13.3-30.4,30.4-30.4h131.8c15.7,0,28,12.3,28,28
			c0,15.7-12.3,28-28,28H852.3v41.2h86.3c15.7,0,28,12.3,28,28c0,15.7-12.3,28-28,28h-86.3v62.8
			C852.3,1484.2,839,1497.6,821.9,1497.6z"/>
		<path class="st1" d="M953.7,1251.8c15.4,0,27.5,12.1,27.5,27.5s-12.1,27.5-27.5,27.5H852.8h-1v1v40.2v1h1h85.8
			c15.4,0,27.5,12.1,27.5,27.5c0,15.4-12.1,27.5-27.5,27.5h-85.8h-1v1v62.3c0,16.7-13.1,29.9-29.9,29.9s-29.9-13.1-29.9-29.9v-185.6
			c0-16.7,13.1-29.9,29.9-29.9H953.7 M953.7,1250.8H821.9c-17.3,0-30.9,13.6-30.9,30.9v185.6c0,17.3,13.6,30.9,30.9,30.9
			c17.3,0,30.9-13.6,30.9-30.9v-62.3h85.8c16,0,28.5-12.5,28.5-28.5c0-16-12.5-28.5-28.5-28.5h-85.8v-40.2h100.9
			c16,0,28.5-12.5,28.5-28.5S969.7,1250.8,953.7,1250.8L953.7,1250.8z"/>
	</g>
	<g>
		<g>
			<path class="st0" d="M1065.4,1297.5c-10.2,0-17.2-5.4-17.2-13.2c0-3.4,1.3-7.1,4-11.4l18.5-29c5.5-8.8,13.4-13.5,22.9-13.5
				c13.3,0,33,8.4,33,19.9c0,7-4.4,11.9-8.2,15.4l-20.8,19.5C1086.7,1295.5,1077.1,1297.5,1065.4,1297.5z"/>
			<path class="st1" d="M1093.6,1230.9c6.7,0,14.9,2.2,21.4,5.7c4.2,2.3,11.2,7.1,11.2,13.8c0,6.8-4.3,11.6-8,15l-20.8,19.5
				c-10.9,10.1-20.3,12.2-32,12.2c-9.9,0-16.7-5.2-16.7-12.7c0-3.3,1.3-6.9,4-11.2l18.5-29
				C1076.5,1235.5,1084.2,1230.9,1093.6,1230.9 M1093.6,1229.9c-9.7,0-17.8,4.8-23.3,13.7l-18.5,29c-2.8,4.4-4.1,8.3-4.1,11.7
				c0,8.1,7.3,13.7,17.7,13.7c11.9,0,21.5-2.1,32.6-12.4l20.8-19.5c3.9-3.6,8.3-8.6,8.3-15.8
				C1127.1,1238.5,1107.1,1229.9,1093.6,1229.9L1093.6,1229.9z"/>
		</g>
		<g>
			<path class="st0" d="M1040.5,1498.9c-18.2,0-34.7-5.4-46.5-15.2c-13-10.8-19.8-26.1-19.8-44.4v-0.7c0-20.1,7.6-36.4,22.1-47.1
				c13.2-9.7,32.2-14.9,55-14.9c13.9,0,26.2,1.7,38.8,5.5l0.7,0.2l-0.1-0.7c-1.5-16.3-13-24.6-34-24.6c-12.4,0-23.4,1.6-33.9,4.8
				c-3.4,1.1-5.8,1.6-8.8,1.6c-14.4,0-25.6-11.1-25.6-25.3c0-10.6,6.7-20.3,16.7-24c17.9-6.7,36.1-9.7,59.1-9.7
				c28.2,0,49.8,7.2,64,21.5c13.8,13.8,20.8,34.2,20.8,60.7v82c0,16.3-12.9,29-29.3,29c-14.7,0-23.6-8.4-27-16.3l-0.3-0.6l-0.5,0.5
				C1078,1493.1,1061.2,1498.9,1040.5,1498.9z M1063.3,1416.2c-11.5,0-30.8,2.7-30.8,20.4v0.7c0,12.8,12.1,17.4,23.4,17.4
				c21.3,0,35.5-10.9,35.5-27.1v-6.1l-0.3-0.1C1082.9,1418,1073.1,1416.2,1063.3,1416.2z"/>
			<path class="st1" d="M1064,1304.9c28.1,0,49.5,7.2,63.7,21.3c13.7,13.7,20.7,34,20.7,60.3v82c0,16-12.7,28.5-28.8,28.5
				c-14.5,0-23.2-8.3-26.6-16l-0.5-1.3l-1,0.9c-13.6,11.9-30.3,17.7-50.9,17.7c-18.1,0-34.5-5.4-46.2-15.1
				c-12.8-10.7-19.6-25.9-19.6-44v-0.7c0-20,7.6-36.1,21.9-46.7c13.1-9.7,32-14.8,54.7-14.8c13.8,0,26.1,1.7,38.6,5.5l1.4,0.4
				l-0.1-1.5c-1.6-16.6-13.2-25-34.5-25c-12.4,0-23.5,1.6-34.1,4.9c-3.3,1.1-5.7,1.5-8.6,1.5c-14.1,0-25.1-10.9-25.1-24.8
				c0-10.4,6.6-19.9,16.4-23.6C1023,1307.9,1041.1,1304.9,1064,1304.9 M1055.9,1455.2c21.6,0,36-11.1,36-27.6v-5.8v-0.7l-0.6-0.3
				c-8.4-3.3-18.1-5.1-28-5.1c-11.7,0-31.3,2.7-31.3,20.9v0.7C1032,1450.5,1044.4,1455.2,1055.9,1455.2 M1064,1303.9
				c-23,0-41.3,3-59.2,9.7c-10.2,3.8-17,13.7-17,24.5c0,14.5,11.5,25.8,26.1,25.8c3,0,5.5-0.4,8.9-1.6c10.4-3.2,21.5-4.8,33.8-4.8
				c20.8,0,32,8.1,33.5,24.1c-10-3-22.4-5.5-38.9-5.5c-22.9,0-42,5.2-55.3,15c-14.6,10.8-22.3,27.2-22.3,47.5v0.7
				c0,18.4,6.9,33.9,20,44.8c11.9,9.9,28.5,15.4,46.8,15.4c20.8,0,37.7-5.9,51.5-18c4,9.1,13.6,16.6,27.5,16.6
				c16.7,0,29.8-13,29.8-29.5v-82c0-26.6-7-47.1-21-61C1114,1311.2,1092.4,1303.9,1064,1303.9L1064,1303.9z M1055.9,1454.2
				c-11.1,0-22.9-4.4-22.9-16.9v-0.7c0-17.3,19-19.9,30.3-19.9c9.8,0,19.4,1.8,27.6,5v5.8C1091,1443.5,1076.9,1454.2,1055.9,1454.2
				L1055.9,1454.2z"/>
		</g>
	</g>
	<g>
		<path class="st0" d="M1260,1499.6c-27.1,0-52.1-10.2-70.4-28.6c-18-18.2-27.9-42.7-27.9-69v-0.7c0-26.4,9.9-51.1,27.8-69.3
			c18.3-18.7,43.6-28.9,71.1-28.9c26.8,0,47.2,6.7,64.4,21.2c4.7,3.8,9.7,11.3,9.7,20.9c0,15.1-12.4,27.3-27.7,27.3
			c-8.6,0-14.7-3.7-17.5-6c-9.6-7.5-18-10.5-29.2-10.5c-22,0-39.2,19.6-39.2,44.6v0.7c0,26.7,17,45.3,41.3,45.3
			c11.3,0,20.8-3.5,30.8-11.5l0.1-0.1c2.2-1.7,8.3-5.6,16.5-5.6c14.6,0,26,11.6,26,26.3c0,7.4-3.1,14.1-8.8,19.4
			C1308.7,1491.8,1287.4,1499.6,1260,1499.6z"/>
		<path class="st1" d="M1260.7,1303.5c26.6,0,47,6.7,64.1,21.1c4.6,3.7,9.5,11,9.5,20.5c0,14.8-12.2,26.8-27.2,26.8
			c-8.4,0-14.4-3.7-17.2-5.9c-9.7-7.5-18.2-10.6-29.5-10.6c-22.3,0-39.7,19.8-39.7,45.1v0.7c0,27,17.2,45.8,41.8,45.8
			c11.4,0,21.1-3.6,31.1-11.6l0.1-0.1c2.2-1.7,8.2-5.5,16.2-5.5c14.3,0,25.5,11.3,25.5,25.8c0,7.2-3,13.8-8.7,19
			c-18.2,16.5-39.3,24.3-66.6,24.3c-27,0-51.9-10.1-70-28.5c-17.9-18.1-27.8-42.5-27.8-68.6v-0.7c0-26.3,9.8-50.8,27.7-69
			C1208.2,1313.8,1233.3,1303.5,1260.7,1303.5 M1260.7,1302.5c-27.6,0-53,10.3-71.5,29.1c-18,18.4-28,43.1-28,69.7v0.7
			c0,26.5,10,51.1,28,69.3c18.4,18.5,43.5,28.7,70.7,28.7c27.5,0,48.9-7.8,67.2-24.5c5.9-5.4,9-12.3,9-19.8
			c0-15-11.6-26.8-26.5-26.8c-8.3,0-14.5,4-16.8,5.7l-0.1,0.1c-9.9,7.9-19.3,11.4-30.5,11.4c-24,0-40.8-18.4-40.8-44.8v-0.7
			c0-24.7,17-44.1,38.7-44.1c11,0,19.4,3,28.9,10.4c2.9,2.3,9.1,6.1,17.8,6.1c15.5,0,28.2-12.5,28.2-27.8c0-9.9-5.1-17.5-9.9-21.3
			C1308.1,1309.3,1287.6,1302.5,1260.7,1302.5L1260.7,1302.5z"/>
	</g>
	<g>
		<g>
			<path class="st0" d="M1381.4,1297.2c-19.1,0-33-12.1-33-28.7v-0.7c0-16.7,13.6-28.3,33-28.3c19.5,0,33,11.7,33,28.3v0.7
				C1414.4,1285.1,1400.5,1297.2,1381.4,1297.2z"/>
			<path class="st1" d="M1381.4,1240c19.2,0,32.5,11.4,32.5,27.8v0.7c0,16.3-13.7,28.2-32.5,28.2c-18.9,0-32.5-11.8-32.5-28.2v-0.7
				C1348.9,1251.5,1362.2,1240,1381.4,1240 M1381.4,1239c-19.7,0-33.5,11.9-33.5,28.8v0.7c0,16.9,14.1,29.2,33.5,29.2
				c19.4,0,33.5-12.3,33.5-29.2v-0.7C1414.9,1250.9,1401.1,1239,1381.4,1239L1381.4,1239z"/>
		</g>
		<g>
			<path class="st0" d="M1381.4,1497.6c-16.6,0-30-13.5-30-30v-133.1c0-16.6,13.5-30,30-30s30,13.5,30,30v133.1
				C1411.4,1484.1,1398,1497.6,1381.4,1497.6z"/>
			<path class="st1" d="M1381.4,1304.9c16.3,0,29.5,13.2,29.5,29.5v133.1c0,16.3-13.2,29.5-29.5,29.5c-16.3,0-29.5-13.2-29.5-29.5
				v-133.1C1351.9,1318.1,1365.1,1304.9,1381.4,1304.9 M1381.4,1303.9c-16.8,0-30.5,13.7-30.5,30.5v133.1
				c0,16.8,13.7,30.5,30.5,30.5c16.8,0,30.5-13.7,30.5-30.5v-133.1C1411.9,1317.6,1398.2,1303.9,1381.4,1303.9L1381.4,1303.9z"/>
		</g>
	</g>
	<g>
		<path class="st0" d="M1469.5,1497.6c-16.6,0-30-13.5-30-30v-198.4c0-16.6,13.5-30,30-30s30,13.5,30,30v198.4
			C1499.5,1484.1,1486,1497.6,1469.5,1497.6z"/>
		<path class="st1" d="M1469.5,1239.7c16.3,0,29.5,13.2,29.5,29.5v198.4c0,16.3-13.2,29.5-29.5,29.5s-29.5-13.2-29.5-29.5v-198.4
			C1440,1252.9,1453.2,1239.7,1469.5,1239.7 M1469.5,1238.7c-16.8,0-30.5,13.7-30.5,30.5v198.4c0,16.8,13.7,30.5,30.5,30.5
			s30.5-13.7,30.5-30.5v-198.4C1500,1252.4,1486.3,1238.7,1469.5,1238.7L1469.5,1238.7z"/>
	</g>
</g>
</svg>
