<?xml version="1.0" encoding="utf-8"?>
<!-- Generator: Adobe Illustrator 24.1.1, SVG Export Plug-In . SVG Version: 6.00 Build 0)  -->
<svg version="1.1" id="Capa_1" xmlns="http://www.w3.org/2000/svg" xmlns:xlink="http://www.w3.org/1999/xlink" x="0px" y="0px"
	 viewBox="0 0 1500 1500" style="enable-background:new 0 0 1500 1500;" xml:space="preserve">
<style type="text/css">
	.st0{fill:#FFFFFF;}
</style>
<g>
	<g>
		<path class="st0" d="M481.5,1131.5c-38.3,0-69.5-31.2-69.5-69.5V234c0-8.5,7-15.5,15.5-15.5h591c38.3,0,69.5,31.2,69.5,69.5
			s-31.2,69.5-69.5,69.5h-447c-11.3,0-20.5,9.2-20.5,20.5v252c0,11.3,9.2,20.5,20.5,20.5h346c38.3,0,69.5,31.2,69.5,69.5
			s-31.2,69.5-69.5,69.5h-346c-11.3,0-20.5,9.2-20.5,20.5v252C551,1100.3,519.8,1131.5,481.5,1131.5z"/>
		<path d="M1018.5,221c36.9,0,67,30.1,67,67s-30.1,67-67,67h-447c-12.7,0-23,10.3-23,23v252c0,12.7,10.3,23,23,23h346
			c36.9,0,67,30.1,67,67s-30.1,67-67,67h-346c-12.7,0-23,10.3-23,23v252c0,36.9-30.1,67-67,67s-67-30.1-67-67V234
			c0-7.2,5.8-13,13-13H1018.5 M1018.5,216h-591c-9.9,0-18,8.1-18,18v828c0,39.8,32.2,72,72,72s72-32.2,72-72V810c0-9.9,8.1-18,18-18
			h346c39.8,0,72-32.2,72-72s-32.2-72-72-72h-346c-9.9,0-18-8.1-18-18V378c0-9.9,8.1-18,18-18h447c39.8,0,72-32.2,72-72
			S1058.3,216,1018.5,216L1018.5,216z"/>
	</g>
	<g>
		<path class="st0" d="M265.5,1221.5c-38.3,0-69.5-31.2-69.5-69.5V18c0-8.5,7-15.5,15.5-15.5h807c76.3,0,148,29.7,201.9,83.6
			C1274.3,140,1304,211.7,1304,288s-29.7,148-83.6,201.9c-53.9,53.9-125.6,83.6-201.9,83.6h-375c-8.5,0-15.5-7-15.5-15.5V450
			c0-8.5,7-15.5,15.5-15.5h375c80.8,0,146.5-65.7,146.5-146.5s-65.7-146.5-146.5-146.5h-663c-11.3,0-20.5,9.2-20.5,20.5v990
			C335,1190.3,303.8,1221.5,265.5,1221.5z"/>
		<path d="M1018.5,5c38.2,0,75.3,7.5,110.2,22.2c33.7,14.3,64,34.7,90,60.7c26,26,46.4,56.3,60.7,90c14.8,34.9,22.2,71.9,22.2,110.2
			s-7.5,75.3-22.2,110.2c-14.3,33.7-34.7,64-60.7,90c-26,26-56.3,46.4-90,60.7c-34.9,14.8-71.9,22.2-110.2,22.2h-375
			c-7.2,0-13-5.8-13-13V450c0-7.2,5.8-13,13-13h375c82.2,0,149-66.8,149-149s-66.8-149-149-149h-663c-12.7,0-23,10.3-23,23v990
			c0,36.9-30.1,67-67,67s-67-30.1-67-67V18c0-7.2,5.8-13,13-13H1018.5 M1018.5,0h-807c-9.9,0-18,8.1-18,18v1134
			c0,39.8,32.2,72,72,72s72-32.2,72-72V162c0-9.9,8.1-18,18-18h663c79.5,0,144,64.5,144,144s-64.5,144-144,144h-375
			c-9.9,0-18,8.1-18,18v108c0,9.9,8.1,18,18,18h375c159.1,0,288-128.9,288-288S1177.6,0,1018.5,0L1018.5,0z"/>
	</g>
	<g>
		<path class="st0" d="M30.9,1495.6c-15.9,0-28.4-12.5-28.4-28.4v-185.6c0-15.9,12.5-28.4,28.4-28.4h70.3c27.8,0,51.3,8.1,67.8,23.3
			c16.2,15,24.8,35.9,24.8,60.5v0.7c0,26.5-9.9,48.6-28.7,63.7c-17.4,14-41.2,21.5-68.9,21.5H59.2v44.3
			C59.2,1483.1,46.8,1495.6,30.9,1495.6z M59.2,1372h38.5c23.4,0,38.6-13,38.6-33.2v-0.7c0-21.1-14.4-33.2-39.6-33.2H59.2V1372z"/>
		<path d="M101.1,1255.8c27.2,0,50.1,7.8,66.1,22.6c15.7,14.5,24,34.8,24,58.7v0.7c0,25.7-9.6,47.1-27.8,61.8
			c-17,13.7-40.3,20.9-67.3,20.9H61.7h-5v5v41.8c0,14.5-11.4,25.9-25.9,25.9S5,1481.7,5,1467.2v-185.6c0-14.5,11.4-25.9,25.9-25.9
			H101.1 M56.7,1374.5h5h36c24.6,0,41.1-14.3,41.1-35.7v-0.7c0-22.7-15.3-35.7-42.1-35.7h-35h-5v5v62V1374.5 M101.1,1250.8H30.9
			c-17.3,0-30.9,13.6-30.9,30.9v185.6c0,17.3,13.6,30.9,30.9,30.9s30.9-13.6,30.9-30.9v-41.8h34.4c28.3,0,52.6-7.6,70.5-22
			c19.4-15.6,29.6-38.3,29.6-65.6v-0.7c0-25.3-8.8-46.9-25.6-62.4C153.6,1259.1,129.6,1250.8,101.1,1250.8L101.1,1250.8z
			 M61.7,1369.5v-62h35c13.8,0,37.1,4,37.1,30.7v0.7c0,18.6-14.2,30.7-36.1,30.7H61.7L61.7,1369.5z"/>
	</g>
	<g>
		<path class="st0" d="M294.4,1497.6c-27,0-51.5-9.4-69.1-26.6c-17.7-17.3-27.5-41.8-27.5-69v-0.7c0-25.9,9.1-50,25.5-67.9
			c16.9-18.3,40.4-28.4,66-28.4c35.3,0,56.3,16.5,67.8,30.3c13.4,16.1,21.4,38.1,21.4,58.9c0,15.7-11.1,27-26.3,27h-98.2l1.1,3.3
			c6,17.7,19.8,27.1,39.9,27.1c12.9,0,24.3-3.8,34.8-11.6c4.5-3.2,8.4-4.5,13.9-4.5c12.7,0,22.3,9.7,22.3,22.6
			c0,6.5-2.7,12.5-7.5,17l-0.1,0.1C341.1,1490,319.5,1497.6,294.4,1497.6z M289.4,1351c-17.2,0-30.1,11-35.2,30.2l-0.8,3.1h71.3
			l-0.7-3C319.6,1362.1,307,1351,289.4,1351z"/>
		<path d="M289.4,1307.5c34.3,0,54.8,16,65.9,29.4c13,15.6,20.8,37.1,20.8,57.3c0,14.4-9.8,24.5-23.8,24.5h-94.7h-7l2.3,6.6
			c6.4,18.8,21,28.8,42.3,28.8c13.5,0,25.3-4,36.3-12.1c4.1-3,7.4-4.1,12.5-4.1c11.3,0,19.8,8.7,19.8,20.1c0,5.8-2.4,11.1-6.7,15.1
			l-0.1,0.1c-17,14.5-38,21.8-62.5,21.8c-26.4,0-50.3-9.2-67.3-25.9c-17.3-16.9-26.8-40.7-26.8-67.2v-0.7c0-25.3,8.8-48.8,24.9-66.2
			C241.6,1317.4,264.4,1307.5,289.4,1307.5 M250.1,1386.9h6.5h64.9h6.3l-1.4-6.1c-4.6-20.5-18.1-32.3-36.9-32.3
			c-18.5,0-32.2,11.7-37.7,32.1L250.1,1386.9 M289.4,1302.5c-26.4,0-50.5,10.4-67.9,29.2c-16.9,18.3-26.2,43-26.2,69.6v0.7
			c0,27.8,10,53,28.3,70.8c18,17.6,43.2,27.3,70.8,27.3c25.7,0,47.8-7.8,65.8-23l0.1-0.1c5.4-4.9,8.4-11.6,8.4-18.8
			c0-14.3-10.7-25.1-24.8-25.1c-6,0-10.5,1.4-15.4,5c-10.1,7.5-21,11.1-33.4,11.1c-19,0-31.9-8.7-37.5-25.4h94.7
			c16.7,0,28.8-12.4,28.8-29.5c0-21.4-8.2-44-22-60.5C347.3,1319.5,325.6,1302.5,289.4,1302.5L289.4,1302.5z M256.6,1381.9
			c4.9-18.1,16.6-28.4,32.8-28.4c16.5,0,28,10.3,32.1,28.4H256.6L256.6,1381.9z"/>
	</g>
	<g>
		<path class="st0" d="M475.7,1496.9c-42,0-84.5-32.8-84.5-95.6v-0.7c0-28.9,8.9-53.4,25.7-70.8c15.4-16,36.3-24.8,58.8-24.8
			c19.4,0,35.6,6.2,49.5,18.8l4.2,3.8v-58.5c0-15.4,12.6-28,28-28c15.4,0,28,12.6,28,28v198.4c0,15.4-12.6,28-28,28
			c-12.1,0-22.8-7.8-26.6-19.3l-1.3-4l-2.9,3C512.8,1489.9,496.1,1496.9,475.7,1496.9z M488.8,1353.4c-24.1,0-41.6,19.9-41.6,47.3
			v0.7c0,27,17.9,47.3,41.6,47.3c23.9,0,41.2-19.9,41.2-47.3v-0.7C530,1373.2,512.7,1353.4,488.8,1353.4z"/>
		<path d="M557.4,1243.7c14.1,0,25.5,11.4,25.5,25.5v198.4c0,14.1-11.4,25.5-25.5,25.5c-11.1,0-20.8-7.1-24.3-17.6l-2.6-8l-5.8,6.1
			c-13.3,14-29.3,20.8-49.1,20.8c-20.9,0-41.4-8.5-56.2-23.4c-16.9-17-25.8-41.1-25.8-69.7v-0.7c0-28.2,8.6-52.1,25-69.1
			c14.9-15.5,35.1-24,57-24c18.8,0,34.4,5.9,47.8,18.2l8.4,7.6V1322v-52.8C531.8,1255.1,543.3,1243.7,557.4,1243.7 M488.8,1451.1
			c25.3,0,43.7-20.9,43.7-49.8v-0.7c0-28.9-18.4-49.8-43.7-49.8c-25.5,0-44.1,20.9-44.1,49.8v0.7
			C444.7,1429.7,463.6,1451.1,488.8,1451.1 M557.4,1238.7c-16.8,0-30.5,13.7-30.5,30.5v52.8c-14.4-13.1-31.2-19.5-51.2-19.5
			c-23.2,0-44.8,9.1-60.6,25.5c-17.3,17.9-26.4,43-26.4,72.6v0.7c0,64.4,43.8,98.1,87,98.1c21.1,0,38.4-7.3,52.7-22.4
			c4,12.2,15.5,21,29,21c16.8,0,30.5-13.7,30.5-30.5v-198.4C587.9,1252.4,574.2,1238.7,557.4,1238.7L557.4,1238.7z M488.8,1446.1
			c-22.3,0-39.1-19.3-39.1-44.8v-0.7c0-26,16.4-44.8,39.1-44.8c22.4,0,38.7,18.8,38.7,44.8v0.7
			C527.5,1427.3,511.2,1446.1,488.8,1446.1L488.8,1446.1z"/>
	</g>
	<g>
		<g>
			<path class="st0" d="M643.1,1495.6c-15.4,0-28-12.6-28-28v-133.1c0-15.4,12.6-28,28-28s28,12.6,28,28v133.1
				C671.1,1483,658.5,1495.6,643.1,1495.6z"/>
			<path d="M643.1,1308.9c14.1,0,25.5,11.4,25.5,25.5v133.1c0,14.1-11.4,25.5-25.5,25.5c-14.1,0-25.5-11.4-25.5-25.5v-133.1
				C617.6,1320.3,629,1308.9,643.1,1308.9 M643.1,1303.9c-16.8,0-30.5,13.7-30.5,30.5v133.1c0,16.8,13.7,30.5,30.5,30.5
				c16.8,0,30.5-13.7,30.5-30.5v-133.1C673.6,1317.6,659.9,1303.9,643.1,1303.9L643.1,1303.9z"/>
		</g>
		<g>
			<path class="st0" d="M641.7,1295.5c-9,0-15.2-4.6-15.2-11.2c0-3,1.2-6.4,3.7-10.4l18.5-28.9c5.1-8.2,12.4-12.6,21.2-12.6
				c12.2,0,31,7.7,31,17.9c0,6.2-3.8,10.5-7.5,13.9l-20.8,19.5C662.1,1293.6,653.3,1295.5,641.7,1295.5z"/>
			<path d="M670,1234.9c11.9,0,28.5,7.8,28.5,15.4c0,5.2-3.4,9-6.7,12.1l0,0l0,0l-20.8,19.5c-10,9.3-18.3,11.1-29.2,11.1
				c-6.3,0-12.7-2.7-12.7-8.7c0-2.4,1.1-5.5,3.3-9l18.5-28.9l0,0l0,0C655.6,1238.7,662,1234.9,670,1234.9 M670,1229.9
				c-9.7,0-17.8,4.8-23.3,13.7l-18.5,29c-2.8,4.4-4.1,8.3-4.1,11.7c0,8.1,7.3,13.7,17.7,13.7c11.9,0,21.5-2.1,32.6-12.4l20.8-19.5
				c3.9-3.6,8.3-8.6,8.3-15.8C703.5,1238.5,683.5,1229.9,670,1229.9L670,1229.9z"/>
		</g>
	</g>
	<g>
		<path class="st0" d="M821.9,1495.6c-15.9,0-28.4-12.5-28.4-28.4v-185.6c0-15.9,12.5-28.4,28.4-28.4h131.8c14.6,0,26,11.4,26,26
			s-11.4,26-26,26H850.3v45.2h88.3c14.6,0,26,11.4,26,26s-11.4,26-26,26h-88.3v64.8C850.3,1483.1,837.8,1495.6,821.9,1495.6z"/>
		<path d="M953.7,1255.8c13.2,0,23.5,10.3,23.5,23.5s-10.3,23.5-23.5,23.5H852.8h-5v5v40.2v5h5h85.8c13.2,0,23.5,10.3,23.5,23.5
			s-10.3,23.5-23.5,23.5h-85.8h-5v5v62.3c0,14.5-11.4,25.9-25.9,25.9s-25.9-11.4-25.9-25.9v-185.6c0-14.5,11.4-25.9,25.9-25.9H953.7
			 M953.7,1250.8H821.9c-17.3,0-30.9,13.6-30.9,30.9v185.6c0,17.3,13.6,30.9,30.9,30.9c17.3,0,30.9-13.6,30.9-30.9v-62.3h85.8
			c16,0,28.5-12.5,28.5-28.5c0-16-12.5-28.5-28.5-28.5h-85.8v-40.2h100.9c16,0,28.5-12.5,28.5-28.5S969.7,1250.8,953.7,1250.8
			L953.7,1250.8z"/>
	</g>
	<g>
		<g>
			<path class="st0" d="M1065.4,1295.5c-9,0-15.2-4.6-15.2-11.2c0-3,1.2-6.4,3.7-10.4l18.5-28.9c5.1-8.2,12.4-12.6,21.2-12.6
				c12.2,0,31,7.7,31,17.9c0,6.2-4,10.7-7.5,13.9l-20.8,19.5C1085.7,1293.6,1077,1295.5,1065.4,1295.5z"/>
			<path d="M1093.6,1234.9c11.9,0,28.5,7.8,28.5,15.4c0,5.2-3.4,9-6.7,12.1l0,0l0,0l-20.8,19.5c-10,9.3-18.3,11.1-29.2,11.1
				c-6.3,0-12.7-2.7-12.7-8.7c0-2.4,1.1-5.5,3.3-9l18.5-28.9l0,0l0,0C1079.2,1238.7,1085.6,1234.9,1093.6,1234.9 M1093.6,1229.9
				c-9.7,0-17.8,4.8-23.3,13.7l-18.5,29c-2.8,4.4-4.1,8.3-4.1,11.7c0,8.1,7.3,13.7,17.7,13.7c11.9,0,21.5-2.1,32.6-12.4l20.8-19.5
				c3.9-3.6,8.3-8.6,8.3-15.8C1127.1,1238.5,1107.1,1229.9,1093.6,1229.9L1093.6,1229.9z"/>
		</g>
		<g>
			<path class="st0" d="M1040.5,1496.9c-17.7,0-33.8-5.2-45.2-14.8c-12.5-10.4-19.1-25.2-19.1-42.8v-0.7c0-19.5,7.4-35.2,21.3-45.5
				c12.8-9.5,31.4-14.5,53.8-14.5c13.7,0,25.8,1.7,38.2,5.4l3.5,1.1l-0.3-3.7c-1.1-12-8.3-26.4-36-26.4c-12.6,0-23.8,1.6-34.5,4.9
				c-3.2,1.1-5.5,1.5-8.2,1.5c-13.3,0-23.6-10.2-23.6-23.3c0-9.8,6.2-18.7,15.4-22.1c17.7-6.6,35.6-9.6,58.4-9.6
				c27.7,0,48.7,7,62.6,20.9c13.4,13.4,20.2,33.3,20.2,59.2v82c0,15.1-12,27-27.3,27c-13.7,0-22-7.8-25.2-15.1l-1.4-3.1l-2.6,2.3
				C1077,1491.2,1060.7,1496.9,1040.5,1496.9z M1063.3,1414.2c-20.9,0-32.8,8.2-32.8,22.4v0.7c0,11.8,10,19.4,25.4,19.4
				c22.5,0,37.5-11.7,37.5-29.1v-7.5l-1.6-0.6C1083.3,1416,1073.5,1414.2,1063.3,1414.2z"/>
			<path d="M1064,1308.9c27,0,47.5,6.8,60.8,20.2c12.9,12.9,19.5,32.3,19.5,57.5v82c0,13.7-10.9,24.5-24.8,24.5
				c-12.5,0-20-7-22.9-13.6l-2.7-6.3l-5.1,4.5c-12.9,11.3-28.6,16.7-48.2,16.7c-17.1,0-32.6-5-43.6-14.2
				c-11.9-9.9-18.2-24-18.2-40.9v-0.7c0-18.6,7-33.7,20.3-43.5c12.4-9.2,30.5-14,52.3-14c13.4,0,25.3,1.7,37.5,5.3l7.1,2.1l-0.7-7.4
				c-1.2-13.1-8.9-28.7-38.5-28.7c-12.8,0-24.3,1.6-35.3,5l0,0l0,0c-2.9,1-4.9,1.3-7.3,1.3c-11.9,0-21.1-9.1-21.1-20.8
				c0-8.8,5.5-16.7,13.8-19.8C1023.9,1311.8,1041.6,1308.9,1064,1308.9 M1055.9,1459.2c24,0,40-12.7,40-31.6v-5.8v-3.4l-3.2-1.3
				c-8.9-3.5-19.1-5.4-29.5-5.4c-22.5,0-35.3,9.1-35.3,24.9v0.7C1028,1450.6,1039,1459.2,1055.9,1459.2 M1064,1303.9
				c-23,0-41.3,3-59.2,9.7c-10.2,3.8-17,13.7-17,24.5c0,14.5,11.5,25.8,26.1,25.8c3,0,5.5-0.4,8.9-1.6c10.4-3.2,21.5-4.8,33.8-4.8
				c20.8,0,32,8.1,33.5,24.1c-10-3-22.4-5.5-38.9-5.5c-22.9,0-42,5.2-55.3,15c-14.6,10.8-22.3,27.2-22.3,47.5v0.7
				c0,18.4,6.9,33.9,20,44.8c11.9,9.9,28.5,15.4,46.8,15.4c20.8,0,37.7-5.9,51.5-18c4,9.1,13.6,16.6,27.5,16.6
				c16.7,0,29.8-13,29.8-29.5v-82c0-26.6-7-47.1-21-61C1114,1311.2,1092.4,1303.9,1064,1303.9L1064,1303.9z M1055.9,1454.2
				c-11.1,0-22.9-4.4-22.9-16.9v-0.7c0-17.3,19-19.9,30.3-19.9c9.8,0,19.4,1.8,27.6,5v5.8C1091,1443.5,1076.9,1454.2,1055.9,1454.2
				L1055.9,1454.2z"/>
		</g>
	</g>
	<g>
		<path class="st0" d="M1260,1497.6c-26.6,0-51.1-9.9-69-28c-17.6-17.8-27.3-41.8-27.3-67.6v-0.7c0-25.9,9.7-50,27.3-67.9
			c18-18.3,42.7-28.3,69.7-28.3c26.3,0,46.3,6.6,63.1,20.7c4.4,3.5,9,10.4,9,19.4c0,14-11.5,25.3-25.7,25.3c-8,0-13.6-3.5-16.3-5.6
			c-10-7.8-18.8-10.9-30.4-10.9c-23.1,0-41.2,20.5-41.2,46.6v0.7c0,27.8,17.8,47.3,43.3,47.3c11.8,0,21.7-3.7,32.1-11.9l0.1-0.1
			c2-1.5,7.7-5.2,15.2-5.2c13.4,0,24,10.7,24,24.3c0,6.8-2.8,13-8.2,18C1307.7,1490,1286.9,1497.6,1260,1497.6z"/>
		<path d="M1260.7,1307.5c25.6,0,45.2,6.4,61.5,20.1l0,0l0,0c3.9,3.1,8,9.3,8,17.4c0,12.6-10.4,22.8-23.2,22.8
			c-7.2,0-12.4-3.2-14.8-5c-10.3-8-19.9-11.4-32-11.4c-24.5,0-43.7,21.6-43.7,49.1v0.7c0,29.3,18.8,49.8,45.8,49.8
			c12.4,0,22.8-3.8,33.6-12.4l0.1,0c1.9-1.4,7-4.7,13.7-4.7c12,0,21.5,9.6,21.5,21.8c0,6.1-2.6,11.7-7.4,16.1
			c-17.4,15.8-37.7,23.2-63.9,23.2c-25.9,0-49.8-9.7-67.2-27.3c-17.1-17.3-26.6-40.7-26.6-65.8v-0.7c0-25.2,9.4-48.7,26.6-66.2
			C1210.3,1317.4,1234.4,1307.5,1260.7,1307.5 M1260.7,1302.5c-27.6,0-53,10.3-71.5,29.1c-18,18.4-28,43.1-28,69.7v0.7
			c0,26.5,10,51.1,28,69.3c18.4,18.5,43.5,28.7,70.7,28.7c27.5,0,48.9-7.8,67.2-24.5c5.9-5.4,9-12.3,9-19.8
			c0-15-11.6-26.8-26.5-26.8c-8.3,0-14.5,4-16.8,5.7l-0.1,0.1c-9.9,7.9-19.3,11.4-30.5,11.4c-24,0-40.8-18.4-40.8-44.8v-0.7
			c0-24.7,17-44.1,38.7-44.1c11,0,19.4,3,28.9,10.4c2.9,2.3,9.1,6.1,17.8,6.1c15.5,0,28.2-12.5,28.2-27.8c0-9.9-5.1-17.5-9.9-21.3
			C1308.1,1309.3,1287.6,1302.5,1260.7,1302.5L1260.7,1302.5z"/>
	</g>
	<g>
		<g>
			<path class="st0" d="M1381.4,1295.2c-18,0-31-11.2-31-26.7v-0.7c0-15.5,12.8-26.3,31-26.3c18.3,0,31,10.8,31,26.3v0.7
				C1412.4,1284,1399.4,1295.2,1381.4,1295.2z"/>
			<path d="M1381.4,1244c17.1,0,28.5,9.6,28.5,23.8v0.7c0,6.8-2.7,12.7-7.8,17.2c-5.2,4.5-12.6,7-20.8,7c-8.2,0-15.6-2.5-20.8-7
				c-5.1-4.4-7.8-10.3-7.8-17.2v-0.7C1352.9,1253.6,1364.3,1244,1381.4,1244 M1381.4,1239c-19.7,0-33.5,11.9-33.5,28.8v0.7
				c0,16.9,14.1,29.2,33.5,29.2c19.4,0,33.5-12.3,33.5-29.2v-0.7C1414.9,1250.9,1401.1,1239,1381.4,1239L1381.4,1239z"/>
		</g>
		<g>
			<path class="st0" d="M1381.4,1495.6c-15.4,0-28-12.6-28-28v-133.1c0-15.4,12.6-28,28-28c15.5,0,28,12.6,28,28v133.1
				C1409.4,1483,1396.8,1495.6,1381.4,1495.6z"/>
			<path d="M1381.4,1308.9c14.1,0,25.5,11.4,25.5,25.5v133.1c0,14.1-11.4,25.5-25.5,25.5c-14.1,0-25.5-11.4-25.5-25.5v-133.1
				C1355.9,1320.3,1367.3,1308.9,1381.4,1308.9 M1381.4,1303.9c-16.8,0-30.5,13.7-30.5,30.5v133.1c0,16.8,13.7,30.5,30.5,30.5
				c16.8,0,30.5-13.7,30.5-30.5v-133.1C1411.9,1317.6,1398.2,1303.9,1381.4,1303.9L1381.4,1303.9z"/>
		</g>
	</g>
	<g>
		<path class="st0" d="M1469.5,1495.6c-15.4,0-28-12.6-28-28v-198.4c0-15.4,12.6-28,28-28c15.5,0,28,12.6,28,28v198.4
			C1497.5,1483,1484.9,1495.6,1469.5,1495.6z"/>
		<path d="M1469.5,1243.7c14.1,0,25.5,11.4,25.5,25.5v198.4c0,14.1-11.4,25.5-25.5,25.5s-25.5-11.4-25.5-25.5v-198.4
			C1444,1255.1,1455.4,1243.7,1469.5,1243.7 M1469.5,1238.7c-16.8,0-30.5,13.7-30.5,30.5v198.4c0,16.8,13.7,30.5,30.5,30.5
			s30.5-13.7,30.5-30.5v-198.4C1500,1252.4,1486.3,1238.7,1469.5,1238.7L1469.5,1238.7z"/>
	</g>
</g>
</svg>
