<?xml version="1.0" encoding="utf-8"?>
<!-- Generator: Adobe Illustrator 24.1.1, SVG Export Plug-In . SVG Version: 6.00 Build 0)  -->
<svg version="1.1" id="Capa_1" xmlns="http://www.w3.org/2000/svg" xmlns:xlink="http://www.w3.org/1999/xlink" x="0px" y="0px"
	 viewBox="0 0 1500 1500" style="enable-background:new 0 0 1500 1500;" xml:space="preserve">
<style type="text/css">
	.st0{display:none;fill:#CCCCCC;}
	.st1{fill:#FFFFFF;}
	.st2{fill:#E6E6E6;}
</style>
<rect y="1" class="st0" width="1500" height="1500"/>
<g>
	<g>
		<path class="st1" d="M481.5,1129c-36.9,0-67-30.1-67-67V234c0-7.2,5.8-13,13-13h591c36.9,0,67,30.1,67,67s-30.1,67-67,67h-447
			c-12.7,0-23,10.3-23,23v252c0,12.7,10.3,23,23,23h346c36.9,0,67,30.1,67,67c0,36.9-30.1,67-67,67h-346c-12.7,0-23,10.3-23,23v252
			C548.5,1098.9,518.4,1129,481.5,1129z"/>
		<path class="st2" d="M1018.5,226c34.2,0,62,27.8,62,62s-27.8,62-62,62h-447c-15.4,0-28,12.6-28,28v252c0,15.4,12.6,28,28,28h346
			c34.2,0,62,27.8,62,62s-27.8,62-62,62h-346c-15.4,0-28,12.6-28,28v252c0,34.2-27.8,62-62,62s-62-27.8-62-62V234c0-4.4,3.6-8,8-8
			H1018.5 M1018.5,216h-591c-9.9,0-18,8.1-18,18v828c0,39.8,32.2,72,72,72s72-32.2,72-72V810c0-9.9,8.1-18,18-18h346
			c39.8,0,72-32.2,72-72s-32.2-72-72-72h-346c-9.9,0-18-8.1-18-18V378c0-9.9,8.1-18,18-18h447c39.8,0,72-32.2,72-72
			S1058.3,216,1018.5,216L1018.5,216z"/>
	</g>
	<g>
		<path class="st1" d="M265.5,1219c-36.9,0-67-30.1-67-67V18c0-7.2,5.8-13,13-13h807c75.6,0,146.7,29.4,200.1,82.9
			s82.9,124.5,82.9,200.1s-29.4,146.7-82.9,200.1S1094.1,571,1018.5,571h-375c-7.2,0-13-5.8-13-13V450c0-7.2,5.8-13,13-13h375
			c82.2,0,149-66.8,149-149s-66.8-149-149-149h-663c-12.7,0-23,10.3-23,23v990C332.5,1188.9,302.4,1219,265.5,1219z"/>
		<path class="st2" d="M1018.5,10c37.5,0,73.9,7.3,108.2,21.8c33.1,14,62.8,34,88.4,59.6c25.5,25.5,45.6,55.3,59.6,88.4
			c14.5,34.3,21.8,70.7,21.8,108.2s-7.3,73.9-21.8,108.2c-14,33.1-34,62.8-59.6,88.4c-25.5,25.5-55.3,45.6-88.4,59.6
			c-34.3,14.5-70.7,21.8-108.2,21.8h-375c-4.4,0-8-3.6-8-8V450c0-4.4,3.6-8,8-8h375c84.9,0,154-69.1,154-154s-69.1-154-154-154h-663
			c-15.4,0-28,12.6-28,28v990c0,34.2-27.8,62-62,62s-62-27.8-62-62V18c0-4.4,3.6-8,8-8H1018.5 M1018.5,0h-807c-9.9,0-18,8.1-18,18
			v1134c0,39.8,32.2,72,72,72s72-32.2,72-72V162c0-9.9,8.1-18,18-18h663c79.5,0,144,64.5,144,144s-64.5,144-144,144h-375
			c-9.9,0-18,8.1-18,18v108c0,9.9,8.1,18,18,18h375c159.1,0,288-128.9,288-288S1177.6,0,1018.5,0L1018.5,0z"/>
	</g>
	<g>
		<path class="st1" d="M30.9,1493.1c-14.5,0-25.9-11.4-25.9-25.9v-185.6c0-14.5,11.4-25.9,25.9-25.9h70.3c27.2,0,50.1,7.8,66.1,22.6
			c15.7,14.5,24,34.8,24,58.7v0.7c0,25.7-9.6,47.1-27.8,61.8c-17,13.7-40.3,20.9-67.3,20.9H56.7v46.8
			C56.7,1481.7,45.4,1493.1,30.9,1493.1z M56.7,1374.5h41c24.6,0,41.1-14.3,41.1-35.7v-0.7c0-22.7-15.3-35.7-42.1-35.7h-40V1374.5z"
			/>
		<path class="st2" d="M101.1,1260.8c25.9,0,47.6,7.4,62.7,21.3c14.6,13.5,22.4,32.6,22.4,55v0.7c0,24.2-9,44.2-25.9,57.9
			c-16.1,13-38.3,19.8-64.2,19.8H61.7h-10v10v41.8c0,11.7-9.2,20.9-20.9,20.9c-11.7,0-20.9-9.2-20.9-20.9v-185.6
			c0-11.7,9.2-20.9,20.9-20.9H101.1 M51.7,1379.5h10h36c27.5,0,46.1-16.3,46.1-40.7v-0.7c0-25.5-17.6-40.7-47.1-40.7h-35h-10v10v62
			V1379.5 M101.1,1250.8H30.9c-17.3,0-30.9,13.6-30.9,30.9v185.6c0,17.3,13.6,30.9,30.9,30.9c17.3,0,30.9-13.6,30.9-30.9v-41.8h34.4
			c28.3,0,52.6-7.6,70.5-22c19.4-15.6,29.6-38.3,29.6-65.6v-0.7c0-25.3-8.8-46.9-25.6-62.4C153.6,1259.1,129.6,1250.8,101.1,1250.8
			L101.1,1250.8z M61.7,1369.5v-62h35c13.8,0,37.1,4,37.1,30.7v0.7c0,18.6-14.2,30.7-36.1,30.7H61.7L61.7,1369.5z"/>
	</g>
	<g>
		<path class="st1" d="M294.4,1495.1c-26.4,0-50.3-9.2-67.3-25.9c-17.3-16.9-26.8-40.7-26.8-67.2v-0.7c0-25.3,8.8-48.8,24.9-66.2
			c16.4-17.8,39.2-27.6,64.2-27.6c34.3,0,54.8,16,65.9,29.4c13,15.6,20.8,37.1,20.8,57.3c0,14.4-9.8,24.5-23.8,24.5H250.6l2.3,6.6
			c6.4,18.8,21,28.8,42.3,28.8c13.5,0,25.3-4,36.3-12.1c4-2.9,7.4-4,12.4-4c11.3,0,19.8,8.7,19.8,20.1c0,5.8-2.4,11.2-6.7,15.1
			l-0.1,0.1C339.9,1487.7,318.9,1495.1,294.4,1495.1z M289.4,1348.5c-18.5,0-32.2,11.7-37.7,32.1l-1.7,6.3h77.7l-1.4-6.1
			C321.7,1360.3,308.3,1348.5,289.4,1348.5z"/>
		<path class="st2" d="M289.4,1312.5c32.3,0,51.6,15,62.1,27.6c12.3,14.8,19.6,35,19.6,54.1c0,11.7-7.6,19.5-18.8,19.5h-94.7h-14
			l4.5,13.2c7.1,20.7,23.8,32.1,47,32.1c14.6,0,27.4-4.3,39.3-13.1c3.2-2.3,5.6-3.1,9.5-3.1c8.6,0,14.8,6.4,14.8,15.1
			c0,4.4-1.7,8.3-5,11.4c-16.1,13.7-36,20.6-59.2,20.6c-25,0-47.7-8.7-63.8-24.5c-16.3-15.9-25.3-38.5-25.3-63.6v-0.7
			c0-24,8.4-46.3,23.5-62.8C244.4,1321.8,265.9,1312.5,289.4,1312.5 M243.5,1391.9h13h64.9H334l-2.8-12.2
			c-5.1-22.7-20.7-36.2-41.8-36.2c-20.6,0-36.5,13.4-42.5,35.8L243.5,1391.9 M289.4,1302.5c-26.4,0-50.5,10.4-67.9,29.2
			c-16.9,18.3-26.2,43-26.2,69.6v0.7c0,27.8,10,53,28.3,70.8c18,17.6,43.2,27.3,70.8,27.3c25.7,0,47.8-7.8,65.8-23l0.1-0.1
			c5.4-4.9,8.4-11.6,8.4-18.8c0-14.3-10.7-25.1-24.8-25.1c-6,0-10.5,1.4-15.4,5c-10.1,7.5-21,11.1-33.4,11.1
			c-19,0-31.9-8.7-37.5-25.4h94.7c16.7,0,28.8-12.4,28.8-29.5c0-21.4-8.2-44-22-60.5C347.3,1319.5,325.6,1302.5,289.4,1302.5
			L289.4,1302.5z M256.6,1381.9c4.9-18.1,16.6-28.4,32.8-28.4c16.5,0,28,10.3,32.1,28.4H256.6L256.6,1381.9z"/>
	</g>
	<g>
		<path class="st1" d="M475.7,1494.4c-40.8,0-82-32-82-93.1v-0.7c0-28.2,8.6-52.1,25-69.1c14.9-15.5,35.1-24,57-24
			c18.8,0,34.4,5.9,47.8,18.2l8.4,7.6v-64.2c0-14.1,11.4-25.5,25.5-25.5s25.5,11.4,25.5,25.5v198.4c0,14.1-11.4,25.5-25.5,25.5
			c-11.1,0-20.8-7.1-24.3-17.6l-2.6-8l-5.8,6.1C511.4,1487.6,495.4,1494.4,475.7,1494.4z M488.8,1350.9c-25.5,0-44.1,20.9-44.1,49.8
			v0.7c0,28.4,18.9,49.8,44.1,49.8c25.3,0,43.7-20.9,43.7-49.8v-0.7C532.5,1371.8,514.1,1350.9,488.8,1350.9z"/>
		<path class="st2" d="M557.4,1248.7c11.3,0,20.5,9.2,20.5,20.5v198.4c0,11.3-9.2,20.5-20.5,20.5c-8.9,0-16.7-5.7-19.5-14.1
			l-5.2-15.9l-11.5,12.1c-12.3,12.9-27.2,19.2-45.4,19.2c-19.6,0-38.8-8-52.6-21.9c-16-16.1-24.4-39-24.4-66.2v-0.7
			c0-26.9,8.2-49.6,23.6-65.6c13.9-14.5,32.9-22.5,53.4-22.5c17.4,0,32,5.5,44.4,16.9l16.7,15.3V1322v-52.8
			C536.8,1257.9,546,1248.7,557.4,1248.7 M488.8,1456.1c28.2,0,48.7-23,48.7-54.8v-0.7c0-31.7-20.5-54.8-48.7-54.8
			c-28.4,0-49.1,23-49.1,54.8v0.7C439.7,1432.6,460.8,1456.1,488.8,1456.1 M557.4,1238.7c-16.8,0-30.5,13.7-30.5,30.5v52.8
			c-14.4-13.1-31.2-19.5-51.2-19.5c-23.2,0-44.8,9.1-60.6,25.5c-17.3,17.9-26.4,43-26.4,72.6v0.7c0,64.4,43.8,98.1,87,98.1
			c21.1,0,38.4-7.3,52.7-22.4c4,12.2,15.5,21,29,21c16.8,0,30.5-13.7,30.5-30.5v-198.4C587.9,1252.4,574.2,1238.7,557.4,1238.7
			L557.4,1238.7z M488.8,1446.1c-22.3,0-39.1-19.3-39.1-44.8v-0.7c0-26,16.4-44.8,39.1-44.8c22.4,0,38.7,18.8,38.7,44.8v0.7
			C527.5,1427.3,511.2,1446.1,488.8,1446.1L488.8,1446.1z"/>
	</g>
	<g>
		<g>
			<path class="st1" d="M643.1,1493.1c-14.1,0-25.5-11.4-25.5-25.5v-133.1c0-14.1,11.4-25.5,25.5-25.5s25.5,11.4,25.5,25.5v133.1
				C668.6,1481.6,657.2,1493.1,643.1,1493.1z"/>
			<path class="st2" d="M643.1,1313.9c11.3,0,20.5,9.2,20.5,20.5v133.1c0,11.3-9.2,20.5-20.5,20.5c-11.3,0-20.5-9.2-20.5-20.5
				v-133.1C622.6,1323.1,631.8,1313.9,643.1,1313.9 M643.1,1303.9c-16.8,0-30.5,13.7-30.5,30.5v133.1c0,16.8,13.7,30.5,30.5,30.5
				c16.8,0,30.5-13.7,30.5-30.5v-133.1C673.6,1317.6,659.9,1303.9,643.1,1303.9L643.1,1303.9z"/>
		</g>
		<g>
			<path class="st1" d="M641.7,1293c-6.3,0-12.7-2.7-12.7-8.7c0-2.4,1.1-5.5,3.4-9.1l18.5-28.9c4.7-7.6,11.1-11.4,19.1-11.4
				c11.9,0,28.5,7.8,28.5,15.4c0,5.2-3.4,9-6.7,12.1l-20.8,19.5C661,1291.2,652.7,1293,641.7,1293z"/>
			<path class="st2" d="M670,1239.9c5.3,0,12,1.8,17.1,4.6c4.8,2.6,6.5,5.1,6.5,5.9c0,2.6-1.5,5.1-5.1,8.4l0,0l0,0l-20.8,19.4
				c-8.8,8.2-15.9,9.8-25.8,9.8c-3.8,0-7.7-1.3-7.7-3.7c0-0.8,0.3-2.8,2.6-6.4l18.5-28.9l0-0.1l0-0.1
				C658.9,1242.9,663.7,1239.9,670,1239.9 M670,1229.9c-9.7,0-17.8,4.8-23.3,13.7l-18.5,29c-2.8,4.4-4.1,8.3-4.1,11.7
				c0,8.1,7.3,13.7,17.7,13.7c11.9,0,21.5-2.1,32.6-12.4l20.8-19.5c3.9-3.6,8.3-8.6,8.3-15.8C703.5,1238.5,683.5,1229.9,670,1229.9
				L670,1229.9z"/>
		</g>
	</g>
	<g>
		<path class="st1" d="M821.9,1493.1c-14.5,0-25.9-11.4-25.9-25.9v-185.6c0-14.5,11.4-25.9,25.9-25.9h131.8
			c13.2,0,23.5,10.3,23.5,23.5c0,13.2-10.3,23.5-23.5,23.5H847.8v50.2h90.8c13.2,0,23.5,10.3,23.5,23.5c0,13.2-10.3,23.5-23.5,23.5
			h-90.8v67.3C847.8,1481.7,836.4,1493.1,821.9,1493.1z"/>
		<path class="st2" d="M953.7,1260.8c10.4,0,18.5,8.1,18.5,18.5s-8.1,18.5-18.5,18.5H852.8h-10v10v40.2v10h10h85.8
			c10.4,0,18.5,8.1,18.5,18.5c0,10.4-8.1,18.5-18.5,18.5h-85.8h-10v10v62.3c0,11.7-9.2,20.9-20.9,20.9c-11.7,0-20.9-9.2-20.9-20.9
			v-185.6c0-11.7,9.2-20.9,20.9-20.9H953.7 M953.7,1250.8H821.9c-17.3,0-30.9,13.6-30.9,30.9v185.6c0,17.3,13.6,30.9,30.9,30.9
			c17.3,0,30.9-13.6,30.9-30.9v-62.3h85.8c16,0,28.5-12.5,28.5-28.5c0-16-12.5-28.5-28.5-28.5h-85.8v-40.2h100.9
			c16,0,28.5-12.5,28.5-28.5S969.7,1250.8,953.7,1250.8L953.7,1250.8z"/>
	</g>
	<g>
		<g>
			<path class="st1" d="M1065.4,1293c-6.3,0-12.7-2.7-12.7-8.7c0-2.4,1.1-5.5,3.4-9.1l18.5-28.9c4.7-7.6,11.1-11.4,19.1-11.4
				c11.9,0,28.5,7.8,28.5,15.4c0,5.2-3.4,9-6.7,12.1l-20.8,19.5C1084.6,1291.2,1076.3,1293,1065.4,1293z"/>
			<path class="st2" d="M1093.6,1239.9c5.3,0,12,1.8,17.1,4.6c4.8,2.6,6.5,5.1,6.5,5.9c0,2.6-1.5,5.1-5.1,8.4l0,0l0,0l-20.8,19.4
				c-8.8,8.2-15.9,9.8-25.8,9.8c-3.8,0-7.7-1.3-7.7-3.7c0-0.8,0.3-2.8,2.6-6.4l18.5-28.9l0-0.1l0-0.1
				C1082.5,1242.9,1087.4,1239.9,1093.6,1239.9 M1093.6,1229.9c-9.7,0-17.8,4.8-23.3,13.7l-18.5,29c-2.8,4.4-4.1,8.3-4.1,11.7
				c0,8.1,7.3,13.7,17.7,13.7c11.9,0,21.5-2.1,32.6-12.4l20.8-19.5c3.9-3.6,8.3-8.6,8.3-15.8
				C1127.1,1238.5,1107.1,1229.9,1093.6,1229.9L1093.6,1229.9z"/>
		</g>
		<g>
			<path class="st1" d="M1040.5,1494.4c-17.1,0-32.6-5-43.6-14.2c-11.9-9.9-18.2-24-18.2-40.9v-0.7c0-18.6,7-33.7,20.3-43.5
				c12.4-9.2,30.5-14,52.3-14c13.4,0,25.3,1.7,37.5,5.3l7.1,2.1l-0.7-7.4c-1.2-13.1-8.9-28.7-38.5-28.7c-12.8,0-24.3,1.6-35.3,5
				l-0.1,0c-2.9,1-4.9,1.3-7.3,1.3c-11.9,0-21.1-9.1-21.1-20.8c0-8.8,5.5-16.7,13.8-19.8c17.4-6.5,35.1-9.4,57.5-9.4
				c27,0,47.5,6.8,60.8,20.2c12.9,12.9,19.5,32.3,19.5,57.5v82c0,13.7-10.9,24.5-24.8,24.5c-12.5,0-20-7-22.9-13.6l-2.7-6.3
				l-5.1,4.5C1075.9,1488.9,1060.1,1494.4,1040.5,1494.4z M1063.3,1411.7c-22.5,0-35.3,9.1-35.3,24.9v0.7c0,13.3,11,21.9,27.9,21.9
				c24,0,40-12.7,40-31.6v-9.2l-3.2-1.3C1084,1413.6,1073.8,1411.7,1063.3,1411.7z"/>
			<path class="st2" d="M1064,1313.9c25.6,0,44.9,6.3,57.3,18.7c12,12,18,30.1,18,53.9v82c0,10.9-8.7,19.5-19.8,19.5
				c-8.6,0-15.4-4-18.3-10.6l-5.5-12.6l-10.3,9c-11.9,10.4-26.6,15.5-44.9,15.5c-16,0-30.3-4.6-40.4-13
				c-10.7-8.9-16.4-21.7-16.4-37.1v-0.7c0-17.2,6.1-30.5,18.3-39.4c11.5-8.5,28.6-13,49.3-13c17,0,28.7,2.9,36.1,5.1l14.2,4.2
				l-1.4-14.7c-1.2-12.4-8.4-33.2-43.5-33.2c-13.3,0-25.3,1.7-36.7,5.3l-0.1,0l-0.1,0c-2.7,0.9-4.1,1.1-5.8,1.1
				c-9.2,0-16.1-6.8-16.1-15.8c0-6.7,4.2-12.8,10.5-15.1C1025.1,1316.7,1042.2,1313.9,1064,1313.9 M1055.9,1464.2
				c26.5,0,45-15.1,45-36.6v-5.8v-6.8l-6.3-2.5c-9.4-3.8-20.3-5.7-31.3-5.7c-25.3,0-40.3,11.2-40.3,29.9v0.7
				C1023,1453.4,1036.2,1464.2,1055.9,1464.2 M1064,1303.9c-23,0-41.3,3-59.2,9.7c-10.2,3.8-17,13.7-17,24.5
				c0,14.5,11.5,25.8,26.1,25.8c3,0,5.5-0.4,8.9-1.6c10.4-3.2,21.5-4.8,33.8-4.8c20.8,0,32,8.1,33.5,24.1c-10-3-22.4-5.5-38.9-5.5
				c-22.9,0-42,5.2-55.3,15c-14.6,10.8-22.3,27.2-22.3,47.5v0.7c0,18.4,6.9,33.9,20,44.8c11.9,9.9,28.5,15.4,46.8,15.4
				c20.8,0,37.7-5.9,51.5-18c4,9.1,13.6,16.6,27.5,16.6c16.7,0,29.8-13,29.8-29.5v-82c0-26.6-7-47.1-21-61
				C1114,1311.2,1092.4,1303.9,1064,1303.9L1064,1303.9z M1055.9,1454.2c-11.1,0-22.9-4.4-22.9-16.9v-0.7c0-17.3,19-19.9,30.3-19.9
				c9.8,0,19.4,1.8,27.6,5v5.8C1091,1443.5,1076.9,1454.2,1055.9,1454.2L1055.9,1454.2z"/>
		</g>
	</g>
	<g>
		<path class="st1" d="M1260,1495.1c-25.9,0-49.8-9.7-67.2-27.3c-17.1-17.3-26.6-40.7-26.6-65.8v-0.7c0-25.2,9.4-48.7,26.6-66.2
			c17.5-17.8,41.6-27.6,67.9-27.6c25.6,0,45.2,6.4,61.5,20.1l0.1,0.1c3.9,3.1,8,9.3,8,17.4c0,12.6-10.4,22.8-23.2,22.8
			c-7.2,0-12.4-3.2-14.8-5c-10.3-8-19.9-11.4-32-11.4c-24.5,0-43.7,21.6-43.7,49.1v0.7c0,29.3,18.8,49.8,45.8,49.8
			c12.4,0,22.8-3.8,33.6-12.4l0,0c1.9-1.4,7-4.7,13.7-4.7c12,0,21.5,9.6,21.5,21.8c0,6.1-2.6,11.7-7.4,16.1
			C1306.5,1487.7,1286.2,1495.1,1260,1495.1z"/>
		<path class="st2" d="M1260.7,1312.5c24.4,0,42.9,6,58.2,18.9l0.1,0.1l0.1,0.1c2.8,2.3,6.2,7.2,6.2,13.5c0,9.8-8.1,17.8-18.2,17.8
			c-5.7,0-9.8-2.5-11.7-4c-11.3-8.8-21.7-12.5-35-12.5c-27.3,0-48.7,23.8-48.7,54.1v0.7c0,31.7,21.3,54.8,50.8,54.8
			c13.4,0,25.1-4.3,36.7-13.5c1.2-0.9,5.4-3.7,10.7-3.7c9.4,0,16.5,7.2,16.5,16.8c0,4.7-1.9,8.9-5.8,12.4
			c-16.4,14.9-35.6,21.9-60.5,21.9c-24.6,0-47.2-9.2-63.6-25.8c-16.2-16.4-25.1-38.5-25.1-62.3v-0.7c0-23.9,8.9-46.2,25.1-62.7
			C1212.9,1321.8,1235.8,1312.5,1260.7,1312.5 M1260.7,1302.5c-27.6,0-53,10.3-71.5,29.1c-18,18.4-28,43.1-28,69.7v0.7
			c0,26.5,10,51.1,28,69.3c18.4,18.5,43.5,28.7,70.7,28.7c27.5,0,48.9-7.8,67.2-24.5c5.9-5.4,9-12.3,9-19.8
			c0-15-11.6-26.8-26.5-26.8c-8.3,0-14.5,4-16.8,5.7l-0.1,0.1c-9.9,7.9-19.3,11.4-30.5,11.4c-24,0-40.8-18.4-40.8-44.8v-0.7
			c0-24.7,17-44.1,38.7-44.1c11,0,19.4,3,28.9,10.4c2.9,2.3,9.1,6.1,17.8,6.1c15.5,0,28.2-12.5,28.2-27.8c0-9.9-5.1-17.5-9.9-21.3
			C1308.1,1309.3,1287.6,1302.5,1260.7,1302.5L1260.7,1302.5z"/>
	</g>
	<g>
		<g>
			<path class="st1" d="M1381.4,1292.7c-16.5,0-28.5-10.2-28.5-24.2v-0.7c0-14.3,11.5-23.8,28.5-23.8c17.1,0,28.5,9.6,28.5,23.8v0.7
				C1409.9,1282.5,1397.9,1292.7,1381.4,1292.7z"/>
			<path class="st2" d="M1381.4,1249c7.2,0,13.4,2,17.7,5.6c3.8,3.3,5.9,7.9,5.9,13.2v0.7c0,11.3-9.7,19.2-23.5,19.2
				c-13.9,0-23.5-7.9-23.5-19.2v-0.7c0-5.3,2-9.9,5.9-13.2C1368,1251,1374.2,1249,1381.4,1249 M1381.4,1239
				c-19.7,0-33.5,11.9-33.5,28.8v0.7c0,16.9,14.1,29.2,33.5,29.2c19.4,0,33.5-12.3,33.5-29.2v-0.7
				C1414.9,1250.9,1401.1,1239,1381.4,1239L1381.4,1239z"/>
		</g>
		<g>
			<path class="st1" d="M1381.4,1493.1c-14.1,0-25.5-11.4-25.5-25.5v-133.1c0-14.1,11.4-25.5,25.5-25.5s25.5,11.4,25.5,25.5v133.1
				C1406.9,1481.6,1395.5,1493.1,1381.4,1493.1z"/>
			<path class="st2" d="M1381.4,1313.9c11.3,0,20.5,9.2,20.5,20.5v133.1c0,11.3-9.2,20.5-20.5,20.5c-11.3,0-20.5-9.2-20.5-20.5
				v-133.1C1360.9,1323.1,1370.1,1313.9,1381.4,1313.9 M1381.4,1303.9c-16.8,0-30.5,13.7-30.5,30.5v133.1
				c0,16.8,13.7,30.5,30.5,30.5c16.8,0,30.5-13.7,30.5-30.5v-133.1C1411.9,1317.6,1398.2,1303.9,1381.4,1303.9L1381.4,1303.9z"/>
		</g>
	</g>
	<g>
		<path class="st1" d="M1469.5,1493.1c-14.1,0-25.5-11.4-25.5-25.5v-198.4c0-14.1,11.4-25.5,25.5-25.5s25.5,11.4,25.5,25.5v198.4
			C1495,1481.6,1483.6,1493.1,1469.5,1493.1z"/>
		<path class="st2" d="M1469.5,1248.7c11.3,0,20.5,9.2,20.5,20.5v198.4c0,11.3-9.2,20.5-20.5,20.5s-20.5-9.2-20.5-20.5v-198.4
			C1449,1257.9,1458.2,1248.7,1469.5,1248.7 M1469.5,1238.7c-16.8,0-30.5,13.7-30.5,30.5v198.4c0,16.8,13.7,30.5,30.5,30.5
			s30.5-13.7,30.5-30.5v-198.4C1500,1252.4,1486.3,1238.7,1469.5,1238.7L1469.5,1238.7z"/>
	</g>
</g>
</svg>
