<?xml version="1.0" encoding="utf-8"?>
<!-- Generator: Adobe Illustrator 24.1.1, SVG Export Plug-In . SVG Version: 6.00 Build 0)  -->
<svg version="1.1" id="Capa_1" xmlns="http://www.w3.org/2000/svg" xmlns:xlink="http://www.w3.org/1999/xlink" x="0px" y="0px"
	 viewBox="0 0 913 281" style="enable-background:new 0 0 913 281;" xml:space="preserve">
<style type="text/css">
	.st0{fill:#4285F4;}
	.st1{fill:#073042;}
	.st2{fill:#212121;}
</style>
<g>
	<g>
		<g>
			<path class="st0" d="M203.5,53.3c0.2,7.6-5.9,13.9-13.4,13.9h-83.4c-1.8,0-3.4,1.5-3.4,3.4v47c0,1.8,1.5,3.4,3.4,3.4h64.4
				c7.3,0,13.4,5.7,13.6,13c0.2,7.6-5.9,13.9-13.4,13.9h-64.5c-1.8,0-3.4,1.5-3.4,3.4V198c0,7.3-5.7,13.4-13,13.6
				c-7.6,0.2-13.9-5.9-13.9-13.4V43.7c0-1.8,1.5-3.4,3.4-3.4h110.1C197.2,40.3,203.3,46,203.5,53.3z"/>
		</g>
		<g>
			<path class="st1" d="M243.8,53.1c0.4,30-23.8,54.4-53.7,54.4h-70c-1.8,0-3.4-1.5-3.4-3.4V83.5c0-1.6,1.3-2.9,2.9-2.9h72.7
				c8.5,0,16.3-4.5,20.5-11.9c11.6-20.7-3.2-41.8-22.8-41.8H66c-1.6,0-2.9,1.3-2.9,2.9v185c0,7.3-5.7,13.4-13,13.6
				c-7.6,0.2-13.9-5.9-13.9-13.4V3.4c0-1.8,1.5-3.4,3.4-3.4l150.1,0C218.9,0,243.5,23.9,243.8,53.1z"/>
		</g>
		<g>
			<path class="st1" d="M1,239.2c0-2.7,2.1-4.9,4.9-4.9H19c10.5,0,16.9,6.2,16.9,15.2v0.1c0,10.2-7.9,15.4-17.8,15.4h-7.4v8.8
				c0,2.5-1.9,4.7-4.4,4.9c-2.9,0.3-5.3-1.9-5.3-4.8L1,239.2L1,239.2z M18.3,256.3c4.8,0,7.6-2.9,7.6-6.7v-0.1c0-4.3-3-6.7-7.8-6.7
				h-7.5v13.4L18.3,256.3L18.3,256.3z"/>
			<path class="st1" d="M6.4,279.4c-3.5,0.3-6.4-2.3-6.4-5.7V239c0-3.2,2.6-5.8,5.8-5.8H19c5.3,0,9.8,1.6,13,4.5
				c3.1,2.9,4.8,6.9,4.8,11.7v0.1c0,5.1-1.9,9.3-5.5,12.3c-3.4,2.7-7.9,4.1-13.2,4.1h-6.4v7.7C11.6,276.5,9.3,279.1,6.4,279.4z
				 M5.8,235.2c-2.2,0-3.9,1.7-3.9,3.9v34.6c0,2,1.5,3.7,3.4,3.9c2.4,0.3,4.4-1.5,4.4-3.9v-9.6H18c10.3,0,16.9-5.7,16.9-14.5v-0.1
				c0-8.7-6.3-14.3-15.9-14.3L5.8,235.2L5.8,235.2z M18.3,257.3H9.7V242h8.4c5.5,0,8.8,2.8,8.8,7.6v0.1
				C26.9,254.2,23.4,257.3,18.3,257.3z M11.6,255.4h6.7c4.1,0,6.7-2.2,6.7-5.7v-0.1c0-5-4.3-5.7-6.9-5.7h-6.5L11.6,255.4L11.6,255.4
				z"/>
		</g>
		<g>
			<path class="st1" d="M55.1,279c-10.1,0-17.6-7.1-17.6-17.4v-0.1c0-9.6,6.8-17.5,16.6-17.5c11.2,0,16.2,9.2,16.2,16.2
				c0,2.8-1.9,4.6-4.5,4.6H47c0.9,4.3,4,6.6,8.2,6.6c2.6,0,4.8-0.8,6.8-2.3c0.7-0.5,1.3-0.7,2.3-0.7c2.1,0,3.7,1.6,3.7,3.8
				c0,1.2-0.6,2.2-1.2,2.8C63.8,277.4,60,279,55.1,279z M61.2,258.7c-0.6-4.3-3.1-7.1-7.1-7.1c-4,0-6.5,2.8-7.3,7.1H61.2z"/>
			<path class="st1" d="M55.1,279.9c-5.2,0-9.8-1.8-13.2-5.1c-3.4-3.3-5.3-8-5.3-13.2v-0.1c0-5,1.7-9.6,4.9-13
				c3.2-3.5,7.7-5.4,12.7-5.4c6.8,0,10.8,3.2,13,5.8c2.6,3.1,4.1,7.3,4.1,11.3c0,3.2-2.3,5.5-5.4,5.5H48.2c1.1,3.1,3.5,4.7,7,4.7
				c2.3,0,4.3-0.7,6.2-2.1c0.9-0.7,1.8-0.9,2.9-0.9c2.6,0,4.6,2,4.6,4.7c0,1.3-0.6,2.6-1.6,3.5l0,0C64,278.4,59.9,279.9,55.1,279.9z
				 M54.1,244.8c-9,0-15.7,7.1-15.7,16.6v0.1c0,9.7,6.8,16.5,16.6,16.5c4.3,0,8-1.3,11.1-3.8c0.4-0.4,0.9-1.1,0.9-2.1
				c0-1.6-1.2-2.8-2.8-2.8c-0.8,0-1.3,0.2-1.8,0.6c-2.2,1.6-4.6,2.4-7.3,2.4c-4.8,0-8.1-2.7-9.1-7.3l-0.2-1.1h20
				c2.1,0,3.5-1.5,3.5-3.7C69.4,254.2,65.2,244.8,54.1,244.8z M62.2,259.7H45.7l0.2-1.1c0.9-5,3.9-7.9,8.2-7.9c4.3,0,7.3,3,8,7.9
				L62.2,259.7z M48,257.8h12.1c-0.8-3.4-2.9-5.3-6-5.3C51.1,252.5,48.9,254.4,48,257.8z"/>
		</g>
		<g>
			<path class="st1" d="M108.8,273.7c0,2.6-2.1,4.8-4.8,4.8c-2.6,0-4.8-2.1-4.8-4.8v-0.4c-2.3,3.1-5.5,5.4-10.5,5.4
				c-7.8,0-15.3-6.1-15.3-17.4v-0.1c0-11.2,7.3-17.4,15.3-17.4c5.1,0,8.2,2.3,10.5,5v-12.1c0-2.6,2.1-4.8,4.8-4.8
				c2.6,0,4.8,2.1,4.8,4.8V273.7z M83,261.3v0.1c0,5.6,3.8,9.3,8.2,9.3c4.5,0,8.2-3.7,8.2-9.3v-0.1c0-5.6-3.7-9.3-8.2-9.3
				S83,255.6,83,261.3z"/>
			<path class="st1" d="M88.8,279.7c-8.1,0-16.2-6.3-16.2-18.3v-0.2c0-5.5,1.7-10.2,4.9-13.5c2.9-3.1,7-4.7,11.3-4.7
				c3.7,0,6.9,1.2,9.5,3.6v-9.7c0-2.9,2.1-5.4,5-5.8c3.5-0.4,6.4,2.3,6.4,5.6v36.9c0,3-2.3,5.6-5.4,5.8c-2.7,0.2-5-1.5-5.7-3.9
				C95.9,278.3,92.7,279.7,88.8,279.7z M88.9,244.8c-7,0-14.5,5.2-14.5,16.5v0.1c0,10.9,7.3,16.5,14.5,16.5c4.1,0,7.2-1.6,9.8-5.1
				l1.7-2.3v3c0,2.2,1.8,4,3.9,3.9c2.1,0,3.7-1.7,3.7-3.8V237c0-2.2-1.8-4-3.9-3.9c-2.1,0-3.7,1.7-3.7,3.8v14.6l-1.6-2
				C96,246.3,92.9,244.8,88.9,244.8z M91.3,271.6c-5.2,0-9.2-4.4-9.2-10.2v-0.1c0-2.9,1-5.5,2.7-7.4c1.7-1.8,4-2.8,6.5-2.8
				c5.2,0,9.1,4.4,9.1,10.2v0.1C100.4,267.2,96.4,271.6,91.3,271.6z M91.3,252.9c-4.2,0-7.3,3.5-7.3,8.4v0.1c0,4.8,3.1,8.4,7.3,8.4
				c4.2,0,7.2-3.5,7.2-8.4v-0.1C98.5,256.4,95.5,252.9,91.3,252.9z"/>
		</g>
		<g>
			<path class="st1" d="M115.3,249c0-2.5,1.9-4.6,4.4-4.7c2.8-0.2,5.1,2.1,5.1,4.9v24.6c0,2.5-1.9,4.6-4.4,4.7
				c-2.8,0.2-5.1-2.1-5.1-4.9V249z M117.4,239.6c0-0.6,0.3-1.2,0.6-1.7l3.5-5.4c0.8-1.3,2-2.1,3.6-2.1c2.3,0,5.3,1.4,5.3,2.9
				c0,0.9-0.5,1.6-1.2,2.3l-3.9,3.6c-1.8,1.7-3.3,2.1-5.5,2.1C118.4,241.2,117.4,240.6,117.4,239.6z"/>
			<path class="st1" d="M114.4,273.7v-24.6c0-2.9,2.1-5.4,5-5.8c3.5-0.4,6.4,2.3,6.4,5.6v24.8c0,3.4-3,6.1-6.4,5.6
				C116.5,279.1,114.4,276.5,114.4,273.7z M116.2,249.1v24.5c0,1.9,1.6,3.7,3.5,3.9c2.3,0.2,4.2-1.6,4.2-3.8V249
				c0-2.4-2.2-4.3-4.6-3.7C117.5,245.6,116.2,247.3,116.2,249.1z M119.8,242.1c-1.9,0-3.3-1-3.3-2.6c0-0.6,0.2-1.4,0.8-2.2l3.5-5.4
				c1-1.7,2.5-2.6,4.3-2.6c2.5,0,6.2,1.6,6.2,3.8c0,1.3-0.8,2.3-1.5,2.9l-3.9,3.6C123.8,241.7,122.1,242.1,119.8,242.1z
				 M125.1,231.3c-1.2,0-2.1,0.6-2.8,1.7l-3.5,5.4c-0.4,0.7-0.5,1-0.5,1.2c0,0.5,0.7,0.7,1.5,0.7c1.9,0,3.2-0.3,4.8-1.8l3.9-3.6
				c0.7-0.6,1-1.1,1-1.6C129.5,232.6,127.3,231.3,125.1,231.3z"/>
		</g>
		<g>
			<path class="st0" d="M148.5,239.2c0-2.7,2.1-4.9,4.9-4.9h24.5c2.3,0,4.3,1.7,4.5,4c0.2,2.6-1.8,4.7-4.4,4.7h-19.8v9.3H175
				c2.3,0,4.3,1.7,4.5,4c0.2,2.6-1.8,4.7-4.4,4.7h-16.9v12.6c0,2.5-1.9,4.7-4.4,4.9c-2.9,0.3-5.3-1.9-5.3-4.8L148.5,239.2
				L148.5,239.2z"/>
			<path class="st0" d="M153.7,279.5c-3.4,0.2-6.1-2.4-6.1-5.8v-34.9c0-3,2.4-5.5,5.5-5.5h25.2c2.3,0,4.3,1.5,4.9,3.7
				c1,3.7-1.6,6.9-5.1,6.9h-18.9v7.5h16c2.8,0,5.3,2.2,5.4,5c0.1,3.1-2.2,5.6-5.3,5.6h-16.1v11.5
				C159.1,276.7,156.8,279.3,153.7,279.5z M153.3,235.3c-2.2,0-3.9,1.7-3.9,3.9v34.4c0,2.1,1.6,3.8,3.6,4c2.3,0.2,4.2-1.6,4.2-3.9
				v-13.4h17.9c2,0,3.6-1.6,3.5-3.6c-0.1-1.9-1.6-3.3-3.5-3.3h-17.9v-11.2H178c2,0,3.6-1.6,3.5-3.6c-0.1-1.9-1.6-3.3-3.5-3.3
				L153.3,235.3L153.3,235.3z"/>
		</g>
		<g>
			<path class="st0" d="M182.6,268.5L182.6,268.5c0-7.4,5.6-10.8,13.6-10.8c3.4,0,5.9,0.6,8.2,1.4v-0.6c0-3.9-2.4-6.1-7.2-6.1
				c-2.6,0-4.8,0.4-6.6,0.9c-0.6,0.2-0.9,0.2-1.4,0.2c-2.2,0-3.9-1.7-3.9-3.9c0-1.7,1.1-3.1,2.6-3.7c3-1.1,6.3-1.7,10.7-1.7
				c5.2,0,9,1.4,11.3,3.8c2.5,2.5,3.6,6.2,3.6,10.7v15.2c0,2.6-2.1,4.7-4.6,4.7c-2.7,0-4.5-1.9-4.5-3.9v-0.1
				c-2.3,2.6-5.6,4.3-10.2,4.3C187.9,278.8,182.6,275.1,182.6,268.5z M204.6,266.3v-1.7c-1.6-0.7-3.8-1.3-6.1-1.3
				c-4.1,0-6.6,1.6-6.6,4.7v0.1c0,2.6,2.1,4.1,5.2,4.1C201.6,272.2,204.6,269.7,204.6,266.3z M196.5,239.6c0-0.6,0.3-1.2,0.6-1.7
				l3.5-5.4c0.8-1.3,2-2.1,3.6-2.1c2.3,0,5.3,1.4,5.3,2.9c0,0.9-0.5,1.6-1.2,2.3l-3.9,3.6c-1.8,1.7-3.3,2.1-5.4,2.1
				C197.5,241.2,196.5,240.6,196.5,239.6z"/>
			<path class="st0" d="M194.2,279.7c-3.4,0-6.5-1-8.7-2.9c-2.4-2-3.7-4.9-3.7-8.4v-0.1c0-3.8,1.4-6.9,4.2-8.9
				c2.5-1.8,6.1-2.8,10.3-2.8c3.1,0,5.4,0.5,7.3,1c-0.3-3-2.4-4.5-6.3-4.5c-2.3,0-4.4,0.3-6.3,0.9c-0.6,0.2-1.1,0.3-1.7,0.3
				c-2.7,0-4.9-2.1-4.9-4.8c0-2,1.3-3.9,3.2-4.6c3.3-1.3,6.8-1.8,11.1-1.8c5.3,0,9.3,1.4,12,4c2.6,2.6,3.9,6.4,3.9,11.4v15.3
				c0,3.1-2.4,5.5-5.6,5.5c-2.6,0-4.4-1.4-5.1-3.1C201.2,278.6,198.1,279.7,194.2,279.7z M196.2,258.6c-4.7,0-12.7,1.3-12.7,9.8v0.1
				c0,6.5,5.3,9.3,10.6,9.3c4,0,7-1.3,9.4-3.9l1.6-1.8v2.5c0,1.5,1.4,3,3.7,3c2.1,0,3.8-1.6,3.8-3.7v-15.3c0-4.4-1.2-7.8-3.4-10.1
				c-2.3-2.3-6-3.5-10.8-3.5c-4.1,0-7.4,0.5-10.5,1.7c-1.2,0.4-2,1.6-2,2.8c0,1.7,1.3,3,3.1,3c0.3,0,0.6,0,1.1-0.2h0.3
				c2.1-0.7,4.4-1,6.9-1c5.3,0,8.1,2.5,8.1,7.1v1.9l-1.2-0.4C202.1,259.2,199.8,258.6,196.2,258.6z M197,273.1c-3.7,0-6.1-2-6.1-5
				V268c0-3.5,2.8-5.6,7.5-5.6c2.3,0,4.6,0.5,6.5,1.3l0.5,0.2v2.3C205.4,270.3,201.9,273.1,197,273.1z M198.4,264.3
				c-2.1,0-5.7,0.5-5.7,3.7v0.1c0,2.3,2.2,3.2,4.3,3.2c3.9,0,6.5-2,6.5-5v-1.1C202,264.6,200.2,264.3,198.4,264.3z M198.9,242.1
				c-1.9,0-3.3-1-3.3-2.6c0-0.6,0.2-1.4,0.8-2.2l3.5-5.4c1-1.7,2.5-2.6,4.3-2.6c2.5,0,6.2,1.6,6.2,3.8c0,1.3-0.8,2.3-1.5,2.9
				l-3.9,3.6C202.9,241.7,201.1,242.1,198.9,242.1z M204.1,231.3c-1.2,0-2.1,0.6-2.8,1.7l-3.5,5.4c-0.4,0.7-0.5,1-0.5,1.2
				c0,0.5,0.7,0.7,1.5,0.7c1.9,0,3.2-0.3,4.8-1.8l3.9-3.6c0.7-0.6,1-1.1,1-1.6C208.5,232.6,206.3,231.3,204.1,231.3z"/>
		</g>
		<g>
			<path class="st0" d="M217.5,261.5v-0.1c0-9.7,7.4-17.7,17.8-17.7c5.1,0,8.7,1.4,11.6,3.8c0.7,0.5,1.7,1.8,1.5,3.7
				c-0.2,2-1.7,3.6-3.7,3.9c-1.6,0.2-2.8-0.4-3.5-0.9c-1.7-1.3-3.5-2.1-6-2.1c-4.8,0-8.2,4.2-8.2,9.2v0.1c0,5.2,3.4,9.4,8.6,9.4
				c2.5,0,4.5-0.9,6.3-2.3c0.5-0.4,1.5-0.9,2.6-0.9c2.3,0,4.1,1.8,4.1,4.1c0,1.3-0.6,2.3-1.4,3c-2.8,2.6-6.5,4.4-12,4.4
				C225,279.1,217.5,271.2,217.5,261.5z"/>
			<path class="st0" d="M235.3,280c-5.1,0-9.9-1.9-13.3-5.4c-3.4-3.4-5.3-8.1-5.3-13v-0.1c0-5,1.9-9.6,5.3-13.1
				c3.5-3.5,8.2-5.5,13.4-5.5c5.1,0,8.9,1.3,12.2,4c0.9,0.7,1.9,2.2,1.9,4c0,2.9-2.4,5.2-5.3,5.2c-1.6,0-2.8-0.7-3.3-1.1
				c-1.8-1.4-3.4-2-5.4-2c-4.1,0-7.3,3.6-7.3,8.3v0.1c0,5,3.2,8.4,7.7,8.4c2.1,0,3.9-0.7,5.7-2.1l0,0c0.4-0.3,1.6-1.1,3.2-1.1
				c2.8,0,5,2.2,5,5c0,1.4-0.6,2.7-1.7,3.7C244.5,278.5,240.5,280,235.3,280z M235.4,244.6c-9.6,0-16.9,7.2-16.9,16.8v0.1
				c0,9.5,7.2,16.7,16.8,16.7c4.8,0,8.3-1.3,11.4-4.1c0.7-0.7,1.1-1.5,1.1-2.4c0-1.8-1.4-3.2-3.1-3.2c-1,0-1.8,0.5-2,0.7
				c-2.2,1.7-4.4,2.5-6.9,2.5c-5.6,0-9.6-4.3-9.6-10.3v-0.1c0-5.7,4-10.2,9.2-10.2c2.5,0,4.5,0.7,6.6,2.4c0.4,0.3,1.1,0.8,2.2,0.8
				c1.9,0,3.4-1.5,3.4-3.4c0-1.5-1-2.4-1.2-2.6l0,0C243.5,245.8,240,244.6,235.4,244.6z"/>
		</g>
		<g>
			<path class="st0" d="M252.4,236.5c0-2.8,2.3-4.4,5.3-4.4c3,0,5.3,1.7,5.3,4.4v0.1c0,2.8-2.3,4.5-5.3,4.5c-3,0-5.3-1.7-5.3-4.5
				V236.5z M253,249c0-2.6,2.1-4.8,4.8-4.8c2.6,0,4.8,2.1,4.8,4.8v24.7c0,2.6-2.1,4.8-4.8,4.8c-2.6,0-4.8-2.1-4.8-4.8V249z"/>
			<path class="st0" d="M252,273.7v-24.6c0-2.9,2.1-5.4,5-5.8c3.5-0.4,6.4,2.3,6.4,5.6v24.8c0,3.4-3,6.1-6.4,5.6
				C254.1,279.1,252,276.5,252,273.7z M253.9,249.1v24.5c0,1.9,1.6,3.7,3.5,3.9c2.3,0.2,4.2-1.6,4.2-3.8V249c0-2.4-2.2-4.3-4.6-3.7
				C255.1,245.6,253.9,247.3,253.9,249.1z M257.7,242.1c-3.6,0-6.2-2.3-6.2-5.4v-0.1c0-3.2,2.6-5.4,6.2-5.4c3.7,0,6.2,2.2,6.2,5.4
				v0.1C264,239.8,261.3,242.1,257.7,242.1z M257.7,233c-2.2,0-4.4,1.1-4.4,3.5v0.1c0,2.5,2.2,3.6,4.4,3.6c2.2,0,4.4-1.1,4.4-3.6
				v-0.1C262.1,234.1,259.9,233,257.7,233z"/>
		</g>
		<g>
			<path class="st0" d="M269.6,236.8c0-2.6,2.1-4.8,4.8-4.8c2.6,0,4.8,2.1,4.8,4.8v36.9c0,2.6-2.1,4.8-4.8,4.8
				c-2.6,0-4.8-2.1-4.8-4.8V236.8z"/>
			<path class="st0" d="M268.6,273.7v-36.8c0-2.9,2.1-5.4,5-5.8c3.5-0.4,6.4,2.3,6.4,5.6v37c0,3.4-3,6.1-6.4,5.6
				C270.7,279.1,268.6,276.5,268.6,273.7z M270.5,236.9v36.6c0,2,1.7,3.9,3.7,3.9c2.2,0.1,3.9-1.7,3.9-3.8v-36.8
				c0-2.2-1.9-4-4.2-3.8C272,233.2,270.5,235,270.5,236.9z"/>
		</g>
	</g>
</g>
<g>
	<g>
		<g>
			<path class="st2" d="M527.9,53.7c0.2,7.6-5.9,13.9-13.4,13.9H431c-1.8,0-3.4,1.5-3.4,3.4v47c0,1.8,1.5,3.4,3.4,3.4h64.4
				c7.3,0,13.4,5.7,13.6,13c0.2,7.6-5.9,13.9-13.4,13.9H431c-1.8,0-3.4,1.5-3.4,3.4v46.9c0,7.3-5.7,13.4-13,13.6
				c-7.6,0.2-13.9-5.9-13.9-13.4V44.1c0-1.8,1.5-3.4,3.4-3.4h110.2C521.6,40.7,527.7,46.4,527.9,53.7z"/>
		</g>
		<g>
			<path class="st2" d="M568.2,53.5c0.4,30-23.8,54.4-53.8,54.4h-70c-1.8,0-3.4-1.5-3.4-3.4V83.9c0-1.6,1.3-2.9,2.9-2.9h72.8
				c8.5,0,16.3-4.5,20.5-11.9c11.6-20.8-3.2-41.8-22.8-41.8H390.3c-1.6,0-2.9,1.3-2.9,2.9v185.1c0,7.3-5.7,13.4-13,13.6
				c-7.6,0.2-13.9-5.9-13.9-13.4V3.7c0-1.8,1.5-3.4,3.4-3.4h150.2C543.3,0.4,567.9,24.3,568.2,53.5z"/>
		</g>
		<g>
			<path class="st2" d="M325.4,239.7c0-2.7,2.1-4.9,4.8-4.9h13.1c10.5,0,16.9,6.2,16.9,15.2v0.1c0,10.2-7.9,15.5-17.8,15.5h-7.4v8.8
				c0,2.8-2.4,5.1-5.2,4.9c-2.4-0.2-4.3-2.3-4.3-4.8L325.4,239.7L325.4,239.7z M342.7,257c4.8,0,7.7-2.9,7.7-6.7v-0.1
				c0-4.3-3-6.7-7.8-6.7h-7.5V257L342.7,257L342.7,257z"/>
			<path class="st2" d="M330.8,280.1c-3.5,0.3-6.4-2.3-6.4-5.7v-34.7c0-3.2,2.6-5.8,5.8-5.8h13.1c5.3,0,9.8,1.6,13,4.5
				c3.1,2.9,4.8,6.9,4.8,11.7v0.1c0,5.1-1.9,9.3-5.5,12.3c-3.3,2.7-7.9,4.1-13.1,4.1H336v7.7C336,277.3,333.8,279.8,330.8,280.1z
				 M330.2,235.8c-2.2,0-3.9,1.7-3.9,3.9v34.6c0,2,1.5,3.7,3.4,3.9c2.4,0.3,4.4-1.5,4.4-3.9v-9.7h8.2c10.2,0,16.8-5.7,16.8-14.5V250
				c0-8.7-6.2-14.3-15.9-14.3L330.2,235.8L330.2,235.8z M342.7,258h-8.6v-15.3h8.4c5.5,0,8.8,2.8,8.8,7.6v0.1
				C351.3,254.9,347.9,258,342.7,258z M336,256.1h6.7c4.1,0,6.7-2.2,6.7-5.7v-0.1c0-5-4.3-5.7-6.9-5.7H336V256.1L336,256.1z"/>
		</g>
		<g>
			<path class="st2" d="M379.3,279.5c-10.1,0-17.6-7.1-17.6-17.4V262c0-9.6,6.8-17.5,16.6-17.5c11.2,0,16.2,9.2,16.2,16.2
				c0,2.8-1.9,4.6-4.5,4.6h-18.9c0.9,4.3,4,6.6,8.2,6.6c2.6,0,4.8-0.8,6.8-2.3c0.7-0.5,1.3-0.7,2.3-0.7c2.1,0,3.7,1.6,3.7,3.8
				c0,1.3-0.6,2.2-1.3,2.8C388.1,278,384.2,279.5,379.3,279.5z M385.5,259.3c-0.6-4.3-3.1-7.1-7.1-7.1c-4,0-6.5,2.8-7.3,7.1H385.5z"
				/>
			<path class="st2" d="M379.3,280.5c-5.2,0-9.9-1.8-13.2-5.1c-3.4-3.3-5.3-8-5.3-13.2V262c0-5,1.7-9.6,4.9-13
				c3.2-3.5,7.7-5.5,12.7-5.5c6.8,0,10.8,3.2,13,5.8c2.6,3.1,4.1,7.3,4.1,11.3c0,3.2-2.3,5.5-5.4,5.5h-17.7c1.1,3.1,3.5,4.7,7,4.7
				c2.3,0,4.3-0.7,6.2-2.1c0.9-0.7,1.8-0.9,2.9-0.9c2.6,0,4.6,2,4.6,4.7c0,1.3-0.6,2.6-1.6,3.5l0,0
				C388.3,279,384.1,280.5,379.3,280.5z M378.4,245.4c-9,0-15.7,7.1-15.7,16.6v0.1c0,9.7,6.9,16.5,16.7,16.5c4.3,0,8-1.3,11.1-3.8
				c0.4-0.4,0.9-1.1,0.9-2.1c0-1.6-1.2-2.8-2.8-2.8c-0.8,0-1.3,0.2-1.8,0.6c-2.2,1.6-4.6,2.4-7.3,2.4c-4.8,0-8.1-2.7-9.1-7.3
				l-0.2-1.1h20c2.1,0,3.5-1.5,3.5-3.7C393.7,254.7,389.5,245.4,378.4,245.4z M386.6,260.2H370l0.2-1.1c0.9-5,3.9-7.9,8.2-7.9
				c4.3,0,7.4,3,8,8L386.6,260.2z M372.3,258.4h12.1c-0.8-3.4-2.9-5.3-6-5.3C375.4,253.1,373.2,255,372.3,258.4z"/>
		</g>
		<g>
			<path class="st2" d="M433.3,274.4c0,2.6-2.2,4.8-4.9,4.8c-2.7,0-4.9-2.1-4.9-4.8v-0.5c-2.3,3.1-5.5,5.4-10.5,5.4
				c-7.8,0-15.3-6.1-15.3-17.4v-0.1c0-11.2,7.3-17.4,15.3-17.4c5.1,0,8.2,2.3,10.5,5v-12.2c0-2.6,2.2-4.8,4.9-4.8
				c2.7,0,4.9,2.1,4.9,4.8V274.4z M407.3,261.9v0.1c0,5.6,3.8,9.3,8.2,9.3s8.2-3.7,8.2-9.3v-0.1c0-5.6-3.7-9.3-8.2-9.3
				S407.3,256.2,407.3,261.9z"/>
			<path class="st2" d="M413.3,280.3c-8.1,0-16.2-6.3-16.2-18.3v-0.2c0-5.5,1.7-10.2,4.9-13.5c2.9-3.1,7-4.8,11.3-4.8
				c3.7,0,6.9,1.2,9.5,3.6l0-9.8c0-2.9,2.1-5.4,5-5.8c3.5-0.4,6.4,2.3,6.4,5.6v36.9c0,3-2.3,5.6-5.4,5.8c-2.7,0.2-5-1.5-5.7-3.9
				C420.4,279,417.2,280.3,413.3,280.3z M413.3,245.5c-6.9,0-14.4,5.1-14.4,16.4v0.1c0,10.8,7.2,16.4,14.4,16.4
				c4.1,0,7.2-1.6,9.7-5.1l1.7-2.3v3.1c0,2.2,1.8,4,3.9,3.9c2.1,0,3.7-1.7,3.7-3.8v-36.7c0-2.2-1.8-4-3.9-3.9
				c-2.1,0-3.7,1.7-3.7,3.8v14.7l-1.6-2C420.4,247,417.2,245.5,413.3,245.5z M415.6,272.3c-5.2,0-9.2-4.4-9.2-10.2v-0.1
				c0-2.9,1-5.5,2.7-7.4c1.7-1.8,4-2.8,6.5-2.8c5.2,0,9.1,4.4,9.1,10.2v0.1C424.7,267.9,420.7,272.3,415.6,272.3z M415.6,253.5
				c-4.2,0-7.3,3.5-7.3,8.4v0.1c0,4.8,3.1,8.4,7.3,8.4c4.2,0,7.2-3.5,7.2-8.4v-0.1C422.8,257,419.8,253.5,415.6,253.5z"/>
		</g>
		<g>
			<path class="st2" d="M439.6,249.6c0-2.5,1.9-4.6,4.4-4.7c2.8-0.2,5.1,2.1,5.1,4.9v24.6c0,2.5-1.9,4.6-4.4,4.7
				c-2.8,0.2-5.1-2.1-5.1-4.9V249.6z M441.8,240.2c0-0.6,0.3-1.2,0.6-1.7l3.5-5.4c0.8-1.3,2-2.1,3.6-2.1c2.3,0,5.3,1.4,5.3,2.9
				c0,0.9-0.5,1.6-1.3,2.3l-3.9,3.6c-1.8,1.7-3.3,2.1-5.5,2.1C442.8,241.8,441.8,241.2,441.8,240.2z"/>
			<path class="st2" d="M438.7,274.3v-24.6c0-2.9,2.1-5.4,5-5.8c3.5-0.4,6.4,2.3,6.4,5.6v24.8c0,3.4-3,6.1-6.4,5.6
				C440.8,279.7,438.7,277.2,438.7,274.3z M440.5,249.7v24.6c0,1.9,1.6,3.7,3.5,3.9c2.3,0.2,4.2-1.6,4.2-3.8v-24.7
				c0-2.4-2.2-4.3-4.6-3.7C441.8,246.2,440.5,247.9,440.5,249.7z M444.2,242.7c-1.9,0-3.3-1-3.3-2.6c0-0.6,0.2-1.4,0.8-2.2l3.5-5.4
				c1-1.7,2.5-2.6,4.3-2.6c2.5,0,6.3,1.6,6.3,3.8c0,1.3-0.8,2.3-1.5,2.9l-3.9,3.6C448.2,242.3,446.4,242.7,444.2,242.7z
				 M449.5,231.9c-1.2,0-2.1,0.6-2.8,1.7l-3.5,5.4c-0.4,0.7-0.5,1-0.5,1.2c0,0.5,0.7,0.7,1.5,0.7c1.9,0,3.2-0.3,4.8-1.8l3.9-3.6
				c0.7-0.6,1-1.1,1-1.6C453.9,233.2,451.7,231.9,449.5,231.9z"/>
		</g>
		<g>
			<path class="st2" d="M473,239.7c0-2.7,2.1-4.9,4.9-4.9h24.5c2.3,0,4.3,1.7,4.5,4c0.2,2.6-1.8,4.7-4.4,4.7h-19.8v9.3h16.9
				c2.3,0,4.3,1.7,4.5,4c0.2,2.6-1.8,4.7-4.4,4.7h-16.9v12.7c0,2.5-1.9,4.7-4.4,4.9c-2.9,0.3-5.3-1.9-5.3-4.8L473,239.7L473,239.7z"
				/>
			<path class="st2" d="M478.2,280c-3.4,0.2-6.1-2.4-6.1-5.8v-34.9c0-3,2.4-5.5,5.5-5.5h25.2c2.3,0,4.3,1.5,4.9,3.7
				c1,3.7-1.6,6.9-5.1,6.9h-18.9v7.5h16c2.8,0,5.3,2.2,5.4,5c0.1,3.1-2.2,5.6-5.3,5.6h-16.1v11.5C483.7,277.3,481.3,279.9,478.2,280
				z M477.9,235.8c-2.2,0-3.9,1.7-3.9,3.9v34.4c0,2.1,1.6,3.8,3.6,4c2.3,0.2,4.2-1.6,4.2-3.9v-13.4h17.9c2,0,3.6-1.6,3.5-3.6
				c-0.1-1.9-1.6-3.3-3.5-3.3h-17.9v-11.2h20.7c2,0,3.6-1.6,3.5-3.6c-0.1-1.9-1.6-3.3-3.5-3.3L477.9,235.8L477.9,235.8z"/>
		</g>
		<g>
			<path class="st2" d="M507.2,269.1V269c0-7.3,5.6-10.7,13.5-10.7c3.4,0,5.8,0.6,8.2,1.4v-0.6c0-3.9-2.4-6.1-7.2-6.1
				c-2.6,0-4.8,0.4-6.6,0.9c-0.6,0.2-0.9,0.2-1.4,0.2c-2.2,0-3.9-1.7-3.9-3.9c0-1.7,1.1-3.1,2.6-3.7c3-1.1,6.3-1.8,10.7-1.8
				c5.2,0,9,1.4,11.3,3.8c2.5,2.5,3.6,6.2,3.6,10.7v15.2c0,2.6-2.1,4.7-4.6,4.7c-2.7,0-4.5-1.9-4.5-3.9v-0.1
				c-2.3,2.6-5.5,4.3-10.1,4.3C512.4,279.4,507.2,275.8,507.2,269.1z M529,266.9v-1.7c-1.6-0.7-3.8-1.3-6.1-1.3
				c-4.1,0-6.6,1.6-6.6,4.7v0.1c0,2.6,2.1,4.1,5.2,4.1C526,272.8,529,270.4,529,266.9z M520.9,240.2c0-0.6,0.3-1.2,0.6-1.7l3.5-5.4
				c0.8-1.3,2-2.1,3.6-2.1c2.3,0,5.3,1.4,5.3,2.9c0,0.9-0.5,1.6-1.3,2.3l-3.9,3.6c-1.8,1.7-3.3,2.1-5.5,2.1
				C521.9,241.8,520.9,241.2,520.9,240.2z"/>
			<path class="st2" d="M518.5,280.4c-3.4,0-6.5-1-8.7-2.9c-2.4-2-3.7-4.9-3.7-8.4V269c0-3.8,1.4-6.9,4.2-8.9
				c2.5-1.8,6.1-2.8,10.3-2.8c3.1,0,5.4,0.5,7.3,1c-0.3-3-2.4-4.5-6.3-4.5c-2.3,0-4.4,0.3-6.3,0.9c-0.6,0.2-1.1,0.3-1.7,0.3
				c-2.7,0-4.9-2.1-4.9-4.8c0-2,1.3-3.9,3.2-4.6c3.3-1.3,6.8-1.8,11.1-1.8c5.3,0,9.3,1.4,12,4c2.6,2.6,3.9,6.4,3.9,11.4v15.3
				c0,3.1-2.4,5.5-5.6,5.5c-2.6,0-4.4-1.4-5.1-3.1C525.6,279.3,522.4,280.4,518.5,280.4z M520.7,259.1c-4.7,0-12.6,1.3-12.6,9.8v0.2
				c0,6.5,5.3,9.3,10.6,9.3c4,0,7.1-1.3,9.5-3.9l1.6-1.8v2.4c0,1.5,1.4,3,3.6,3c2.1,0,3.7-1.6,3.7-3.7v-15.3c0-4.4-1.1-7.8-3.3-10.1
				c-2.3-2.3-5.8-3.5-10.6-3.5c-4,0-7.2,0.5-10.3,1.7c-1.2,0.4-2,1.6-2,2.8c0,1.7,1.3,3,3,3c0.3,0,0.6,0,1.1-0.2h-0.1
				c2.1-0.7,4.3-1,6.8-1c5.2,0,8.1,2.5,8.1,7.1v1.9l-1.2-0.4C526.5,259.8,524.2,259.1,520.7,259.1z M521.5,273.8c-3.7,0-6.1-2-6.1-5
				v-0.1c0-3.5,2.8-5.6,7.5-5.6c2.3,0,4.6,0.5,6.5,1.3l0.5,0.2v2.3C530,270.9,526.5,273.8,521.5,273.8z M522.9,264.9
				c-2.1,0-5.7,0.5-5.7,3.7v0.1c0,2.3,2.2,3.2,4.3,3.2c3.9,0,6.5-2,6.5-5v-1.1C526.6,265.2,524.8,264.9,522.9,264.9z M523.3,242.7
				c-1.9,0-3.3-1-3.3-2.6c0-0.6,0.2-1.4,0.8-2.2l3.5-5.4c1-1.7,2.5-2.6,4.3-2.6c2.5,0,6.3,1.6,6.3,3.8c0,1.3-0.8,2.3-1.5,2.9
				l-3.9,3.6C527.3,242.3,525.5,242.7,523.3,242.7z M528.5,231.9c-1.2,0-2.1,0.6-2.8,1.7l-3.5,5.4c-0.4,0.7-0.5,1-0.5,1.2
				c0,0.5,0.7,0.7,1.5,0.7c1.9,0,3.2-0.3,4.8-1.8l3.9-3.6c0.7-0.6,1-1.1,1-1.6C533,233.2,530.8,231.9,528.5,231.9z"/>
		</g>
		<g>
			<path class="st2" d="M542.1,262.2V262c0-9.7,7.4-17.7,17.8-17.7c5.1,0,8.7,1.4,11.6,3.8c0.7,0.5,1.7,1.8,1.5,3.7
				c-0.2,2-1.7,3.6-3.7,3.9c-1.6,0.2-2.8-0.4-3.5-0.9c-1.7-1.3-3.5-2.1-6-2.1c-4.8,0-8.2,4.2-8.2,9.3v0.1c0,5.2,3.4,9.4,8.6,9.4
				c2.5,0,4.5-0.9,6.3-2.3c0.5-0.4,1.5-0.9,2.6-0.9c2.3,0,4.1,1.8,4.1,4.1c0,1.3-0.6,2.3-1.4,3c-2.8,2.6-6.5,4.4-12,4.4
				C549.6,279.7,542.1,271.8,542.1,262.2z"/>
			<path class="st2" d="M559.7,280.6c-5.1,0-9.9-1.9-13.3-5.4c-3.4-3.4-5.3-8.1-5.3-13V262c0-5,1.9-9.7,5.3-13.1
				c3.5-3.5,8.2-5.5,13.5-5.5c5.1,0,8.9,1.3,12.2,4c0.9,0.7,1.9,2.2,1.9,4c0,2.9-2.4,5.2-5.3,5.2c-1.6,0-2.8-0.7-3.4-1.1
				c-1.8-1.4-3.4-2-5.4-2c-4.1,0-7.3,3.7-7.3,8.3v0.1c0,5,3.2,8.4,7.7,8.4c2.1,0,3.9-0.7,5.7-2.1l0,0c0.4-0.3,1.6-1.1,3.2-1.1
				c2.8,0,5,2.2,5,5c0,1.4-0.6,2.7-1.7,3.7C568.9,279.2,564.9,280.6,559.7,280.6z M559.9,245.2c-9.6,0-16.9,7.2-16.9,16.8v0.1
				c0,9.5,7.2,16.7,16.8,16.7c4.8,0,8.3-1.3,11.4-4.1c0.7-0.7,1.1-1.5,1.1-2.4c0-1.8-1.4-3.2-3.1-3.2c-1,0-1.8,0.5-2,0.7
				c-2.2,1.7-4.4,2.6-6.9,2.6c-5.6,0-9.6-4.3-9.6-10.3v-0.1c0-5.7,4-10.2,9.2-10.2c2.5,0,4.5,0.7,6.6,2.4c0.4,0.3,1.1,0.8,2.2,0.8
				c1.9,0,3.4-1.5,3.4-3.4c0-1.5-1-2.4-1.2-2.6l0,0C568.1,246.4,564.5,245.2,559.9,245.2z"/>
		</g>
		<g>
			<path class="st2" d="M577,237.1c0-2.8,2.3-4.4,5.3-4.4c3,0,5.3,1.7,5.3,4.4v0.1c0,2.8-2.3,4.5-5.3,4.5c-3,0-5.3-1.7-5.3-4.5
				V237.1z M577.6,249.6c0-2.6,2.1-4.8,4.8-4.8c2.6,0,4.8,2.1,4.8,4.8v24.7c0,2.6-2.1,4.8-4.8,4.8c-2.6,0-4.8-2.1-4.8-4.8V249.6z"/>
			<path class="st2" d="M576.6,274.3v-24.6c0-2.9,2.1-5.4,5-5.8c3.5-0.4,6.4,2.3,6.4,5.6v24.8c0,3.4-3,6.1-6.4,5.6
				C578.7,279.7,576.6,277.2,576.6,274.3z M578.5,249.7v24.6c0,1.9,1.6,3.7,3.5,3.9c2.3,0.2,4.2-1.6,4.2-3.8v-24.7
				c0-2.4-2.2-4.3-4.6-3.7C579.7,246.2,578.5,247.9,578.5,249.7z M582.3,242.7c-3.6,0-6.3-2.3-6.3-5.5v-0.1c0-3.2,2.6-5.4,6.3-5.4
				c3.7,0,6.3,2.2,6.3,5.4v0.1C588.6,240.4,585.9,242.7,582.3,242.7z M582.3,233.6c-2.2,0-4.4,1.1-4.4,3.5v0.1
				c0,2.5,2.2,3.6,4.4,3.6c2.2,0,4.4-1.1,4.4-3.6v-0.1C586.7,234.7,584.5,233.6,582.3,233.6z"/>
		</g>
		<g>
			<path class="st2" d="M594,237.4c0-2.6,2.1-4.8,4.8-4.8c2.6,0,4.8,2.1,4.8,4.8v36.9c0,2.6-2.1,4.8-4.8,4.8c-2.6,0-4.8-2.1-4.8-4.8
				V237.4z"/>
			<path class="st2" d="M593.1,274.3v-36.8c0-2.9,2.1-5.4,5-5.8c3.5-0.4,6.4,2.3,6.4,5.6v37c0,3.4-3,6.1-6.4,5.6
				C595.2,279.7,593.1,277.2,593.1,274.3z M594.9,237.5v36.7c0,2,1.7,3.9,3.7,3.9c2.2,0.1,3.9-1.7,3.9-3.8v-36.9
				c0-2.2-1.9-4-4.2-3.8C596.4,233.8,594.9,235.6,594.9,237.5z"/>
		</g>
	</g>
</g>
<image style="overflow:visible;" width="3136" height="3136" xlink:href="logoWhiteReadme.png"  transform="matrix(8.928572e-02 0 0 8.928572e-02 633 0)">
</image>
</svg>
