<?xml version="1.0" encoding="utf-8"?>
<!-- Generator: Adobe Illustrator 24.1.1, SVG Export Plug-In . SVG Version: 6.00 Build 0)  -->
<svg version="1.1" id="Capa_1" xmlns="http://www.w3.org/2000/svg" xmlns:xlink="http://www.w3.org/1999/xlink" x="0px" y="0px"
	 viewBox="0 0 913 283.2" style="enable-background:new 0 0 913 283.2;" xml:space="preserve">
<style type="text/css">
	.st0{fill:#4285F4;}
	.st1{fill:#073042;}
	.st2{fill:#313A46;}
	.st3{fill:#F9FBFE;}
</style>
<g>
	<g>
		<g>
			<path class="st0" d="M206.1,53.9c0.2,7.7-6,14-13.5,14h-84.3c-1.8,0-3.4,1.5-3.4,3.4v47.5c0,1.8,1.5,3.4,3.4,3.4h65.1
				c7.4,0,13.5,5.8,13.7,13.1c0.2,7.7-6,14-13.5,14h-65.2c-1.8,0-3.4,1.5-3.4,3.4v47.2c0,7.4-5.8,13.5-13.1,13.7
				c-7.7,0.2-14-6-14-13.5V44.2c0-1.8,1.5-3.4,3.4-3.4h111.3C199.7,40.7,205.9,46.5,206.1,53.9z"/>
		</g>
		<g>
			<path class="st1" d="M246.8,53.7c0.4,30.3-24.1,55-54.3,55h-70.7c-1.8,0-3.4-1.5-3.4-3.4V84.4c0-1.6,1.3-2.9,2.9-2.9h73.5
				c8.6,0,16.5-4.5,20.7-12c11.7-20.9-3.2-42.2-23-42.2H67.1c-1.6,0-2.9,1.3-2.9,2.9v187c0,7.4-5.8,13.5-13.1,13.7
				c-7.7,0.2-14-6-14-13.5V3.4C37,1.6,38.5,0,40.4,0h151.7C221.7,0,246.5,24.2,246.8,53.7z"/>
		</g>
		<g>
			<path class="st1" d="M1.4,241.8c0-2.7,2.1-5,5-5h13.2c10.6,0,17.1,6.3,17.1,15.4v0.1c0,10.3-8,15.6-18,15.6h-7.5v8.9
				c0,2.5-1.9,4.8-4.4,5c-2.9,0.3-5.4-1.9-5.4-4.9L1.4,241.8L1.4,241.8z M18.9,259c4.9,0,7.7-2.9,7.7-6.8v-0.1c0-4.3-3-6.8-7.9-6.8
				h-7.6v13.5L18.9,259L18.9,259z"/>
			<path class="st1" d="M6.9,282.4c-3.5,0.3-6.5-2.3-6.5-5.8v-35.1c0-3.2,2.6-5.9,5.9-5.9h13.3c5.4,0,9.9,1.6,13.1,4.5
				c3.1,2.9,4.9,7,4.9,11.8v0.1c0,5.2-1.9,9.4-5.6,12.4c-3.4,2.7-8,4.1-13.3,4.1h-6.5v7.8C12.1,279.5,9.8,282.1,6.9,282.4z
				 M6.3,237.7c-2.2,0-3.9,1.7-3.9,3.9v35c0,2,1.5,3.7,3.4,3.9c2.4,0.3,4.4-1.5,4.4-3.9v-9.7h8.4c10.4,0,17.1-5.8,17.1-14.7v-0.1
				c0-8.8-6.4-14.5-16.1-14.5L6.3,237.7L6.3,237.7z M18.9,260.1h-8.7v-15.5h8.5c5.6,0,8.9,2.8,8.9,7.7v0.1
				C27.6,256.9,24.1,260.1,18.9,260.1z M12.1,258.1h6.8c4.1,0,6.8-2.2,6.8-5.8v-0.1c0-5.1-4.3-5.8-7-5.8h-6.6V258.1L12.1,258.1z"/>
		</g>
		<g>
			<path class="st1" d="M56.1,282c-10.2,0-17.8-7.2-17.8-17.6v-0.1c0-9.7,6.9-17.7,16.8-17.7c11.3,0,16.4,9.3,16.4,16.4
				c0,2.8-1.9,4.6-4.5,4.6H48c0.9,4.3,4,6.7,8.3,6.7c2.6,0,4.9-0.8,6.9-2.3c0.7-0.5,1.3-0.7,2.3-0.7c2.1,0,3.7,1.6,3.7,3.8
				c0,1.2-0.6,2.2-1.2,2.8C64.9,280.4,61.1,282,56.1,282z M62.3,261.5c-0.6-4.3-3.1-7.2-7.2-7.2s-6.6,2.8-7.4,7.2H62.3z"/>
			<path class="st1" d="M56.1,282.9c-5.3,0-9.9-1.8-13.3-5.2c-3.4-3.3-5.4-8.1-5.4-13.3v-0.1c0-5.1,1.7-9.7,5-13.1
				c3.2-3.5,7.8-5.5,12.8-5.5c6.9,0,10.9,3.2,13.1,5.9c2.6,3.1,4.1,7.4,4.1,11.4c0,3.2-2.3,5.6-5.5,5.6H49.1
				c1.1,3.1,3.5,4.8,7.1,4.8c2.3,0,4.3-0.7,6.3-2.1c0.9-0.7,1.8-0.9,2.9-0.9c2.6,0,4.6,2,4.6,4.8c0,1.3-0.6,2.6-1.6,3.5l0,0
				C65.1,281.4,61,282.9,56.1,282.9z M55.1,247.4c-9.1,0-15.9,7.2-15.9,16.8v0.1c0,9.8,6.9,16.7,16.8,16.7c4.3,0,8.1-1.3,11.2-3.8
				c0.4-0.4,0.9-1.1,0.9-2.1c0-1.6-1.2-2.8-2.8-2.8c-0.8,0-1.3,0.2-1.8,0.6c-2.2,1.6-4.6,2.4-7.4,2.4c-4.9,0-8.2-2.7-9.2-7.4
				l-0.2-1.1h20.2c2.1,0,3.5-1.5,3.5-3.7C70.6,256.9,66.3,247.4,55.1,247.4z M63.3,262.5H46.6l0.2-1.1c0.9-5.1,3.9-8,8.3-8
				s7.4,3,8.1,8L63.3,262.5z M48.9,260.6h12.2c-0.8-3.4-2.9-5.4-6.1-5.4C52.1,255.2,49.8,257.1,48.9,260.6z"/>
		</g>
		<g>
			<path class="st1" d="M110.4,276.6c0,2.6-2.1,4.9-4.9,4.9c-2.6,0-4.9-2.1-4.9-4.9v-0.4c-2.3,3.1-5.6,5.5-10.6,5.5
				c-7.9,0-15.5-6.2-15.5-17.6V264c0-11.3,7.4-17.6,15.5-17.6c5.2,0,8.3,2.3,10.6,5.1v-12.2c0-2.6,2.1-4.9,4.9-4.9
				c2.6,0,4.9,2.1,4.9,4.9V276.6z M84.3,264.1v0.1c0,5.7,3.8,9.4,8.3,9.4s8.3-3.7,8.3-9.4v-0.1c0-5.7-3.7-9.4-8.3-9.4
				C88,254.7,84.3,258.3,84.3,264.1z"/>
			<path class="st1" d="M90.2,282.7c-8.2,0-16.4-6.4-16.4-18.5V264c0-5.6,1.7-10.3,5-13.6c2.9-3.1,7.1-4.8,11.4-4.8
				c3.7,0,7,1.2,9.6,3.6v-9.8c0-2.9,2.1-5.5,5.1-5.9c3.5-0.4,6.5,2.3,6.5,5.7v37.3c0,3-2.3,5.7-5.5,5.9c-2.7,0.2-5.1-1.5-5.8-3.9
				C97.3,281.3,94.1,282.7,90.2,282.7z M90.3,247.4c-7.1,0-14.7,5.3-14.7,16.7v0.1c0,11,7.4,16.7,14.7,16.7c4.1,0,7.3-1.6,9.9-5.2
				l1.7-2.3v3c0,2.2,1.8,4,3.9,3.9c2.1,0,3.7-1.7,3.7-3.8v-37c0-2.2-1.8-4-3.9-3.9c-2.1,0-3.7,1.7-3.7,3.8v14.8l-1.6-2
				C97.4,248.9,94.3,247.4,90.3,247.4z M92.7,274.5c-5.3,0-9.3-4.4-9.3-10.3v-0.1c0-2.9,1-5.6,2.7-7.5c1.7-1.8,4-2.8,6.6-2.8
				c5.3,0,9.2,4.4,9.2,10.3v0.1C101.9,270.1,97.9,274.5,92.7,274.5z M92.7,255.6c-4.2,0-7.4,3.5-7.4,8.5v0.1c0,4.9,3.1,8.5,7.4,8.5
				c4.2,0,7.3-3.5,7.3-8.5v-0.1C100,259.1,96.9,255.6,92.7,255.6z"/>
		</g>
		<g>
			<path class="st1" d="M117,251.7c0-2.5,1.9-4.6,4.4-4.8c2.8-0.2,5.2,2.1,5.2,5v24.9c0,2.5-1.9,4.6-4.4,4.8c-2.8,0.2-5.2-2.1-5.2-5
				V251.7z M119.1,242.2c0-0.6,0.3-1.2,0.6-1.7l3.5-5.5c0.8-1.3,2-2.1,3.6-2.1c2.3,0,5.4,1.4,5.4,2.9c0,0.9-0.5,1.6-1.2,2.3
				l-3.9,3.6c-1.8,1.7-3.3,2.1-5.6,2.1C120.1,243.8,119.1,243.2,119.1,242.2z"/>
			<path class="st1" d="M116,276.6v-24.9c0-2.9,2.1-5.5,5.1-5.9c3.5-0.4,6.5,2.3,6.5,5.7v25.1c0,3.4-3,6.2-6.5,5.7
				C118.2,282.1,116,279.5,116,276.6z M117.9,251.8v24.8c0,1.9,1.6,3.7,3.5,3.9c2.3,0.2,4.2-1.6,4.2-3.8v-25c0-2.4-2.2-4.3-4.6-3.7
				C119.2,248.2,117.9,249.9,117.9,251.8z M121.5,244.7c-1.9,0-3.3-1-3.3-2.6c0-0.6,0.2-1.4,0.8-2.2l3.5-5.5c1-1.7,2.5-2.6,4.3-2.6
				c2.5,0,6.3,1.6,6.3,3.8c0,1.3-0.8,2.3-1.5,2.9l-3.9,3.6C125.5,244.3,123.8,244.7,121.5,244.7z M126.9,233.8
				c-1.2,0-2.1,0.6-2.8,1.7l-3.5,5.5c-0.4,0.7-0.5,1-0.5,1.2c0,0.5,0.7,0.7,1.5,0.7c1.9,0,3.2-0.3,4.9-1.8l3.9-3.6
				c0.7-0.6,1-1.1,1-1.6C131.3,235.1,129.1,233.8,126.9,233.8z"/>
		</g>
		<g>
			<path class="st0" d="M150.5,241.8c0-2.7,2.1-5,5-5h24.8c2.3,0,4.3,1.7,4.5,4c0.2,2.6-1.8,4.8-4.4,4.8h-20v9.4h17
				c2.3,0,4.3,1.7,4.5,4c0.2,2.6-1.8,4.8-4.4,4.8h-17.1v12.7c0,2.5-1.9,4.8-4.4,5c-2.9,0.3-5.4-1.9-5.4-4.9L150.5,241.8L150.5,241.8
				z"/>
			<path class="st0" d="M155.8,282.5c-3.4,0.2-6.2-2.4-6.2-5.9v-35.3c0-3,2.4-5.6,5.6-5.6h25.5c2.3,0,4.3,1.5,5,3.7
				c1,3.7-1.6,7-5.2,7h-19.1v7.6h16.2c2.8,0,5.4,2.2,5.5,5.1c0.1,3.1-2.2,5.7-5.4,5.7h-16.3v11.6
				C161.2,279.7,158.9,282.3,155.8,282.5z M155.4,237.8c-2.2,0-3.9,1.7-3.9,3.9v34.8c0,2.1,1.6,3.8,3.6,4c2.3,0.2,4.2-1.6,4.2-3.9
				v-13.5h18.1c2,0,3.6-1.6,3.5-3.6c-0.1-1.9-1.6-3.3-3.5-3.3h-18.1v-11.3h21c2,0,3.6-1.6,3.5-3.6c-0.1-1.9-1.6-3.3-3.5-3.3h-24.9
				V237.8z"/>
		</g>
		<g>
			<path class="st0" d="M185,271.4L185,271.4c0-7.5,5.7-10.9,13.7-10.9c3.4,0,6,0.6,8.3,1.4v-0.6c0-3.9-2.4-6.2-7.3-6.2
				c-2.6,0-4.9,0.4-6.7,0.9c-0.6,0.2-0.9,0.2-1.4,0.2c-2.2,0-3.9-1.7-3.9-3.9c0-1.7,1.1-3.1,2.6-3.7c3-1.1,6.4-1.7,10.8-1.7
				c5.3,0,9.1,1.4,11.4,3.8c2.5,2.5,3.6,6.3,3.6,10.8v15.4c0,2.6-2.1,4.8-4.6,4.8c-2.7,0-4.5-1.9-4.5-3.9v-0.1
				c-2.3,2.6-5.7,4.3-10.3,4.3C190.3,281.8,185,278,185,271.4z M207.2,269.2v-1.7c-1.6-0.7-3.8-1.3-6.2-1.3c-4.1,0-6.7,1.6-6.7,4.8
				v0.1c0,2.6,2.1,4.1,5.3,4.1C204.2,275.1,207.2,272.6,207.2,269.2z M199,242.2c0-0.6,0.3-1.2,0.6-1.7l3.5-5.5
				c0.8-1.3,2-2.1,3.6-2.1c2.3,0,5.4,1.4,5.4,2.9c0,0.9-0.5,1.6-1.2,2.3l-3.9,3.6c-1.8,1.7-3.3,2.1-5.5,2.1
				C200,243.8,199,243.2,199,242.2z"/>
			<path class="st0" d="M196.7,282.7c-3.4,0-6.6-1-8.8-2.9c-2.4-2-3.7-5-3.7-8.5v-0.1c0-3.8,1.4-7,4.2-9c2.5-1.8,6.2-2.8,10.4-2.8
				c3.1,0,5.5,0.5,7.4,1c-0.3-3-2.4-4.5-6.4-4.5c-2.3,0-4.4,0.3-6.4,0.9c-0.6,0.2-1.1,0.3-1.7,0.3c-2.7,0-5-2.1-5-4.9
				c0-2,1.3-3.9,3.2-4.6c3.3-1.3,6.9-1.8,11.2-1.8c5.4,0,9.4,1.4,12.1,4c2.6,2.6,3.9,6.5,3.9,11.5v15.5c0,3.1-2.4,5.6-5.7,5.6
				c-2.6,0-4.4-1.4-5.2-3.1C203.8,281.6,200.6,282.7,196.7,282.7z M198.7,261.4c-4.8,0-12.8,1.3-12.8,9.9v0.1
				c0,6.6,5.4,9.4,10.7,9.4c4,0,7.1-1.3,9.5-3.9l1.6-1.8v2.5c0,1.5,1.4,3,3.7,3c2.1,0,3.8-1.6,3.8-3.7v-15.5c0-4.4-1.2-7.9-3.4-10.2
				c-2.3-2.3-6.1-3.5-10.9-3.5c-4.1,0-7.5,0.5-10.6,1.7c-1.2,0.4-2,1.6-2,2.8c0,1.7,1.3,3,3.1,3c0.3,0,0.6,0,1.1-0.2h0.3
				c2.1-0.7,4.4-1,7-1c5.4,0,8.2,2.5,8.2,7.2v1.9l-1.2-0.4C204.7,262,202.4,261.4,198.7,261.4z M199.5,276c-3.7,0-6.2-2-6.2-5.1
				v-0.1c0-3.5,2.8-5.7,7.6-5.7c2.3,0,4.6,0.5,6.6,1.3l0.5,0.2v2.3C208,273.2,204.5,276,199.5,276z M200.9,267.1
				c-2.1,0-5.8,0.5-5.8,3.7v0.1c0,2.3,2.2,3.2,4.3,3.2c3.9,0,6.6-2,6.6-5.1v-1C204.6,267.4,202.8,267.1,200.9,267.1z M201.5,244.7
				c-1.9,0-3.3-1-3.3-2.6c0-0.6,0.2-1.4,0.8-2.2l3.5-5.5c1-1.7,2.5-2.6,4.3-2.6c2.5,0,6.3,1.6,6.3,3.8c0,1.3-0.8,2.3-1.5,2.9
				l-3.9,3.6C205.5,244.3,203.7,244.7,201.5,244.7z M206.7,233.8c-1.2,0-2.1,0.6-2.8,1.7l-3.5,5.5c-0.4,0.7-0.5,1-0.5,1.2
				c0,0.5,0.7,0.7,1.5,0.7c1.9,0,3.2-0.3,4.9-1.8l3.9-3.6c0.7-0.6,1-1.1,1-1.6C211.2,235.1,208.9,233.8,206.7,233.8z"/>
		</g>
		<g>
			<path class="st0" d="M220.3,264.3v-0.1c0-9.8,7.5-17.9,18-17.9c5.2,0,8.8,1.4,11.7,3.8c0.7,0.5,1.7,1.8,1.5,3.7
				c-0.2,2-1.7,3.6-3.7,3.9c-1.6,0.2-2.8-0.4-3.5-0.9c-1.7-1.3-3.5-2.1-6.1-2.1c-4.9,0-8.3,4.2-8.3,9.3v0.1c0,5.3,3.4,9.5,8.7,9.5
				c2.5,0,4.5-0.9,6.4-2.3c0.5-0.4,1.5-0.9,2.6-0.9c2.3,0,4.1,1.8,4.1,4.1c0,1.3-0.6,2.3-1.4,3c-2.8,2.6-6.6,4.4-12.1,4.4
				C227.8,282.1,220.3,274.1,220.3,264.3z"/>
			<path class="st0" d="M238.2,283c-5.2,0-10-1.9-13.4-5.5c-3.4-3.4-5.4-8.2-5.4-13.1v-0.1c0-5.1,1.9-9.7,5.4-13.2s8.3-5.6,13.5-5.6
				s9,1.3,12.3,4c0.9,0.7,1.9,2.2,1.9,4c0,2.9-2.4,5.3-5.4,5.3c-1.6,0-2.8-0.7-3.3-1.1c-1.8-1.4-3.4-2-5.5-2c-4.1,0-7.4,3.6-7.4,8.4
				v0.1c0,5.1,3.2,8.5,7.8,8.5c2.1,0,3.9-0.7,5.8-2.1l0,0c0.4-0.3,1.6-1.1,3.2-1.1c2.8,0,5.1,2.2,5.1,5.1c0,1.4-0.6,2.7-1.7,3.7
				C247.5,281.5,243.5,283,238.2,283z M238.3,247.2c-9.7,0-17.1,7.3-17.1,17v0.1c0,9.6,7.3,16.9,17,16.9c4.9,0,8.4-1.3,11.5-4.1
				c0.7-0.7,1.1-1.5,1.1-2.4c0-1.8-1.4-3.2-3.1-3.2c-1,0-1.8,0.5-2,0.7c-2.2,1.7-4.4,2.5-7,2.5c-5.7,0-9.7-4.3-9.7-10.4v-0.1
				c0-5.8,4-10.3,9.3-10.3c2.5,0,4.5,0.7,6.7,2.4c0.4,0.3,1.1,0.8,2.2,0.8c1.9,0,3.4-1.5,3.4-3.4c0-1.5-1-2.4-1.2-2.6l0,0
				C246.5,248.4,243,247.2,238.3,247.2z"/>
		</g>
		<g>
			<path class="st0" d="M255.5,239c0-2.8,2.3-4.4,5.4-4.4s5.4,1.7,5.4,4.4v0.1c0,2.8-2.3,4.5-5.4,4.5s-5.4-1.7-5.4-4.5V239
				L255.5,239z M256.1,251.7c0-2.6,2.1-4.9,4.9-4.9c2.6,0,4.9,2.1,4.9,4.9v25c0,2.6-2.1,4.9-4.9,4.9c-2.6,0-4.9-2.1-4.9-4.9V251.7
				L256.1,251.7z"/>
			<path class="st0" d="M255.1,276.6v-24.9c0-2.9,2.1-5.5,5.1-5.9c3.5-0.4,6.5,2.3,6.5,5.7v25.1c0,3.4-3,6.2-6.5,5.7
				C257.2,282.1,255.1,279.5,255.1,276.6z M257,251.8v24.8c0,1.9,1.6,3.7,3.5,3.9c2.3,0.2,4.2-1.6,4.2-3.8v-25
				c0-2.4-2.2-4.3-4.6-3.7C258.3,248.2,257,249.9,257,251.8z M260.9,244.7c-3.6,0-6.3-2.3-6.3-5.5v-0.1c0-3.2,2.6-5.5,6.3-5.5
				s6.3,2.2,6.3,5.5v0.1C267.2,242.4,264.5,244.7,260.9,244.7z M260.9,235.5c-2.2,0-4.4,1.1-4.4,3.5v0.1c0,2.5,2.2,3.6,4.4,3.6
				s4.4-1.1,4.4-3.6V239C265.3,236.6,263.1,235.5,260.9,235.5z"/>
		</g>
		<g>
			<path class="st0" d="M272.9,239.3c0-2.6,2.1-4.9,4.9-4.9c2.6,0,4.9,2.1,4.9,4.9v37.3c0,2.6-2.1,4.9-4.9,4.9
				c-2.6,0-4.9-2.1-4.9-4.9V239.3z"/>
			<path class="st0" d="M271.9,276.6v-37.2c0-2.9,2.1-5.5,5.1-5.9c3.5-0.4,6.5,2.3,6.5,5.7v37.4c0,3.4-3,6.2-6.5,5.7
				C274,282.1,271.9,279.5,271.9,276.6z M273.8,239.4v37c0,2,1.7,3.9,3.7,3.9c2.2,0.1,3.9-1.7,3.9-3.8v-37.2c0-2.2-1.9-4-4.2-3.8
				C275.3,235.7,273.8,237.5,273.8,239.4z"/>
		</g>
	</g>
</g>
<g>
	<g>
		<g>
			<path class="st2" d="M520.8,54c0.2,7.7-6,14-13.5,14h-84.4c-1.8,0-3.4,1.5-3.4,3.4v47.5c0,1.8,1.5,3.4,3.4,3.4H488
				c7.4,0,13.5,5.8,13.7,13.1c0.2,7.7-6,14-13.5,14h-65.3c-1.8,0-3.4,1.5-3.4,3.4v47.4c0,7.4-5.8,13.5-13.1,13.7
				c-7.7,0.2-14-6-14-13.5V44.3c0-1.8,1.5-3.4,3.4-3.4h111.3C514.5,40.8,520.6,46.6,520.8,54z"/>
		</g>
		<g>
			<path class="st2" d="M561.5,53.8c0.4,30.3-24,55-54.4,55h-70.7c-1.8,0-3.4-1.5-3.4-3.4V84.5c0-1.6,1.3-2.9,2.9-2.9h73.6
				c8.6,0,16.5-4.5,20.7-12c11.7-21-3.2-42.2-23-42.2H381.8c-1.6,0-2.9,1.3-2.9,2.9v187c0,7.4-5.8,13.5-13.1,13.7
				c-7.7,0.2-14-6-14-13.5V3.4c0-1.8,1.5-3.4,3.4-3.4H507C536.4,0.1,561.2,24.2,561.5,53.8z"/>
		</g>
		<g>
			<path class="st2" d="M316.2,241.9c0-2.7,2.1-5,4.8-5h13.2c10.6,0,17.1,6.3,17.1,15.4v0.1c0,10.3-8,15.7-18,15.7h-7.5v8.9
				c0,2.8-2.4,5.2-5.3,5c-2.4-0.2-4.3-2.3-4.3-4.8L316.2,241.9L316.2,241.9z M333.7,259.4c4.8,0,7.8-2.9,7.8-6.8v-0.1
				c0-4.3-3-6.8-7.9-6.8H326v13.6h7.7V259.4z"/>
			<path class="st2" d="M321.7,282.7c-3.5,0.3-6.5-2.3-6.5-5.8v-35.1c0-3.2,2.6-5.9,5.9-5.9h13.2c5.4,0,9.9,1.6,13.1,4.5
				c3.1,2.9,4.8,7,4.8,11.8v0.1c0,5.2-1.9,9.4-5.6,12.4c-3.3,2.7-8,4.1-13.2,4.1h-6.6v7.8C326.9,279.9,324.7,282.4,321.7,282.7z
				 M321.1,237.9c-2.2,0-3.9,1.7-3.9,3.9v35c0,2,1.5,3.7,3.4,3.9c2.4,0.3,4.4-1.5,4.4-3.9V267h8.3c10.3,0,17-5.8,17-14.7v-0.1
				c0-8.8-6.3-14.4-16.1-14.4L321.1,237.9L321.1,237.9z M333.7,260.4H325v-15.5h8.5c5.6,0,8.9,2.8,8.9,7.7v0.1
				C342.4,257.2,339,260.4,333.7,260.4z M326.9,258.4h6.8c4.1,0,6.8-2.2,6.8-5.8v-0.1c0-5.1-4.3-5.8-7-5.8h-6.6L326.9,258.4
				L326.9,258.4z"/>
		</g>
		<g>
			<path class="st2" d="M370.7,282.1c-10.2,0-17.8-7.2-17.8-17.6v-0.1c0-9.7,6.9-17.7,16.8-17.7c11.3,0,16.4,9.3,16.4,16.4
				c0,2.8-1.9,4.6-4.5,4.6h-19.1c0.9,4.3,4,6.7,8.3,6.7c2.6,0,4.8-0.8,6.9-2.3c0.7-0.5,1.3-0.7,2.3-0.7c2.1,0,3.7,1.6,3.7,3.8
				c0,1.3-0.6,2.2-1.3,2.8C379.6,280.6,375.6,282.1,370.7,282.1z M376.9,261.7c-0.6-4.3-3.1-7.2-7.2-7.2s-6.6,2.8-7.4,7.2H376.9z"/>
			<path class="st2" d="M370.7,283.1c-5.3,0-10-1.8-13.3-5.2c-3.4-3.3-5.4-8.1-5.4-13.3v-0.2c0-5.1,1.7-9.7,5-13.1
				c3.2-3.5,7.8-5.6,12.8-5.6c6.9,0,10.9,3.2,13.1,5.9c2.6,3.1,4.1,7.4,4.1,11.4c0,3.2-2.3,5.6-5.5,5.6h-17.9
				c1.1,3.1,3.5,4.7,7.1,4.7c2.3,0,4.3-0.7,6.3-2.1c0.9-0.7,1.8-0.9,2.9-0.9c2.6,0,4.6,2,4.6,4.7c0,1.3-0.6,2.6-1.6,3.5l0,0
				C379.8,281.6,375.5,283.1,370.7,283.1z M369.8,247.6c-9.1,0-15.9,7.2-15.9,16.8v0.1c0,9.8,7,16.7,16.9,16.7
				c4.3,0,8.1-1.3,11.2-3.8c0.4-0.4,0.9-1.1,0.9-2.1c0-1.6-1.2-2.8-2.8-2.8c-0.8,0-1.3,0.2-1.8,0.6c-2.2,1.6-4.6,2.4-7.4,2.4
				c-4.8,0-8.2-2.7-9.2-7.4l-0.2-1.1h20.2c2.1,0,3.5-1.5,3.5-3.7C385.2,257,381,247.6,369.8,247.6z M378.1,262.6h-16.8l0.2-1.1
				c0.9-5.1,3.9-8,8.3-8s7.5,3,8.1,8.1L378.1,262.6z M363.6,260.8h12.2c-0.8-3.4-2.9-5.4-6.1-5.4
				C366.7,255.4,364.5,257.3,363.6,260.8z"/>
		</g>
		<g>
			<path class="st2" d="M425.2,276.9c0,2.6-2.2,4.8-5,4.8c-2.7,0-5-2.1-5-4.8v-0.5c-2.3,3.1-5.6,5.5-10.6,5.5
				c-7.9,0-15.5-6.2-15.5-17.6v-0.1c0-11.3,7.4-17.6,15.5-17.6c5.2,0,8.3,2.3,10.6,5.1v-12.3c0-2.6,2.2-4.8,5-4.8c2.7,0,5,2.1,5,4.8
				V276.9z M399,264.3v0.1c0,5.7,3.8,9.4,8.3,9.4s8.3-3.7,8.3-9.4v-0.1c0-5.7-3.7-9.4-8.3-9.4S399,258.5,399,264.3z"/>
			<path class="st2" d="M405,282.9c-8.2,0-16.4-6.4-16.4-18.5v-0.2c0-5.6,1.7-10.3,5-13.6c2.9-3.1,7.1-4.8,11.4-4.8
				c3.7,0,7,1.2,9.6,3.6v-9.9c0-2.9,2.1-5.5,5.1-5.9c3.5-0.4,6.5,2.3,6.5,5.7v37.3c0,3-2.3,5.7-5.5,5.9c-2.7,0.2-5.1-1.5-5.8-3.9
				C412.2,281.6,409,282.9,405,282.9z M405,247.7c-7,0-14.5,5.2-14.5,16.6v0.1c0,10.9,7.3,16.6,14.5,16.6c4.1,0,7.3-1.6,9.8-5.2
				l1.7-2.3v3.1c0,2.2,1.8,4,3.9,3.9c2.1,0,3.7-1.7,3.7-3.8v-37.1c0-2.2-1.8-4-3.9-3.9c-2.1,0-3.7,1.7-3.7,3.8v14.9l-1.6-2
				C412.2,249.3,409,247.7,405,247.7z M407.4,274.8c-5.3,0-9.3-4.4-9.3-10.3v-0.1c0-2.9,1-5.6,2.7-7.5c1.7-1.8,4-2.8,6.6-2.8
				c5.3,0,9.2,4.4,9.2,10.3v0.1C416.6,270.4,412.5,274.8,407.4,274.8z M407.4,255.8c-4.2,0-7.4,3.5-7.4,8.5v0.1
				c0,4.8,3.1,8.5,7.4,8.5c4.2,0,7.3-3.5,7.3-8.5v-0.1C414.6,259.4,411.6,255.8,407.4,255.8z"/>
		</g>
		<g>
			<path class="st2" d="M431.6,251.9c0-2.5,1.9-4.6,4.4-4.7c2.8-0.2,5.2,2.1,5.2,5v24.9c0,2.5-1.9,4.6-4.4,4.7
				c-2.8,0.2-5.2-2.1-5.2-5V251.9z M433.8,242.4c0-0.6,0.3-1.2,0.6-1.7l3.5-5.5c0.8-1.3,2-2.1,3.6-2.1c2.3,0,5.4,1.4,5.4,2.9
				c0,0.9-0.5,1.6-1.3,2.3l-3.9,3.6c-1.8,1.7-3.3,2.1-5.6,2.1C434.8,244,433.8,243.4,433.8,242.4z"/>
			<path class="st2" d="M430.7,276.8V252c0-2.9,2.1-5.5,5.1-5.9c3.5-0.4,6.5,2.3,6.5,5.7v25.1c0,3.4-3,6.2-6.5,5.7
				C432.8,282.3,430.7,279.8,430.7,276.8z M432.5,252v24.9c0,1.9,1.6,3.7,3.5,3.9c2.3,0.2,4.2-1.6,4.2-3.8v-25
				c0-2.4-2.2-4.3-4.6-3.7C433.8,248.4,432.5,250.2,432.5,252z M436.3,244.9c-1.9,0-3.3-1-3.3-2.6c0-0.6,0.2-1.4,0.8-2.2l3.5-5.5
				c1-1.7,2.5-2.6,4.3-2.6c2.5,0,6.4,1.6,6.4,3.8c0,1.3-0.8,2.3-1.5,2.9l-3.9,3.6C440.3,244.5,438.5,244.9,436.3,244.9z M441.6,234
				c-1.2,0-2.1,0.6-2.8,1.7l-3.5,5.5c-0.4,0.7-0.5,1-0.5,1.2c0,0.5,0.7,0.7,1.5,0.7c1.9,0,3.2-0.3,4.8-1.8l3.9-3.6
				c0.7-0.6,1-1.1,1-1.6C446.1,235.3,443.8,234,441.6,234z"/>
		</g>
		<g>
			<path class="st2" d="M465.4,241.9c0-2.7,2.1-5,5-5h24.8c2.3,0,4.3,1.7,4.5,4c0.2,2.6-1.8,4.7-4.4,4.7h-20v9.4h17.1
				c2.3,0,4.3,1.7,4.5,4c0.2,2.6-1.8,4.7-4.4,4.7h-17.1v12.8c0,2.5-1.9,4.7-4.4,5c-2.9,0.3-5.4-1.9-5.4-4.8L465.4,241.9L465.4,241.9
				z"/>
			<path class="st2" d="M470.6,282.6c-3.4,0.2-6.2-2.4-6.2-5.9v-35.3c0-3,2.4-5.6,5.6-5.6h25.5c2.3,0,4.3,1.5,5,3.7
				c1,3.7-1.6,7-5.2,7h-19.1v7.6h16.2c2.8,0,5.4,2.2,5.5,5.1c0.1,3.1-2.2,5.7-5.4,5.7h-16.3v11.6
				C476.2,279.9,473.7,282.5,470.6,282.6z M470.3,237.9c-2.2,0-3.9,1.7-3.9,3.9v34.8c0,2.1,1.6,3.8,3.6,4c2.3,0.2,4.2-1.6,4.2-3.9
				v-13.5h18.1c2,0,3.6-1.6,3.5-3.6c-0.1-1.9-1.6-3.3-3.5-3.3h-18.1V245h20.9c2,0,3.6-1.6,3.5-3.6c-0.1-1.9-1.6-3.3-3.5-3.3h-24.8
				V237.9z"/>
		</g>
		<g>
			<path class="st2" d="M499.9,271.6v-0.1c0-7.4,5.7-10.8,13.6-10.8c3.4,0,5.9,0.6,8.3,1.4v-0.6c0-3.9-2.4-6.2-7.3-6.2
				c-2.6,0-4.8,0.4-6.7,0.9c-0.6,0.2-0.9,0.2-1.4,0.2c-2.2,0-3.9-1.7-3.9-3.9c0-1.7,1.1-3.1,2.6-3.7c3-1.1,6.4-1.8,10.8-1.8
				c5.3,0,9.1,1.4,11.4,3.8c2.5,2.5,3.6,6.3,3.6,10.8V277c0,2.6-2.1,4.7-4.6,4.7c-2.7,0-4.5-1.9-4.5-3.9v-0.1
				c-2.3,2.6-5.6,4.3-10.2,4.3C505.2,282,499.9,278.4,499.9,271.6z M521.9,269.4v-1.7c-1.6-0.7-3.8-1.3-6.2-1.3
				c-4.1,0-6.7,1.6-6.7,4.7v0.1c0,2.6,2.1,4.1,5.3,4.1C518.9,275.3,521.9,272.9,521.9,269.4z M513.8,242.4c0-0.6,0.3-1.2,0.6-1.7
				l3.5-5.5c0.8-1.3,2-2.1,3.6-2.1c2.3,0,5.4,1.4,5.4,2.9c0,0.9-0.5,1.6-1.3,2.3l-3.9,3.6c-1.8,1.7-3.3,2.1-5.6,2.1
				C514.8,244,513.8,243.4,513.8,242.4z"/>
			<path class="st2" d="M511.3,283c-3.4,0-6.6-1-8.8-2.9c-2.4-2-3.7-5-3.7-8.5v-0.1c0-3.8,1.4-7,4.2-9c2.5-1.8,6.2-2.8,10.4-2.8
				c3.1,0,5.5,0.5,7.4,1c-0.3-3-2.4-4.5-6.4-4.5c-2.3,0-4.4,0.3-6.4,0.9c-0.6,0.2-1.1,0.3-1.7,0.3c-2.7,0-5-2.1-5-4.8
				c0-2,1.3-3.9,3.2-4.6c3.3-1.3,6.9-1.8,11.2-1.8c5.4,0,9.4,1.4,12.1,4c2.6,2.6,3.9,6.5,3.9,11.5V277c0,3.1-2.4,5.6-5.7,5.6
				c-2.6,0-4.4-1.4-5.2-3.1C518.5,281.9,515.3,283,511.3,283z M513.5,261.5c-4.7,0-12.7,1.3-12.7,9.9v0.2c0,6.6,5.4,9.4,10.7,9.4
				c4,0,7.2-1.3,9.6-3.9l1.6-1.8v2.4c0,1.5,1.4,3,3.6,3c2.1,0,3.7-1.6,3.7-3.7v-15.5c0-4.4-1.1-7.9-3.3-10.2
				c-2.3-2.3-5.9-3.5-10.7-3.5c-4,0-7.3,0.5-10.4,1.7c-1.2,0.4-2,1.6-2,2.8c0,1.7,1.3,3,3,3c0.3,0,0.6,0,1.1-0.2h-0.1
				c2.1-0.7,4.3-1,6.9-1c5.3,0,8.2,2.5,8.2,7.2v1.9l-1.2-0.4C519.4,262.2,517.1,261.5,513.5,261.5z M514.4,276.3
				c-3.7,0-6.2-2-6.2-5.1v-0.1c0-3.5,2.8-5.7,7.6-5.7c2.3,0,4.6,0.5,6.6,1.3l0.5,0.2v2.3C522.9,273.4,519.4,276.3,514.4,276.3z
				 M515.8,267.3c-2.1,0-5.8,0.5-5.8,3.7v0.1c0,2.3,2.2,3.2,4.3,3.2c3.9,0,6.6-2,6.6-5.1v-1.1C519.5,267.6,517.7,267.3,515.8,267.3z
				 M516.2,244.9c-1.9,0-3.3-1-3.3-2.6c0-0.6,0.2-1.4,0.8-2.2l3.5-5.5c1-1.7,2.5-2.6,4.3-2.6c2.5,0,6.4,1.6,6.4,3.8
				c0,1.3-0.8,2.3-1.5,2.9l-3.9,3.6C520.2,244.5,518.4,244.9,516.2,244.9z M521.4,234c-1.2,0-2.1,0.6-2.8,1.7l-3.5,5.5
				c-0.4,0.7-0.5,1-0.5,1.2c0,0.5,0.7,0.7,1.5,0.7c1.9,0,3.2-0.3,4.8-1.8l3.9-3.6c0.7-0.6,1-1.1,1-1.6
				C526,235.3,523.8,234,521.4,234z"/>
		</g>
		<g>
			<path class="st2" d="M535.2,264.6v-0.2c0-9.8,7.5-17.9,18-17.9c5.2,0,8.8,1.4,11.7,3.8c0.7,0.5,1.7,1.8,1.5,3.7
				c-0.2,2-1.7,3.6-3.7,3.9c-1.6,0.2-2.8-0.4-3.5-0.9c-1.7-1.3-3.5-2.1-6.1-2.1c-4.8,0-8.3,4.2-8.3,9.4v0.1c0,5.3,3.4,9.5,8.7,9.5
				c2.5,0,4.5-0.9,6.4-2.3c0.5-0.4,1.5-0.9,2.6-0.9c2.3,0,4.1,1.8,4.1,4.1c0,1.3-0.6,2.3-1.4,3c-2.8,2.6-6.6,4.4-12.1,4.4
				C542.7,282.3,535.2,274.3,535.2,264.6z"/>
			<path class="st2" d="M553,283.2c-5.2,0-10-1.9-13.4-5.5c-3.4-3.4-5.4-8.2-5.4-13.1v-0.2c0-5.1,1.9-9.8,5.4-13.2
				c3.5-3.5,8.3-5.6,13.6-5.6c5.2,0,9,1.3,12.3,4c0.9,0.7,1.9,2.2,1.9,4c0,2.9-2.4,5.3-5.4,5.3c-1.6,0-2.8-0.7-3.4-1.1
				c-1.8-1.4-3.4-2-5.5-2c-4.1,0-7.4,3.7-7.4,8.4v0.1c0,5.1,3.2,8.5,7.8,8.5c2.1,0,3.9-0.7,5.8-2.1l0,0c0.4-0.3,1.6-1.1,3.2-1.1
				c2.8,0,5.1,2.2,5.1,5.1c0,1.4-0.6,2.7-1.7,3.7C562.2,281.8,558.2,283.2,553,283.2z M553.2,247.4c-9.7,0-17.1,7.3-17.1,17v0.1
				c0,9.6,7.3,16.9,17,16.9c4.8,0,8.4-1.3,11.5-4.1c0.7-0.7,1.1-1.5,1.1-2.4c0-1.8-1.4-3.2-3.1-3.2c-1,0-1.8,0.5-2,0.7
				c-2.2,1.7-4.4,2.6-7,2.6c-5.7,0-9.7-4.3-9.7-10.4v-0.1c0-5.8,4-10.3,9.3-10.3c2.5,0,4.5,0.7,6.7,2.4c0.4,0.3,1.1,0.8,2.2,0.8
				c1.9,0,3.4-1.5,3.4-3.4c0-1.5-1-2.4-1.2-2.6l0,0C561.4,248.6,557.8,247.4,553.2,247.4z"/>
		</g>
		<g>
			<path class="st2" d="M570.4,239.3c0-2.8,2.3-4.4,5.4-4.4s5.4,1.7,5.4,4.4v0.1c0,2.8-2.3,4.5-5.4,4.5s-5.4-1.7-5.4-4.5V239.3z
				 M571,251.9c0-2.6,2.1-4.8,4.8-4.8c2.6,0,4.8,2.1,4.8,4.8v25c0,2.6-2.1,4.8-4.8,4.8c-2.6,0-4.8-2.1-4.8-4.8V251.9z"/>
			<path class="st2" d="M570,276.8V252c0-2.9,2.1-5.5,5.1-5.9c3.5-0.4,6.5,2.3,6.5,5.7v25.1c0,3.4-3,6.2-6.5,5.7
				C572.2,282.3,570,279.8,570,276.8z M571.9,252v24.9c0,1.9,1.6,3.7,3.5,3.9c2.3,0.2,4.2-1.6,4.2-3.8v-25c0-2.4-2.2-4.3-4.6-3.7
				C573.2,248.4,571.9,250.2,571.9,252z M575.8,244.9c-3.6,0-6.4-2.3-6.4-5.6v-0.1c0-3.2,2.6-5.5,6.4-5.5c3.7,0,6.4,2.2,6.4,5.5v0.1
				C582.2,242.6,579.4,244.9,575.8,244.9z M575.8,235.7c-2.2,0-4.4,1.1-4.4,3.5v0.1c0,2.5,2.2,3.6,4.4,3.6s4.4-1.1,4.4-3.6v-0.1
				C580.2,236.8,578,235.7,575.8,235.7z"/>
		</g>
		<g>
			<path class="st2" d="M587.6,239.6c0-2.6,2.1-4.8,4.8-4.8c2.6,0,4.8,2.1,4.8,4.8v37.3c0,2.6-2.1,4.8-4.8,4.8
				c-2.6,0-4.8-2.1-4.8-4.8V239.6z"/>
			<path class="st2" d="M586.7,276.8v-37.2c0-2.9,2.1-5.5,5.1-5.9c3.5-0.4,6.5,2.3,6.5,5.7v37.4c0,3.4-3,6.2-6.5,5.7
				C588.8,282.3,586.7,279.8,586.7,276.8z M588.5,239.7v37.1c0,2,1.7,3.9,3.7,3.9c2.2,0.1,3.9-1.7,3.9-3.8v-37.3
				c0-2.2-1.9-4-4.2-3.8C590,235.9,588.5,237.7,588.5,239.7z"/>
		</g>
	</g>
</g>
<g>
	<g>
		<path class="st3" d="M835.7,54.4c0,7.5-6.1,13.6-13.6,13.6h-84.3c-1.9,0-3.4,1.5-3.4,3.4V119c0,1.9,1.5,3.4,3.4,3.4h65.3
			c7.5,0,13.6,6.1,13.6,13.6s-6.1,13.6-13.6,13.6h-65.3c-1.9,0-3.4,1.5-3.4,3.4v47.5c0,7.5-6.1,13.6-13.6,13.6
			c-7.5,0-13.6-6.1-13.6-13.6V44.2c0-1.9,1.5-3.4,3.4-3.4h111.5C829.7,40.8,835.7,46.9,835.7,54.4z"/>
	</g>
	<g>
		<path class="st3" d="M876.5,54.4c0,30-24.3,54.3-54.3,54.3h-70.8c-1.9,0-3.4-1.5-3.4-3.4V85c0-1.9,1.5-3.4,3.4-3.4h70.8
			c15,0,27.2-12.2,27.2-27.2s-12.2-27.2-27.2-27.2H697.1c-1.9,0-3.4,1.5-3.4,3.4v186.8c0,7.5-6.1,13.6-13.6,13.6
			s-13.6-6.1-13.6-13.6V3.5c0-1.9,1.5-3.4,3.4-3.4h152.3C852.2,0.1,876.5,24.4,876.5,54.4z"/>
	</g>
	<path class="st3" d="M662.2,240.6c-3.2-3-7.7-4.5-13.1-4.5h-13.3c-3.3,0-5.8,2.6-5.8,5.8v35c0,3.3,2.6,5.8,5.8,5.8
		c3.3,0,5.8-2.6,5.8-5.8V269h6.5c5.3,0,9.9-1.4,13.3-4.2c3.7-2.9,5.6-7.2,5.6-12.4v-0.1C667,247.6,665.4,243.5,662.2,240.6z
		 M655.2,252.5v0.1c0,3.5-2.7,5.8-6.8,5.8h-6.8v-11.7h6.6C650.9,246.8,655.2,247.5,655.2,252.5z"/>
	<path class="st3" d="M701.9,263.1c0-4-1.6-8.3-4.2-11.4c-2.2-2.7-6.3-5.9-13.2-5.9c-5,0-9.5,2-12.8,5.5c-3.2,3.5-4.9,8.1-4.9,13.1
		v0.1c0,5.2,1.9,10,5.3,13.4c3.4,3.3,8.1,5.2,13.4,5.2c4.8,0,9-1.5,12.4-4.4l0,0c1-0.9,1.6-2.2,1.6-3.5c0-2.7-2-4.7-4.7-4.7
		c-1.1,0-2,0.3-2.9,0.9c-1.9,1.4-4,2.1-6.3,2.1c-3.6,0-6-1.7-7.1-4.8h17.9C699.6,268.7,701.9,266.4,701.9,263.1z M684.6,255.5
		c3.1,0,5.3,1.9,6.1,5.4h-12.2C679.3,257.4,681.5,255.5,684.6,255.5z"/>
	<path class="st3" d="M735.2,233.8c-3.2,0-5.8,2.6-5.8,5.8v10c-2.7-2.5-5.9-3.7-9.7-3.7c-4.4,0-8.5,1.7-11.4,4.8
		c-3.3,3.4-5,8.1-5,13.7v0.1c0,12.2,8.3,18.5,16.4,18.5c4,0,7.2-1.4,9.9-4.2c0.8,2.3,2.9,4,5.5,4c3.2,0,5.8-2.6,5.8-5.8v-37.4
		C740.9,236.4,738.3,233.8,735.2,233.8z M729.5,264.4v0.1c0,4.9-3.1,8.5-7.3,8.5c-4.2,0-7.4-3.6-7.4-8.5v-0.1c0-4.9,3.1-8.5,7.4-8.5
		C726.4,255.9,729.5,259.5,729.5,264.4z"/>
	<g>
		<path class="st3" d="M756.4,232.1c-1.8,0-3.4,0.9-4.4,2.6l-3.5,5.5c-0.5,0.8-0.8,1.6-0.8,2.2c0,1.5,1.4,2.6,3.3,2.6
			c2.3,0,4.1-0.4,6.2-2.3l3.9-3.7c0.7-0.7,1.6-1.6,1.6-3C762.7,233.8,758.9,232.1,756.4,232.1z"/>
		<path class="st3" d="M751.3,246.1c-3.2,0-5.8,2.6-5.8,5.8V277c0,3.2,2.6,5.8,5.8,5.8s5.8-2.6,5.8-5.8v-25.1
			C757.1,248.7,754.5,246.1,751.3,246.1z"/>
	</g>
	<path class="st3" d="M809.9,246.8c3,0,5.4-2.4,5.4-5.4s-2.4-5.4-5.4-5.4h-24.9c-3.3,0-5.8,2.6-5.8,5.8v35c0,3.3,2.6,5.8,5.8,5.8
		s5.8-2.6,5.8-5.8v-11.8h16.2c3,0,5.4-2.4,5.4-5.4s-2.4-5.4-5.4-5.4h-16.2v-7.6H809.9z"/>
	<g>
		<path class="st3" d="M831,245c2.2,0,4.1-0.4,6.2-2.3l3.9-3.7c0.7-0.7,1.6-1.6,1.6-3c0-2.2-3.8-3.8-6.3-3.8c-1.8,0-3.4,0.9-4.4,2.6
			l-3.5,5.5c-0.5,0.8-0.8,1.6-0.8,2.2C827.7,243.9,829,245,831,245z"/>
		<path class="st3" d="M842.9,250.1c-2.7-2.7-6.8-4.1-12.2-4.1c-4.3,0-7.8,0.6-11.2,1.8c-1.9,0.7-3.2,2.6-3.2,4.6
			c0,2.7,2.2,4.9,4.9,4.9c0.6,0,1-0.1,1.7-0.3c2-0.6,4.1-0.9,6.4-0.9c3.9,0,6,1.5,6.3,4.5c-1.9-0.6-4.2-1-7.3-1
			c-4.3,0-7.9,1-10.4,2.8c-2.8,2-4.2,5.1-4.2,9v0.1c0,3.5,1.3,6.4,3.8,8.5c2.2,1.9,5.4,2.9,8.8,2.9c3.9,0,7.1-1.1,9.8-3.4
			c0.8,1.7,2.6,3.1,5.2,3.1c3.2,0,5.6-2.5,5.6-5.6v-15.5C846.9,256.6,845.5,252.8,842.9,250.1z M835.8,268.3v1.1c0,3-2.6,5-6.6,5
			c-2.1,0-4.3-0.8-4.3-3.2v-0.1c0-3.3,3.6-3.8,5.7-3.8C832.5,267.4,834.3,267.7,835.8,268.3z"/>
	</g>
	<path class="st3" d="M877.2,269.7c-1.6,0-2.7,0.8-3.2,1.1l0,0c-1.9,1.5-3.6,2.2-5.8,2.2c-4.5,0-7.7-3.5-7.7-8.5v-0.1
		c0-4.7,3.2-8.3,7.3-8.3c2.1,0,3.7,0.6,5.5,2c0.5,0.4,1.7,1.2,3.4,1.2c2.9,0,5.3-2.4,5.3-5.2c0-1.8-1-3.3-1.9-4
		c-3.3-2.7-7.1-4-12.2-4c-5.2,0-10,1.9-13.5,5.5c-3.4,3.5-5.3,8.1-5.3,13.2v0.1c0,5,1.9,9.6,5.3,13.1c3.5,3.5,8.2,5.4,13.3,5.4
		c5.2,0,9.2-1.5,12.7-4.6c1.1-1,1.7-2.3,1.7-3.7C882.2,271.9,880,269.7,877.2,269.7z"/>
	<g>
		<path class="st3" d="M890.6,246.1c-3.2,0-5.8,2.6-5.8,5.8V277c0,3.2,2.6,5.8,5.8,5.8c3.2,0,5.8-2.6,5.8-5.8v-25.1
			C896.4,248.7,893.8,246.1,890.6,246.1z"/>
		<path class="st3" d="M890.6,233.8c-3.7,0-6.3,2.2-6.3,5.4v0.1c0,3.2,2.7,5.5,6.3,5.5s6.3-2.3,6.3-5.5v-0.1
			C896.9,236.1,894.4,233.8,890.6,233.8z"/>
	</g>
	<path class="st3" d="M907.2,233.8c-3.2,0-5.8,2.6-5.8,5.8V277c0,3.2,2.6,5.8,5.8,5.8s5.8-2.6,5.8-5.8v-37.4
		C913,236.4,910.4,233.8,907.2,233.8z"/>
</g>
</svg>
